<?xml version="1.0" encoding="utf-8"?>
<!-- Generator: Adobe Illustrator 24.0.0, SVG Export Plug-In . SVG Version: 6.00 Build 0)  -->
<svg version="1.1" xmlns="http://www.w3.org/2000/svg" xmlns:xlink="http://www.w3.org/1999/xlink" x="0px" y="0px"
	 viewBox="0 0 500 385.28" style="enable-background:new 0 0 500 385.28;" xml:space="preserve">
<style type="text/css">
	.st0{display:none;}
	.st1{display:inline;fill:#FFFFFF;}
	.st2{fill:#E6EAF0;}
	.st3{fill:#626263;}
	.st4{fill:#4C4C4C;}
	.st5{fill:#545454;}
	.st6{fill:#999999;}
	.st7{fill:#42444F;}
	.st8{clip-path:url(#SVGID_2_);}
	.st9{fill:#35363B;}
	.st10{fill:#D9DFE6;}
	.st11{fill:#34909D;}
	.st12{fill:#F8B85E;}
	.st13{fill:#BA0034;}
	.st14{fill:#C8D0D9;}
	.st15{fill:#B3BDC7;}
	.st16{fill:#FFFFFF;}
	.st17{fill:#6F7082;}
	.st18{fill:#D9DDE3;}
	.st19{fill:#777777;}
	.st20{fill:#606060;}
	.st21{fill:#9E9E9E;}
	.st22{fill:none;stroke:#6F7082;stroke-width:1.2669;stroke-miterlimit:10;stroke-dasharray:2.3034,1.1517;}
	.st23{fill:none;stroke:#6F7082;stroke-width:0.8638;stroke-miterlimit:10;stroke-dasharray:1.1517,0.5759;}
	.st24{fill:none;stroke:#E6EAF0;stroke-miterlimit:10;}
</style>
<g id="Background" class="st0">
	<rect y="-55.85" class="st1" width="500" height="500"/>
</g>
<g id="Objects">
	<g>
		<g>
			<g id="cloud_5_">
				<path class="st2" d="M194.96,92.05c-1.73,0-3.38,0.31-4.93,0.86c-1.59-7.93-7.1-14.44-14.41-17.46
					c0.28-2.22,0.45-4.48,0.45-6.77c0-29.28-23.73-53.01-53.01-53.01c-26.5,0-48.45,19.44-52.38,44.84
					c-2.17-0.48-4.42-0.74-6.74-0.74c-17.1,0-30.96,13.86-30.96,30.96c0,17.1,13.86,30.96,30.96,30.96h131.02
					c8.18,0,14.82-6.63,14.82-14.82C209.78,98.68,203.14,92.05,194.96,92.05z"/>
			</g>
			<g>
				<g>
					<path class="st3" d="M283.66,268.05v32.44h-44.18v-32.44h15.63v15.59c0,3.56,2.9,6.47,6.46,6.47c3.56,0,6.47-2.91,6.47-6.47
						v-15.59H283.66z"/>
					<polygon class="st4" points="239.48,268.05 255.11,268.05 255.11,274.63 239.48,272.83 					"/>
					<polygon class="st4" points="283.66,268.05 283.66,277.9 268.05,276.11 268.05,268.05 					"/>
					<rect x="208.73" y="300.14" class="st5" width="105.69" height="4.4"/>
				</g>
				<path class="st5" d="M411.58,114.63V259.7c0,6.61-5.37,11.98-11.98,11.98H123.55c-6.61,0-11.98-5.37-11.98-11.98V114.63
					c0-6.61,5.37-11.97,11.98-11.97H399.6C406.22,102.67,411.58,108.02,411.58,114.63z"/>
				<rect x="111.57" y="117.72" class="st6" width="300.01" height="136.26"/>
				<path class="st7" d="M265.81,262.74c0,2.34-1.89,4.23-4.23,4.23c-2.34,0-4.23-1.89-4.23-4.23c0-2.34,1.89-4.23,4.23-4.23
					C263.91,258.51,265.81,260.4,265.81,262.74z"/>
			</g>
			<g>
				<defs>
					<rect id="SVGID_1_" x="188.55" y="125.36" width="168.55" height="128.62"/>
				</defs>
				<clipPath id="SVGID_2_">
					<use xlink:href="#SVGID_1_"  style="overflow:visible;"/>
				</clipPath>
				<g id="Website_2_" class="st8">
					<g>
						<g>
							<g>
								<path class="st9" d="M344.07,145.79l-13.59,150.87c-0.33,3.64-3.72,6.6-7.58,6.6H197.47c-3.86,0-6.72-2.96-6.4-6.6
									l13.59-150.87c0.33-3.65,3.72-6.6,7.58-6.6h125.43C341.54,139.18,344.4,142.14,344.07,145.79z"/>
								<path class="st10" d="M329.91,136.54v159.72c0,3.86-3.13,6.99-6.99,6.99H197.49c-3.86,0-6.99-3.13-6.99-6.99V136.54
									c0-3.86,3.13-6.99,6.99-6.99h125.43C326.78,129.55,329.91,132.68,329.91,136.54z"/>
								<g>
									<path class="st11" d="M318.34,136.66c0,1.42,1.15,2.57,2.57,2.57c1.42,0,2.57-1.15,2.57-2.57s-1.15-2.57-2.57-2.57
										C319.49,134.09,318.34,135.24,318.34,136.66z"/>
									<path class="st12" d="M311.17,136.66c0,1.42,1.15,2.57,2.57,2.57c1.42,0,2.57-1.15,2.57-2.57s-1.15-2.57-2.57-2.57
										C312.32,134.09,311.17,135.24,311.17,136.66z"/>
									<circle class="st13" cx="306.57" cy="136.66" r="2.57"/>
								</g>
							</g>
							<rect x="190.51" y="221.49" class="st14" width="139.41" height="42.98"/>
							<g>
								<rect x="315.02" y="143.93" class="st15" width="7.49" height="3.07"/>
								<rect x="306.01" y="143.93" class="st15" width="7.49" height="3.07"/>
								<rect x="296.99" y="143.93" class="st15" width="7.49" height="3.07"/>
								<rect x="287.98" y="143.93" class="st15" width="7.49" height="3.07"/>
							</g>
							<g>
								<path class="st7" d="M206.53,140.09c-0.04-0.2-0.02-0.42,0.07-0.65c0.09-0.24,0.23-0.48,0.4-0.71
									c0.17-0.23,0.38-0.44,0.6-0.63c0.23-0.18,0.45-0.32,0.67-0.39c0.22-0.08,0.41-0.08,0.59-0.02c0.17,0.06,0.29,0.22,0.36,0.48
									c0.02,0.05,0.04,0.11,0.04,0.16c0.01,0.05,0.02,0.1,0.04,0.16l0.16,0.6c0.02,0.05,0.04,0.11,0.04,0.16
									c0.01,0.05,0.02,0.1,0.04,0.16l1.78,6.72c0.12-0.27,0.25-0.57,0.38-0.89s0.27-0.68,0.43-1.07c0.08-0.2,0.19-0.49,0.33-0.88
									s0.3-0.81,0.47-1.27c0.08-0.2,0.17-0.41,0.29-0.63c0.11-0.22,0.25-0.42,0.39-0.6c0.15-0.17,0.32-0.31,0.52-0.4
									s0.41-0.11,0.65-0.04c0.2,0.05,0.35,0.16,0.47,0.3c0.11,0.15,0.2,0.31,0.25,0.5c0.11,0.34,0.18,0.56,0.2,0.65
									c0.03,0.1,0.05,0.17,0.07,0.23c0.02,0.05,0.05,0.14,0.1,0.27c0.04,0.13,0.13,0.38,0.26,0.78c0.11,0.32,0.21,0.63,0.31,0.96
									c0.1,0.32,0.2,0.65,0.29,0.97l0.29,0.96c0.16-0.53,0.33-1.14,0.5-1.81c0.17-0.67,0.35-1.35,0.54-2.03
									c0.19-0.68,0.39-1.34,0.6-1.96c0.21-0.63,0.44-1.17,0.69-1.63c0.1-0.18,0.22-0.33,0.35-0.44c0.14-0.11,0.28-0.19,0.42-0.24
									c0.15-0.05,0.29-0.08,0.43-0.08c0.14-0.01,0.26,0.01,0.37,0.04c0.32,0.09,0.52,0.22,0.62,0.41c0.1,0.19,0.13,0.4,0.11,0.63
									c-0.03,0.23-0.09,0.49-0.18,0.76s-0.18,0.54-0.27,0.8c-0.49,1.56-0.99,3.06-1.5,4.49c-0.51,1.43-0.99,2.84-1.44,4.23
									c-0.16,0.51-0.41,0.84-0.75,0.98c-0.34,0.14-0.68,0.12-1.01-0.07c-0.05-0.05-0.09-0.09-0.1-0.11
									c-0.01-0.02-0.03-0.05-0.05-0.1l-2.11-4.87c-0.16,0.4-0.34,0.83-0.52,1.28c-0.19,0.45-0.37,0.89-0.56,1.3
									c-0.19,0.42-0.37,0.8-0.54,1.15c-0.17,0.35-0.32,0.63-0.45,0.83c-0.22,0.34-0.5,0.55-0.84,0.63
									c-0.34,0.08-0.66,0.05-0.94-0.11c-0.04-0.02-0.08-0.06-0.1-0.12c-0.02-0.06-0.05-0.13-0.08-0.22L206.53,140.09z"/>
								<path class="st7" d="M227.71,141.56c0.48,0.21,0.83,0.47,1.05,0.78s0.33,0.64,0.32,0.98c-0.01,0.34-0.13,0.69-0.37,1.03
									c-0.23,0.34-0.57,0.65-1.01,0.91c-0.51,0.32-1.05,0.58-1.62,0.79s-1.16,0.38-1.78,0.52c0.16,0.22,0.35,0.4,0.56,0.54
									c0.21,0.14,0.44,0.24,0.68,0.29c0.41,0.09,0.83,0.11,1.26,0.06c0.43-0.05,0.81-0.16,1.14-0.33c0.28-0.14,0.51-0.2,0.67-0.16
									c0.16,0.03,0.28,0.12,0.34,0.26c0.07,0.14,0.09,0.32,0.07,0.54c-0.02,0.22-0.08,0.44-0.17,0.65s-0.21,0.42-0.36,0.62
									c-0.15,0.2-0.31,0.34-0.5,0.43c-0.39,0.2-0.8,0.34-1.21,0.44c-0.41,0.1-0.83,0.15-1.24,0.16c-0.57,0.01-1.11-0.07-1.63-0.24
									c-0.52-0.17-0.97-0.43-1.35-0.78c-0.38-0.35-0.68-0.79-0.88-1.31c-0.21-0.52-0.28-1.13-0.23-1.82
									c0.04-0.61,0.18-1.19,0.42-1.72c0.23-0.54,0.54-1.02,0.91-1.43c0.37-0.41,0.79-0.75,1.27-1.01c0.47-0.26,0.97-0.43,1.5-0.49
									c0.35-0.04,0.71-0.04,1.07,0C226.99,141.31,227.35,141.41,227.71,141.56z M223.75,145c0.27,0,0.58-0.01,0.92-0.03
									c0.34-0.02,0.68-0.05,1.01-0.1s0.64-0.1,0.92-0.16s0.48-0.15,0.61-0.25c0.09-0.05,0.08-0.13-0.02-0.21
									c-0.1-0.09-0.26-0.17-0.46-0.25s-0.43-0.16-0.7-0.22c-0.26-0.07-0.52-0.1-0.77-0.1c-0.41-0.01-0.77,0.1-1.05,0.32
									C223.93,144.21,223.78,144.55,223.75,145z"/>
								<path class="st7" d="M233.08,141.72c0.69-0.32,1.42-0.5,2.21-0.55c0.79-0.05,1.53,0.11,2.22,0.47
									c0.39,0.21,0.72,0.47,0.99,0.8s0.47,0.69,0.61,1.08c0.14,0.39,0.23,0.81,0.25,1.24c0.03,0.44,0,0.86-0.09,1.28
									c-0.1,0.47-0.26,0.93-0.48,1.38s-0.5,0.86-0.83,1.22c-0.33,0.36-0.7,0.66-1.13,0.91c-0.43,0.25-0.89,0.4-1.41,0.45
									c-0.46,0.05-0.95,0.04-1.49-0.04c-0.53-0.08-1.03-0.23-1.49-0.45c-0.17,0.19-0.35,0.33-0.54,0.43
									c-0.29,0.15-0.56,0.16-0.81,0.03c-0.25-0.13-0.37-0.37-0.37-0.72v-9.37c0-0.37,0.11-0.75,0.32-1.14s0.48-0.67,0.81-0.84
									c0.29-0.15,0.57-0.17,0.83-0.04c0.26,0.13,0.38,0.37,0.38,0.73V141.72z M233.08,146.17c0.09,0.21,0.25,0.39,0.47,0.56
									s0.48,0.29,0.77,0.39c0.28,0.1,0.58,0.16,0.89,0.19c0.31,0.03,0.6,0.01,0.87-0.05c0.27-0.06,0.49-0.17,0.66-0.32
									c0.17-0.15,0.27-0.36,0.29-0.62c0.02-0.34-0.02-0.67-0.14-1.01c-0.11-0.33-0.28-0.64-0.49-0.93
									c-0.21-0.29-0.46-0.55-0.74-0.79c-0.28-0.24-0.57-0.44-0.87-0.6s-0.6-0.26-0.9-0.31s-0.58-0.04-0.83,0.04V146.17z"/>
								<path class="st7" d="M248.29,141.99c0.19,0.12,0.3,0.29,0.34,0.5c0.04,0.21,0.04,0.44-0.02,0.67s-0.15,0.47-0.29,0.69
									c-0.14,0.23-0.31,0.42-0.49,0.57c-0.19,0.15-0.38,0.25-0.57,0.3c-0.2,0.05-0.39,0.01-0.57-0.11
									c-0.27-0.17-0.61-0.34-1.01-0.51c-0.4-0.16-0.79-0.28-1.17-0.34c-0.38-0.07-0.71-0.07-1,0c-0.28,0.07-0.44,0.24-0.47,0.52
									c-0.01,0.09,0.03,0.17,0.11,0.24c0.09,0.07,0.21,0.13,0.37,0.18c0.16,0.05,0.34,0.09,0.55,0.12
									c0.21,0.03,0.43,0.07,0.65,0.1c0.24,0.02,0.51,0.05,0.82,0.1c0.31,0.04,0.61,0.11,0.92,0.19c0.31,0.08,0.61,0.19,0.91,0.31
									c0.29,0.13,0.55,0.28,0.75,0.47s0.36,0.42,0.46,0.69c0.1,0.27,0.11,0.59,0.05,0.96c-0.12,0.59-0.39,1.04-0.8,1.35
									c-0.41,0.31-0.9,0.56-1.46,0.74c-0.4,0.13-0.83,0.22-1.28,0.27c-0.45,0.05-0.9,0.07-1.34,0.05
									c-0.44-0.02-0.87-0.07-1.28-0.15c-0.41-0.08-0.78-0.18-1.1-0.3c-0.19-0.08-0.31-0.21-0.36-0.38
									c-0.05-0.18-0.06-0.38-0.01-0.6c0.05-0.22,0.14-0.44,0.27-0.68s0.29-0.44,0.47-0.61s0.39-0.29,0.6-0.37
									c0.22-0.08,0.44-0.08,0.65,0c0.15,0.05,0.34,0.13,0.55,0.21c0.21,0.09,0.43,0.18,0.66,0.27c0.23,0.09,0.46,0.17,0.69,0.24
									s0.44,0.1,0.63,0.11c0.19,0.01,0.34-0.02,0.45-0.08c0.11-0.07,0.17-0.19,0.17-0.38c0-0.15-0.1-0.27-0.29-0.37
									s-0.44-0.17-0.72-0.22c-0.25-0.05-0.53-0.1-0.83-0.14c-0.3-0.04-0.6-0.09-0.9-0.15c-0.3-0.06-0.59-0.14-0.87-0.24
									c-0.28-0.1-0.52-0.23-0.74-0.4c-0.21-0.17-0.38-0.38-0.5-0.64c-0.12-0.26-0.17-0.58-0.15-0.96c0.01-0.28,0.08-0.55,0.2-0.8
									c0.13-0.25,0.29-0.48,0.5-0.7s0.45-0.4,0.73-0.56c0.28-0.16,0.57-0.3,0.89-0.42c0.39-0.15,0.8-0.26,1.23-0.34
									c0.43-0.07,0.86-0.1,1.28-0.08c0.43,0.02,0.83,0.08,1.23,0.18C247.63,141.62,247.98,141.78,248.29,141.99z"/>
								<path class="st7" d="M250.31,143.38c0-0.19,0.03-0.38,0.08-0.58c0.05-0.2,0.13-0.39,0.24-0.57s0.23-0.35,0.37-0.5
									c0.14-0.15,0.3-0.27,0.47-0.34c0.29-0.15,0.56-0.16,0.81-0.03s0.37,0.37,0.37,0.72v5.87c0,0.19-0.03,0.38-0.08,0.57
									c-0.05,0.2-0.13,0.38-0.24,0.56s-0.22,0.34-0.36,0.49c-0.14,0.15-0.29,0.26-0.45,0.33c-0.32,0.15-0.6,0.17-0.84,0.05
									c-0.25-0.12-0.37-0.35-0.37-0.7V143.38z M251.07,140.87c-0.24,0-0.41-0.08-0.51-0.23s-0.14-0.34-0.12-0.57
									c0.02-0.23,0.08-0.48,0.18-0.75c0.1-0.27,0.24-0.52,0.41-0.75c0.17-0.23,0.36-0.42,0.57-0.57c0.21-0.15,0.43-0.23,0.65-0.23
									c0.25,0,0.43,0.08,0.52,0.23s0.14,0.34,0.13,0.57s-0.07,0.48-0.18,0.75c-0.11,0.27-0.25,0.52-0.42,0.75
									c-0.17,0.23-0.36,0.42-0.57,0.57C251.52,140.8,251.29,140.87,251.07,140.87z"/>
								<path class="st7" d="M260.34,147.43c0.17,0,0.29,0.07,0.35,0.2c0.06,0.13,0.07,0.29,0.04,0.48c-0.03,0.19-0.1,0.4-0.2,0.63
									c-0.1,0.23-0.23,0.44-0.37,0.63s-0.29,0.35-0.46,0.48s-0.32,0.2-0.47,0.2c-0.56,0-1.03-0.1-1.43-0.29s-0.73-0.47-0.98-0.81
									c-0.26-0.34-0.44-0.75-0.56-1.22c-0.12-0.47-0.19-0.97-0.2-1.5c-0.01-0.53-0.01-1.07,0.01-1.6c0.02-0.53,0.04-1.07,0.06-1.6
									c-0.21,0.01-0.41,0.02-0.61,0.02c-0.2,0-0.41-0.01-0.63-0.03c-0.2-0.02-0.31-0.12-0.33-0.29c-0.02-0.17,0.01-0.37,0.09-0.57
									c0.08-0.21,0.2-0.39,0.36-0.56c0.16-0.16,0.32-0.23,0.5-0.21c0.12,0.01,0.24,0.02,0.36,0.02c0.12,0.01,0.24,0.01,0.36,0.01
									v-0.11l0.02-0.2c0-0.4,0.09-0.81,0.28-1.22c0.19-0.41,0.47-0.71,0.85-0.89c0.14-0.07,0.28-0.1,0.42-0.11
									s0.27,0.02,0.38,0.07c0.11,0.05,0.21,0.14,0.28,0.26c0.07,0.12,0.1,0.27,0.09,0.46c-0.01,0.24-0.02,0.48-0.02,0.72
									c-0.01,0.24-0.01,0.48-0.02,0.72c0.19-0.05,0.37-0.12,0.56-0.2c0.19-0.08,0.37-0.16,0.56-0.26
									c0.23-0.12,0.39-0.13,0.47-0.02c0.09,0.11,0.12,0.26,0.11,0.46c-0.02,0.2-0.08,0.4-0.18,0.61s-0.23,0.35-0.38,0.42
									c-0.39,0.2-0.79,0.36-1.18,0.49c-0.01,0.23-0.02,0.46-0.02,0.69s-0.01,0.45-0.02,0.67c-0.01,0.34,0,0.71,0.02,1.12
									s0.11,0.79,0.24,1.13c0.13,0.34,0.33,0.63,0.59,0.87S259.88,147.43,260.34,147.43z"/>
								<path class="st7" d="M268.4,141.56c0.48,0.21,0.83,0.47,1.05,0.78s0.33,0.64,0.32,0.98c-0.01,0.34-0.13,0.69-0.37,1.03
									c-0.23,0.34-0.57,0.65-1.01,0.91c-0.51,0.32-1.05,0.58-1.62,0.79s-1.16,0.38-1.78,0.52c0.16,0.22,0.35,0.4,0.56,0.54
									c0.21,0.14,0.44,0.24,0.68,0.29c0.41,0.09,0.83,0.11,1.26,0.06c0.43-0.05,0.81-0.16,1.14-0.33c0.28-0.14,0.51-0.2,0.67-0.16
									c0.16,0.03,0.28,0.12,0.34,0.26c0.07,0.14,0.09,0.32,0.07,0.54c-0.02,0.22-0.08,0.44-0.17,0.65s-0.21,0.42-0.36,0.62
									c-0.15,0.2-0.31,0.34-0.5,0.43c-0.39,0.2-0.8,0.34-1.21,0.44c-0.41,0.1-0.83,0.15-1.24,0.16c-0.57,0.01-1.11-0.07-1.63-0.24
									c-0.52-0.17-0.97-0.43-1.35-0.78c-0.38-0.35-0.68-0.79-0.88-1.31c-0.21-0.52-0.28-1.13-0.23-1.82
									c0.04-0.61,0.18-1.19,0.42-1.72c0.23-0.54,0.54-1.02,0.91-1.43c0.37-0.41,0.79-0.75,1.27-1.01c0.47-0.26,0.97-0.43,1.5-0.49
									c0.35-0.04,0.71-0.04,1.07,0C267.68,141.31,268.04,141.41,268.4,141.56z M264.44,145c0.27,0,0.58-0.01,0.92-0.03
									c0.34-0.02,0.68-0.05,1.01-0.1s0.64-0.1,0.92-0.16s0.48-0.15,0.61-0.25c0.09-0.05,0.08-0.13-0.02-0.21
									c-0.1-0.09-0.26-0.17-0.46-0.25s-0.43-0.16-0.7-0.22c-0.26-0.07-0.52-0.1-0.77-0.1c-0.41-0.01-0.77,0.1-1.05,0.32
									C264.62,144.21,264.47,144.55,264.44,145z"/>
							</g>
							<path class="st16" d="M319.73,198.63H200.69c-1.46,0-2.65-1.19-2.65-2.65v-36.75c0-1.46,1.19-2.65,2.65-2.65h119.04
								c1.46,0,2.65,1.19,2.65,2.65v36.75C322.38,197.45,321.19,198.63,319.73,198.63z"/>
							<g>
								<polygon class="st15" points="311.77,172.77 311.77,184.67 317.72,178.72 								"/>
								<polygon class="st15" points="202.7,178.72 208.65,184.67 208.65,172.77 								"/>
							</g>
							<g>
								<rect x="230.58" y="202.07" class="st16" width="91.8" height="2.19"/>
								<rect x="230.58" y="206.49" class="st16" width="91.8" height="2.19"/>
								<rect x="230.58" y="210.91" class="st16" width="62.23" height="2.19"/>
							</g>
							<g>
								<rect x="197.82" y="202.07" class="st16" width="27.47" height="2.19"/>
								<rect x="197.82" y="206.57" class="st16" width="27.47" height="2.19"/>
								<rect x="197.82" y="211.07" class="st16" width="27.47" height="2.19"/>
								<rect x="197.82" y="215.57" class="st16" width="17.27" height="2.19"/>
							</g>
							<g>
								<rect x="197.82" y="269.43" class="st16" width="60.49" height="2.19"/>
								<rect x="197.82" y="273.93" class="st16" width="60.49" height="2.19"/>
								<rect x="197.82" y="278.43" class="st16" width="60.49" height="2.19"/>
								<rect x="197.82" y="282.93" class="st16" width="38.02" height="2.19"/>
							</g>
							<g>
								<rect x="262.27" y="269.43" class="st16" width="60.49" height="2.19"/>
								<rect x="262.27" y="273.93" class="st16" width="59.68" height="2.19"/>
								<rect x="262.27" y="278.43" class="st16" width="30.26" height="2.19"/>
							</g>
							<path class="st16" d="M223.64,259.97H199.5c-0.98,0-1.77-0.79-1.77-1.77v-31.28c0-0.98,0.79-1.77,1.77-1.77h24.14
								c0.98,0,1.77,0.79,1.77,1.77v31.28C225.41,259.18,224.62,259.97,223.64,259.97z"/>
							<path class="st16" d="M256.01,259.97h-24.14c-0.98,0-1.77-0.79-1.77-1.77v-31.28c0-0.98,0.79-1.77,1.77-1.77h24.14
								c0.98,0,1.77,0.79,1.77,1.77v31.28C257.77,259.18,256.98,259.97,256.01,259.97z"/>
							<path class="st16" d="M288.37,259.97h-24.14c-0.98,0-1.77-0.79-1.77-1.77v-31.28c0-0.98,0.79-1.77,1.77-1.77h24.14
								c0.98,0,1.77,0.79,1.77,1.77v31.28C290.14,259.18,289.35,259.97,288.37,259.97z"/>
							<path class="st16" d="M320.74,259.97H296.6c-0.98,0-1.77-0.79-1.77-1.77v-31.28c0-0.98,0.79-1.77,1.77-1.77h24.14
								c0.98,0,1.77,0.79,1.77,1.77v31.28C322.51,259.18,321.71,259.97,320.74,259.97z"/>
							<g>
								<rect x="205.76" y="251.3" class="st10" width="16.68" height="2.16"/>
								<rect x="205.76" y="255" class="st10" width="11.27" height="2.16"/>
							</g>
							<g>
								<rect x="237.8" y="251.3" class="st10" width="16.68" height="2.16"/>
								<rect x="237.8" y="255" class="st10" width="11.27" height="2.16"/>
							</g>
							<g>
								<rect x="269.84" y="251.3" class="st10" width="16.68" height="2.16"/>
								<rect x="269.84" y="255" class="st10" width="11.27" height="2.16"/>
							</g>
							<g>
								<rect x="301.89" y="251.3" class="st10" width="16.68" height="2.16"/>
								<rect x="301.89" y="255" class="st10" width="11.27" height="2.16"/>
							</g>
							<path class="st14" d="M329.91,289.88v6.39c0,3.86-3.13,6.99-6.99,6.99H197.49c-3.86,0-6.99-3.13-6.99-6.99v-6.39H329.91z"/>
							<g>
								<rect x="238.85" y="292.83" class="st15" width="43.13" height="2.35"/>
								<rect x="250.28" y="297.28" class="st15" width="20.26" height="2.35"/>
							</g>
						</g>
					</g>
				</g>
			</g>
			<g id="Artwork_6_1_">
				<g>
					<g>
						<path class="st17" d="M176.78,302.56h-36.35v-61.85h27.02c3.64,3.64,5.68,5.68,9.32,9.32V302.56z"/>
						<g>
							<rect x="145.63" y="248.73" class="st7" width="26" height="1.78"/>
							<rect x="145.63" y="253.15" class="st7" width="26" height="1.78"/>
							<rect x="145.63" y="257.57" class="st7" width="26" height="1.78"/>
							<rect x="145.63" y="261.99" class="st7" width="26" height="1.78"/>
							<rect x="145.63" y="266.41" class="st7" width="26" height="1.78"/>
							<rect x="145.63" y="270.83" class="st7" width="15.3" height="1.78"/>
						</g>
						<g>
							<rect x="145.63" y="279.73" class="st7" width="26" height="1.78"/>
							<rect x="145.63" y="284.15" class="st7" width="26" height="1.78"/>
							<rect x="145.63" y="288.57" class="st7" width="26" height="1.78"/>
							<rect x="145.63" y="292.99" class="st7" width="15.3" height="1.78"/>
						</g>
						<path class="st9" d="M176.78,250.04h-9.32v-9.32l0,0C171.1,244.35,173.14,246.4,176.78,250.04L176.78,250.04z"/>
					</g>
					<g>
						<path class="st2" d="M165.07,313.26h-36.35v-61.85h27.02c3.64,3.64,5.68,5.68,9.32,9.32V313.26z"/>
						<g>
							<rect x="133.92" y="259.43" class="st7" width="26" height="1.78"/>
							<rect x="133.92" y="263.85" class="st7" width="26" height="1.78"/>
							<rect x="133.92" y="268.27" class="st7" width="26" height="1.78"/>
							<rect x="133.92" y="272.69" class="st7" width="26" height="1.78"/>
							<rect x="133.92" y="277.12" class="st7" width="26" height="1.78"/>
							<rect x="133.92" y="281.54" class="st7" width="15.3" height="1.78"/>
						</g>
						<g>
							<rect x="133.92" y="290.43" class="st7" width="26" height="1.78"/>
							<rect x="133.92" y="294.85" class="st7" width="26" height="1.78"/>
							<rect x="133.92" y="299.28" class="st7" width="26" height="1.78"/>
							<rect x="133.92" y="303.7" class="st7" width="15.3" height="1.78"/>
						</g>
						<path class="st18" d="M165.07,260.74h-9.32v-9.32l0,0C159.39,255.06,161.43,257.1,165.07,260.74L165.07,260.74z"/>
					</g>
				</g>
			</g>
			<g>
				<path class="st2" d="M121.71,225.83c0,5.49-1.89,10.53-5.06,14.52c-4.28,5.39-10.89,8.84-18.3,8.84
					c-7.41,0-14.02-3.45-18.3-8.84c-0.12-0.16-0.25-0.32-0.36-0.48c-2.95-3.91-4.7-8.77-4.7-14.04c0-12.9,10.46-23.36,23.36-23.36
					c8.61,0,16.12,4.65,20.18,11.57C120.56,217.5,121.71,221.52,121.71,225.83z"/>
				<path class="st6" d="M115.98,239.26c-4.13,5.19-10.49,8.51-17.63,8.51c-7.14,0-13.5-3.32-17.63-8.51
					c1.66-7.09,7.48-12.57,14.75-13.73c-2.79-1.14-4.77-3.88-4.77-7.08c0-4.22,3.42-7.65,7.65-7.65c4.22,0,7.65,3.43,7.65,7.65
					c0,3.2-1.97,5.94-4.76,7.08C108.5,226.7,114.32,232.18,115.98,239.26z"/>
			</g>
			<g>
				<path class="st6" d="M433.72,91.64c0,10.54-3.64,20.22-9.71,27.87c-8.22,10.34-20.9,16.96-35.13,16.96
					c-14.22,0-26.9-6.62-35.12-16.96c-0.24-0.3-0.47-0.61-0.7-0.92c-5.65-7.5-9.01-16.83-9.01-26.95
					c0-24.77,20.07-44.84,44.83-44.84c16.52,0,30.95,8.93,38.72,22.22C431.49,75.66,433.72,83.38,433.72,91.64z"/>
				<path class="st2" d="M424,119.51c-8.22,10.34-20.9,16.96-35.13,16.96c-14.22,0-26.9-6.62-35.12-16.96
					c3.31-14.12,14.91-25.04,29.38-27.35c-5.56-2.27-9.5-7.72-9.5-14.11c0-8.4,6.82-15.23,15.23-15.23
					c8.41,0,15.23,6.83,15.23,15.23c0,6.39-3.92,11.84-9.49,14.11C409.09,94.48,420.7,105.39,424,119.51z"/>
			</g>
			<g>
				<path class="st2" d="M422.17,296.6h-67.38c-5.67,0-10.26-4.59-10.26-10.26v-34.22c0-5.67,4.59-10.26,10.26-10.26h67.38
					c5.67,0,10.26,4.59,10.26,10.26v34.22C432.43,292,427.84,296.6,422.17,296.6z"/>
				<polygon class="st9" points="377.7,255.24 377.7,283.7 405.39,269.55 				"/>
			</g>
			<g>
				<path class="st19" d="M211.05,74.96c-0.63-0.63-0.63-1.66,0-2.29c8.06-8.06,8.06-21.18,0-29.24c-0.63-0.63-0.63-1.66,0-2.29
					c0.63-0.63,1.66-0.63,2.29,0c9.33,9.33,9.33,24.5,0,33.83C212.71,75.6,211.68,75.6,211.05,74.96z"/>
				<path class="st19" d="M206.29,70.21c-0.63-0.63-0.63-1.66,0-2.29c5.44-5.44,5.44-14.3,0-19.74c-0.63-0.63-0.63-1.66,0-2.29
					s1.66-0.63,2.29,0c6.71,6.71,6.71,17.62,0,24.33C207.96,70.84,206.93,70.84,206.29,70.21z"/>
				<path class="st19" d="M201.64,65.55c-0.63-0.63-0.63-1.66,0-2.29c2.87-2.87,2.87-7.55,0-10.42c-0.63-0.63-0.63-1.66,0-2.29
					c0.63-0.63,1.66-0.63,2.29,0c4.14,4.14,4.14,10.87,0,15.01C203.3,66.19,202.27,66.19,201.64,65.55z"/>
				<circle class="st19" cx="196.42" cy="58.05" r="3.75"/>
			</g>
			<g>
				<g id="Artwork_4_3_">
					<g>
						<path class="st20" d="M152.97,188.17H96.08c-2.5,0-4.52-2.02-4.52-4.52v-50.62c0-2.5,2.02-4.52,4.52-4.52h56.89
							c2.5,0,4.52,2.02,4.52,4.52v50.62C157.49,186.15,155.47,188.17,152.97,188.17z"/>
						<g>
							<circle class="st11" cx="150.37" cy="134.24" r="2.29"/>
							<circle class="st12" cx="143.57" cy="134.24" r="2.29"/>
							<circle class="st13" cx="136.77" cy="134.24" r="2.29"/>
						</g>
					</g>
				</g>
				<g>
					<g>
						<path class="st16" d="M111.76,174.45L111.76,174.45c-1.51,0-2.74-1.23-2.74-2.74v-17.59c0-1.51,1.23-2.74,2.74-2.74l0,0
							c1.51,0,2.74,1.23,2.74,2.74v17.59C114.5,173.22,113.27,174.45,111.76,174.45z"/>
						<path class="st16" d="M137.3,174.45L137.3,174.45c-1.51,0-2.74-1.23-2.74-2.74v-17.59c0-1.51,1.23-2.74,2.74-2.74l0,0
							c1.51,0,2.74,1.23,2.74,2.74v17.59C140.04,173.22,138.81,174.45,137.3,174.45z"/>
						<path class="st16" d="M128.78,174.45L128.78,174.45c-1.51,0-2.74-1.23-2.74-2.74V159.4c0-1.51,1.23-2.74,2.74-2.74l0,0
							c1.51,0,2.74,1.23,2.74,2.74v12.31C131.53,173.22,130.29,174.45,128.78,174.45z"/>
						<path class="st16" d="M120.27,174.45L120.27,174.45c-1.51,0-2.74-1.23-2.74-2.74v-26.74c0-1.51,1.23-2.74,2.74-2.74l0,0
							c1.51,0,2.74,1.23,2.74,2.74v26.74C123.01,173.22,121.78,174.45,120.27,174.45z"/>
					</g>
					<path class="st16" d="M141.48,178.89h-33.91c-0.44,0-0.81-0.36-0.81-0.81l0,0c0-0.45,0.36-0.81,0.81-0.81h33.91
						c0.45,0,0.81,0.36,0.81,0.81l0,0C142.29,178.52,141.93,178.89,141.48,178.89z"/>
				</g>
			</g>
			<g id="cloud_6_">
				<path class="st2" d="M299.13,59.81c-0.66,0-1.29,0.12-1.88,0.33c-0.61-3.02-2.7-5.5-5.49-6.65c0.11-0.85,0.17-1.7,0.17-2.58
					c0-11.14-9.03-20.18-20.18-20.18c-10.09,0-18.44,7.4-19.94,17.07c-0.83-0.18-1.68-0.28-2.56-0.28
					c-6.51,0-11.79,5.28-11.79,11.79c0,6.51,5.28,11.79,11.79,11.79h49.88c3.12,0,5.64-2.53,5.64-5.64
					C304.77,62.34,302.24,59.81,299.13,59.81z"/>
			</g>
			<g id="Text_1_">
				<g>
					<rect x="259.94" y="79.89" class="st19" width="8.71" height="1.94"/>
					<rect x="269.42" y="79.89" class="st19" width="6.7" height="1.94"/>
					<rect x="276.84" y="79.89" class="st19" width="5.32" height="1.94"/>
					<rect x="264.24" y="84.38" class="st19" width="17.93" height="1.94"/>
					<rect x="259.94" y="84.38" class="st19" width="3.29" height="1.94"/>
					<rect x="269.82" y="88.88" class="st19" width="8.48" height="1.94"/>
					<rect x="279.11" y="88.88" class="st19" width="3.06" height="1.94"/>
					<rect x="259.94" y="88.88" class="st19" width="9.11" height="1.94"/>
					<rect x="266.33" y="93.38" class="st19" width="7.39" height="1.94"/>
					<rect x="259.94" y="93.38" class="st19" width="5.56" height="1.94"/>
				</g>
			</g>
			<g id="Text_2_">
				<g>
					<rect x="28.18" y="159.47" class="st2" width="17.18" height="3.84"/>
					<rect x="46.89" y="159.47" class="st2" width="13.23" height="3.84"/>
					<rect x="61.53" y="159.47" class="st2" width="10.5" height="3.84"/>
					<rect x="36.66" y="168.35" class="st2" width="35.37" height="3.84"/>
					<rect x="28.18" y="168.35" class="st2" width="6.5" height="3.84"/>
					<rect x="47.68" y="177.22" class="st2" width="16.73" height="3.84"/>
					<rect x="65.99" y="177.22" class="st2" width="6.04" height="3.84"/>
					<rect x="28.18" y="177.22" class="st2" width="17.97" height="3.84"/>
					<rect x="40.78" y="186.1" class="st2" width="14.57" height="3.84"/>
					<rect x="28.18" y="186.1" class="st2" width="10.96" height="3.84"/>
				</g>
			</g>
			<g>
				<g id="Artwork_4_4_">
					<g>
						<path class="st20" d="M451.71,222.08h-75.07c-2.5,0-4.52-2.02-4.52-4.52v-50.62c0-2.5,2.02-4.52,4.52-4.52h75.07
							c2.5,0,4.52,2.02,4.52,4.52v50.62C456.23,220.06,454.21,222.08,451.71,222.08z"/>
						<g>
							<circle class="st11" cx="449.11" cy="168.15" r="2.29"/>
							<circle class="st12" cx="442.31" cy="168.15" r="2.29"/>
							<circle class="st13" cx="435.51" cy="168.15" r="2.29"/>
						</g>
					</g>
				</g>
				<g>
					<polygon class="st21" points="383.31,207.82 382.62,207.12 397.57,192.17 406.7,201.3 426.52,181.48 436.11,191.06 
						443.39,183.78 444.08,184.48 436.11,192.46 426.52,182.87 406.7,202.69 397.57,193.56 					"/>
					<circle class="st21" cx="382.95" cy="207.45" r="3.16"/>
					<circle class="st21" cx="397.7" cy="193.18" r="3.16"/>
					<circle class="st21" cx="406.76" cy="201.92" r="3.16"/>
					<circle class="st21" cx="426.51" cy="182.33" r="3.16"/>
					<circle class="st21" cx="436.1" cy="191.6" r="3.16"/>
					<circle class="st21" cx="443.69" cy="184.01" r="3.16"/>
				</g>
			</g>
			<g>
				<path class="st7" d="M94.09,71.03c-0.52,0-1.03-0.17-1.47-0.69c-2.11-2.5-5.09-4.1-7.67-4.1c-3.79,0-5.17,3.19-5.17,6.64
					c-0.04,5.69,3.62,10.43,9.44,10.43c2.5,0,5.17-0.99,7.41-3.15c0.56-0.56,1.34-0.86,2.07-0.86c0.73,0,1.42,0.39,1.77,1.34
					c0.65,1.9-0.78,4.22-2.16,5.47c-3.71,3.49-7.8,5.09-11.64,5.09c-1.03,0-2.03-0.13-3.02-0.35c-6.16-1.46-10.73-7.46-9.96-16.55
					c0.52-5.95,3.06-10.56,6.51-13.28c2.16-1.72,4.7-2.63,7.33-2.63c3.53,0,7.24,1.68,10.43,5.43
					C99.78,65.9,96.64,71.03,94.09,71.03z"/>
				<path class="st7" d="M106.16,66.98c-0.13-0.04-0.22-0.09-0.34-0.09c-3.88-0.65-0.34-8.45,2.93-7.89
					c5.09,0.82,11.81,11.08,14.57,18.45c2.93-4.91,5.69-11.38,8.36-15.69c0.26-0.47,0.56-0.91,0.91-1.29
					c0.56-0.73,1.38-1.38,2.24-1.42c1.25-0.22,2.33,0.52,2.33,2.07v24.74c0,2.16-1.77,5.56-4.27,5.56c-1.03,0-1.9-0.78-1.9-2.16
					V73.53c-2.37,4.61-4.83,9.53-7.37,12.54c-0.09,0.09-0.17,0.17-0.26,0.26c-0.69,0.99-1.81,1.94-3.06,1.94
					c-1.08,0-1.85-0.78-1.9-2.2c-0.17-4.57-2.63-10.78-6.08-14.87v14.66c0,2.2-1.77,5.56-4.27,5.56c-1.03,0-1.9-0.78-1.9-2.16V66.98
					z"/>
				<path class="st7" d="M161.86,70.78c-0.52,0-1.03-0.22-1.47-0.73c-1.16-1.34-5.91-4.14-8.97-4.14c-1.29,0-2.28,0.52-2.5,1.9
					c-0.43,2.59,4.57,4.27,9.22,5.91c4.61,1.64,8.97,3.19,7.33,8.97c-1.72,5.91-7.93,8.97-14.05,8.41c-3.36-0.3-6.72-1.68-9.31-4.22
					c-1.94-1.94,1.08-7.11,3.79-7.11c0.52,0,1.03,0.17,1.51,0.65c1.9,1.9,5.69,3.49,8.32,3.49c1.03,0,1.9-0.26,2.41-0.86
					c2.97-3.45-5.47-5.91-6.85-6.29c-5.56-1.55-10.04-3.58-8.02-10.13c1.38-4.53,5.26-6.72,9.23-7.63c0.69-0.17,1.42-0.21,2.16-0.21
					c4.05,0,8.75,2.11,11.08,4.78C167.55,65.65,164.45,70.78,161.86,70.78z"/>
			</g>
			<g id="gear_13_">
				<path class="st2" d="M386.87,164.37L386.87,164.37c-1.21-0.38-1.38-2.02-0.28-2.64v0c1.37-0.78,0.69-2.88-0.88-2.7
					c-1.26,0.14-2.08-1.28-1.33-2.3c0.94-1.27-0.54-2.91-1.9-2.11l0,0c-1.09,0.64-2.42-0.33-2.15-1.56l0,0
					c0.34-1.54-1.68-2.44-2.59-1.16l0,0c-0.74,1.03-2.35,0.69-2.6-0.55l0,0c-0.31-1.55-2.53-1.55-2.84,0l0,0
					c-0.25,1.24-1.86,1.58-2.6,0.55l0,0c-0.92-1.29-2.94-0.39-2.59,1.16l0,0c0.27,1.24-1.06,2.21-2.15,1.56
					c-1.36-0.8-2.84,0.84-1.9,2.11l0,0c0.75,1.02-0.07,2.45-1.33,2.3l0,0c-1.57-0.18-2.25,1.92-0.88,2.7v0
					c1.1,0.62,0.93,2.26-0.28,2.64l0,0c-1.51,0.47-1.27,2.67,0.3,2.82l0,0c1.26,0.12,1.77,1.69,0.82,2.53
					c-1.18,1.05-0.08,2.96,1.42,2.46l0,0c1.2-0.4,2.3,0.82,1.78,1.98l0,0c-0.65,1.44,1.13,2.74,2.3,1.67l0,0
					c0.93-0.86,2.44-0.19,2.43,1.08l0,0c-0.01,1.58,2.15,2.04,2.78,0.59c0.51-1.16,2.15-1.16,2.66,0c0.63,1.45,2.79,0.99,2.78-0.59
					l0,0c-0.01-1.27,1.49-1.94,2.43-1.08l0,0c1.16,1.07,2.95-0.23,2.3-1.67l0,0c-0.53-1.15,0.58-2.38,1.78-1.98l0,0
					c1.5,0.5,2.6-1.41,1.42-2.46l0,0c-0.95-0.84-0.44-2.41,0.82-2.53l0,0C388.15,167.04,388.38,164.84,386.87,164.37z
					 M373.72,172.54c-4.56,0-8.26-3.7-8.26-8.26c0-4.56,3.7-8.26,8.26-8.26c4.56,0,8.26,3.7,8.26,8.26
					C381.99,168.84,378.29,172.54,373.72,172.54z"/>
			</g>
			<g>
				<g>
					<line class="st22" x1="97.74" y1="98.19" x2="97.74" y2="122.46"/>
					<g>
						<path class="st17" d="M96.31,98.26c0-0.79,0.64-1.43,1.43-1.43s1.43,0.64,1.43,1.43c0,0.79-0.64,1.43-1.43,1.43
							S96.31,99.05,96.31,98.26z"/>
					</g>
					<g>
						<path class="st17" d="M96.31,122.39c0,0.79,0.64,1.43,1.43,1.43s1.43-0.64,1.43-1.43c0-0.79-0.64-1.43-1.43-1.43
							S96.31,121.6,96.31,122.39z"/>
					</g>
				</g>
			</g>
			<g>
				<g>
					<polyline class="st22" points="158.89,77.15 186.86,77.15 231.34,121.62 					"/>
					<g>
						<path class="st17" d="M158.96,78.58c-0.79,0-1.43-0.64-1.43-1.43c0-0.79,0.64-1.43,1.43-1.43c0.79,0,1.43,0.64,1.43,1.43
							C160.39,77.94,159.75,78.58,158.96,78.58z"/>
					</g>
					<g>
						<path class="st17" d="M230.28,122.58c0.56,0.56,1.46,0.56,2.02,0c0.56-0.56,0.56-1.46,0-2.02c-0.56-0.56-1.46-0.56-2.02,0
							C229.72,121.12,229.72,122.02,230.28,122.58z"/>
					</g>
				</g>
			</g>
			<g>
				<g>
					<polyline class="st22" points="278.05,258.58 299.1,279.64 343.05,279.64 					"/>
					<g>
						<path class="st17" d="M277.09,259.64c-0.56-0.56-0.56-1.46,0-2.02c0.56-0.56,1.46-0.56,2.02,0c0.56,0.56,0.56,1.46,0,2.02
							C278.55,260.2,277.65,260.2,277.09,259.64z"/>
					</g>
					<g>
						<path class="st17" d="M342.98,281.06c0.79,0,1.43-0.64,1.43-1.43c0-0.79-0.64-1.43-1.43-1.43c-0.79,0-1.43,0.64-1.43,1.43
							C341.55,280.42,342.19,281.06,342.98,281.06z"/>
					</g>
				</g>
			</g>
			<g>
				<g>
					<polyline class="st22" points="96.7,252.19 96.7,274 110.6,287.89 125.57,287.89 					"/>
					<g>
						<path class="st17" d="M95.28,252.26c0-0.79,0.64-1.43,1.43-1.43c0.79,0,1.43,0.64,1.43,1.43c0,0.79-0.64,1.43-1.43,1.43
							C95.92,253.69,95.28,253.05,95.28,252.26z"/>
					</g>
					<g>
						<path class="st17" d="M125.5,289.32c0.79,0,1.43-0.64,1.43-1.43c0-0.79-0.64-1.43-1.43-1.43c-0.79,0-1.43,0.64-1.43,1.43
							C124.07,288.68,124.71,289.32,125.5,289.32z"/>
					</g>
				</g>
			</g>
			<g>
				<g>
					<path class="st22" d="M422.97,126.99l11.07,11.07c0.79,0.79,1.23,1.85,1.23,2.96v17.15"/>
					<g>
						<path class="st17" d="M422.01,128.05c-0.56-0.56-0.56-1.46,0-2.02c0.56-0.56,1.46-0.56,2.02,0c0.56,0.56,0.56,1.46,0,2.02
							C423.47,128.61,422.57,128.61,422.01,128.05z"/>
					</g>
					<g>
						<path class="st17" d="M433.83,158.09c0,0.79,0.64,1.43,1.43,1.43c0.79,0,1.43-0.64,1.43-1.43c0-0.79-0.64-1.43-1.43-1.43
							C434.47,156.66,433.83,157.3,433.83,158.09z"/>
					</g>
				</g>
			</g>
			<g>
				<g>
					<g id="Text_3_">
						<g>
							<rect x="302.06" y="326.45" class="st19" width="14.63" height="3.27"/>
							<rect x="317.98" y="326.45" class="st19" width="11.26" height="3.27"/>
							<rect x="330.44" y="326.45" class="st19" width="8.94" height="3.27"/>
							<rect x="309.27" y="334.01" class="st19" width="30.11" height="3.27"/>
							<rect x="302.06" y="334.01" class="st19" width="5.53" height="3.27"/>
							<rect x="318.66" y="341.56" class="st19" width="14.24" height="3.27"/>
							<rect x="334.25" y="341.56" class="st19" width="5.14" height="3.27"/>
							<rect x="302.06" y="341.56" class="st19" width="15.3" height="3.27"/>
							<rect x="312.79" y="349.12" class="st19" width="12.4" height="3.27"/>
							<rect x="302.06" y="349.12" class="st19" width="9.33" height="3.27"/>
						</g>
					</g>
					<g id="Text_4_">
						<g>
							<rect x="257.04" y="326.45" class="st19" width="14.63" height="3.27"/>
							<rect x="272.96" y="326.45" class="st19" width="11.26" height="3.27"/>
							<rect x="285.43" y="326.45" class="st19" width="8.94" height="3.27"/>
							<rect x="264.26" y="334.01" class="st19" width="30.11" height="3.27"/>
							<rect x="257.04" y="334.01" class="st19" width="5.53" height="3.27"/>
							<rect x="273.64" y="341.56" class="st19" width="14.24" height="3.27"/>
							<rect x="289.23" y="341.56" class="st19" width="5.14" height="3.27"/>
							<rect x="257.04" y="341.56" class="st19" width="15.3" height="3.27"/>
							<rect x="267.77" y="349.12" class="st19" width="12.4" height="3.27"/>
							<rect x="257.04" y="349.12" class="st19" width="9.33" height="3.27"/>
						</g>
					</g>
				</g>
				<g id="transform_2_">
					<g>
						<rect x="247.58" y="316.26" class="st23" width="101.27" height="46.31"/>
						<g>
							<g>
								<rect x="246.26" y="314.95" class="st17" width="2.63" height="2.63"/>
								<rect x="296.51" y="314.95" class="st17" width="2.63" height="2.63"/>
								<rect x="347.53" y="314.95" class="st17" width="2.63" height="2.63"/>
							</g>
							<g>
								<rect x="246.26" y="338.1" class="st17" width="2.63" height="2.63"/>
								<rect x="347.53" y="338.1" class="st17" width="2.63" height="2.63"/>
							</g>
							<g>
								<rect x="246.26" y="361.26" class="st17" width="2.63" height="2.63"/>
								<rect x="296.51" y="361.26" class="st17" width="2.63" height="2.63"/>
								<rect x="347.53" y="361.26" class="st17" width="2.63" height="2.63"/>
							</g>
						</g>
					</g>
				</g>
			</g>
		</g>
		<g id="_x30__31_">
			<path class="st17" d="M333.64,56.88h-1.12c-0.62,0-1.12-0.5-1.12-1.12v-1.12c0-0.55-0.37-1.05-0.9-1.16
				c-0.72-0.14-1.36,0.41-1.36,1.11v1.17c0,0.62-0.5,1.12-1.12,1.12h-1.12c-0.55,0-1.05,0.37-1.16,0.9
				c-0.14,0.72,0.41,1.36,1.11,1.36h1.17c0.62,0,1.12,0.5,1.12,1.12v1.12c0,0.55,0.37,1.05,0.9,1.16c0.72,0.14,1.36-0.41,1.36-1.11
				v-1.17c0-0.62,0.5-1.12,1.12-1.12h1.17c0.7,0,1.25-0.64,1.11-1.36C334.69,57.25,334.18,56.88,333.64,56.88z"/>
		</g>
		<g id="_x30__32_">
			<path class="st2" d="M209.37,324.9h-1.93c-1.07,0-1.93-0.87-1.93-1.93v-1.93c0-0.94-0.63-1.81-1.55-1.99
				c-1.24-0.25-2.34,0.71-2.34,1.91v2.01c0,1.07-0.87,1.93-1.93,1.93h-1.93c-0.94,0-1.81,0.63-1.99,1.55
				c-0.25,1.24,0.71,2.34,1.91,2.34h2.01c1.07,0,1.93,0.87,1.93,1.93v1.93c0,0.94,0.63,1.81,1.55,1.99
				c1.24,0.25,2.34-0.71,2.34-1.91v-2.01c0-1.07,0.87-1.93,1.93-1.93h2.01c1.2,0,2.15-1.1,1.91-2.34
				C211.18,325.53,210.31,324.9,209.37,324.9z"/>
		</g>
		<g id="_x30__33_">
			<path class="st17" d="M451.36,237.83h-1.24c-0.69,0-1.25-0.56-1.25-1.25v-1.24c0-0.61-0.41-1.17-1-1.29
				c-0.8-0.16-1.51,0.46-1.51,1.23v1.3c0,0.69-0.56,1.25-1.25,1.25h-1.24c-0.61,0-1.17,0.41-1.29,1c-0.16,0.8,0.46,1.51,1.23,1.51
				h1.3c0.69,0,1.25,0.56,1.25,1.25v1.24c0,0.61,0.41,1.17,1,1.29c0.8,0.16,1.51-0.46,1.51-1.23v-1.3c0-0.69,0.56-1.25,1.25-1.25
				h1.3c0.77,0,1.39-0.71,1.23-1.51C452.53,238.24,451.97,237.83,451.36,237.83z"/>
		</g>
		<circle class="st2" cx="377.56" cy="314.2" r="4.3"/>
		<circle class="st2" cx="378.82" cy="343.79" r="2.53"/>
		<circle class="st24" cx="151.21" cy="329.12" r="3.03"/>
		<circle class="st2" cx="191.17" cy="357.44" r="2.02"/>
		<path class="st24" d="M64.21,254.26c0,1.68-1.36,3.03-3.03,3.03c-1.68,0-3.03-1.36-3.03-3.03c0-1.68,1.36-3.03,3.03-3.03
			C62.85,251.23,64.21,252.58,64.21,254.26z"/>
		<circle class="st2" cx="56.63" cy="217.84" r="2.02"/>
		<circle class="st2" cx="53.59" cy="136.41" r="3.03"/>
		<circle class="st24" cx="237.45" cy="19.82" r="2.78"/>
		<circle class="st2" cx="183.84" cy="28.42" r="2.78"/>
		<circle class="st2" cx="320.91" cy="88.61" r="2.28"/>
		<path class="st2" d="M332.79,296.49c0,1.54-1.25,2.78-2.78,2.78c-1.54,0-2.78-1.25-2.78-2.78c0-1.54,1.25-2.78,2.78-2.78
			C331.55,293.71,332.79,294.96,332.79,296.49z"/>
		<path class="st2" d="M214.44,283.85c0,1.54-1.25,2.78-2.78,2.78c-1.54,0-2.78-1.25-2.78-2.78s1.25-2.78,2.78-2.78
			C213.19,281.07,214.44,282.31,214.44,283.85z"/>
		<circle class="st17" cx="92.03" cy="311.92" r="4.05"/>
	</g>
</g>
</svg>
