<?xml version="1.0" encoding="utf-8"?>
<!-- Generator: Adobe Illustrator 24.0.0, SVG Export Plug-In . SVG Version: 6.00 Build 0)  -->
<svg version="1.1" xmlns="http://www.w3.org/2000/svg" xmlns:xlink="http://www.w3.org/1999/xlink" x="0px" y="0px"
	 viewBox="0 0 500 500" style="enable-background:new 0 0 500 500;" xml:space="preserve">
<style type="text/css">
	.st0{fill:#FDF6E6;}
	.st1{fill:#FEBB09;}
	.st2{opacity:0.09;}
	.st3{fill:#4B0263;}
	.st4{opacity:0.09;fill:#4B0263;}
	.st5{opacity:0.45;fill:#FFD96E;}
	.st6{fill:none;stroke:#02A2CB;stroke-miterlimit:10;}
	.st7{fill:#1B1A1B;}
	.st8{fill:#FF0B00;}
	.st9{fill:#02A2CB;}
	.st10{fill:none;stroke:#FEBB09;stroke-miterlimit:10;}
	.st11{fill:#010305;}
	.st12{fill:none;stroke:#4B0263;stroke-width:2;stroke-miterlimit:10;}
	.st13{fill:#F60034;}
	.st14{fill:#FEB604;}
	.st15{fill:none;stroke:#4B0263;stroke-miterlimit:10;}
	.st16{opacity:0.2;fill:#FDF6E6;}
	.st17{fill:#FCB610;}
</style>
<g id="BACKGROUND">
	<rect class="st0" width="500" height="500"/>
</g>
<g id="OBJECTS">
	<g>
		<g>
			<g>
				<g>
					<g>
						<path class="st1" d="M340.05,281.22c10.12,0.36,20.15,2.46,29.6,6.1c9.45,3.64,18.3,8.81,26.1,15.26
							c4.37,3.61,8.38,7.64,11.99,12.01c0.35,0.43,1-0.14,0.65-0.56c-6.49-7.86-14.33-14.59-23.03-19.91
							c-8.7-5.31-18.26-9.24-28.2-11.51c-5.6-1.28-11.3-2.04-17.04-2.24C339.57,280.35,339.5,281.2,340.05,281.22L340.05,281.22z"/>
					</g>
					<path class="st1" d="M360.12,284.27c6.08-5.86,14.43-12.45,22.98-16.16c4.84-2.1,10.19-3.83,15.74-3.78
						c2.62,0.03,5.44,0.56,7.04,2.1c2.38,2.29,1.05,5.81-1.51,8.05c-2.78,2.43-6.68,3.94-10.57,5.22
						C383.45,283.12,371.3,283.32,360.12,284.27"/>
					<path class="st1" d="M385.78,294.94c5.56-3.56,12.96-7.32,20.08-8.85c4.03-0.87,8.39-1.37,12.63-0.48
						c2.01,0.42,4.08,1.26,5.07,2.69c1.47,2.12-0.09,4.61-2.39,5.93c-2.5,1.43-5.72,1.99-8.9,2.38
						C403.82,297.64,394.48,295.93,385.78,294.94"/>
					<path class="st1" d="M389.29,296.93c8.11,2.36,17.98,6.32,25.45,11.9c4.23,3.16,8.39,6.93,11.1,11.78
						c1.28,2.29,2.22,4.99,1.68,7.15c-0.8,3.21-4.52,3.8-7.74,2.69c-3.49-1.2-6.74-3.84-9.79-6.58
						C401.89,316.6,395.68,306.15,389.29,296.93"/>
					<path class="st1" d="M368.78,286.31c4.86,5.11,10.43,12.19,13.82,19.59c1.92,4.19,3.58,8.85,3.9,13.77
						c0.15,2.33-0.07,4.85-1.14,6.35c-1.59,2.23-4.36,1.22-6.24-0.95c-2.03-2.34-3.44-5.73-4.67-9.12
						C371.17,306.95,370.23,296.18,368.78,286.31"/>
					<path class="st1" d="M353.85,282.19c3.12,3.28,6.69,7.82,8.86,12.57c1.23,2.69,2.3,5.68,2.5,8.84c0.1,1.49-0.05,3.11-0.73,4.07
						c-1.02,1.43-2.8,0.78-4-0.61c-1.3-1.5-2.21-3.68-3-5.85C355.38,295.42,354.78,288.52,353.85,282.19"/>
				</g>
				<g class="st2">
					<g>
						<path class="st3" d="M233.62,326.22c-3.02,5.64-6.99,10.75-11.69,15.09c-4.69,4.35-10.08,7.93-15.91,10.57
							c-3.26,1.47-6.66,2.63-10.15,3.46c-0.34,0.08-0.2,0.61,0.14,0.52c6.27-1.5,12.26-4.07,17.69-7.53
							c5.43-3.46,10.31-7.79,14.37-12.8c2.28-2.82,4.3-5.85,6.01-9.04C234.25,326.19,233.78,325.91,233.62,326.22L233.62,326.22z"/>
					</g>
					<path class="st3" d="M226.31,336.75c1.63,5.08,3.05,11.65,2.78,17.53c-0.15,3.33-0.66,6.85-2.23,9.98
						c-0.75,1.48-1.83,2.93-3.15,3.41c-1.96,0.71-3.59-1.02-4.15-3.1c-0.61-2.25-0.38-4.89-0.02-7.45
						C220.48,350.31,223.74,343.36,226.31,336.75"/>
					<path class="st3" d="M213.12,348.34c0.47,4.14,0.55,9.39-0.56,13.85c-0.63,2.53-1.55,5.14-3.24,7.3
						c-0.8,1.02-1.85,1.96-2.93,2.13c-1.61,0.25-2.59-1.33-2.7-3.01c-0.12-1.82,0.46-3.8,1.12-5.71
						C206.58,357.83,210.14,353.01,213.12,348.34"/>
					<path class="st3" d="M211.02,349.78c-3.59,3.94-8.59,8.44-13.83,11.13c-2.97,1.52-6.27,2.83-9.77,3.02
						c-1.66,0.09-3.45-0.13-4.53-1.04c-1.6-1.35-0.9-3.62,0.62-5.14c1.65-1.64,4.05-2.76,6.45-3.73
						C196.36,351.46,204.01,350.84,211.02,349.78"/>
					<path class="st3" d="M222.74,341.1c-4.25,1.34-9.81,2.53-14.96,2.39c-2.91-0.08-6.02-0.43-8.9-1.62
						c-1.36-0.56-2.73-1.39-3.28-2.41c-0.82-1.52,0.52-2.81,2.27-3.28c1.89-0.5,4.21-0.36,6.47-0.11
						C210.37,336.72,216.74,339.18,222.74,341.1"/>
					<path class="st3" d="M229.24,333.78c-2.73,0.86-6.3,1.62-9.59,1.54c-1.87-0.05-3.86-0.27-5.71-1.04
						c-0.87-0.36-1.75-0.89-2.11-1.55c-0.53-0.98,0.33-1.81,1.46-2.1c1.22-0.32,2.7-0.23,4.15-0.07
						C221.3,330.97,225.39,332.55,229.24,333.78"/>
				</g>
				<g class="st2">
					<g>
						<path class="st3" d="M274.02,140.36c2.71-5.8,6.41-11.1,10.86-15.7c4.45-4.59,9.65-8.46,15.33-11.4
							c3.18-1.64,6.51-2.99,9.95-4c0.33-0.1,0.17-0.61-0.17-0.52c-6.18,1.83-12.03,4.72-17.27,8.46
							c-5.24,3.74-9.88,8.33-13.66,13.54c-2.13,2.94-3.98,6.07-5.52,9.35C273.39,140.42,273.87,140.68,274.02,140.36L274.02,140.36z
							"/>
					</g>
					<path class="st3" d="M280.75,129.45c-1.9-4.99-3.67-11.47-3.71-17.36c-0.02-3.33,0.29-6.87,1.7-10.08
						c0.67-1.52,1.67-3.02,2.96-3.58c1.92-0.82,3.64,0.83,4.31,2.87c0.72,2.21,0.64,4.86,0.42,7.44
						C285.86,115.6,282.96,122.71,280.75,129.45"/>
					<path class="st3" d="M293.3,117.17c-0.69-4.11-1.05-9.34-0.18-13.86c0.49-2.56,1.28-5.22,2.85-7.46
						c0.74-1.06,1.74-2.06,2.82-2.28c1.6-0.33,2.66,1.19,2.86,2.86c0.22,1.81-0.26,3.82-0.82,5.76
						C299.33,107.35,296.03,112.35,293.3,117.17"/>
					<path class="st3" d="M295.33,115.62c3.38-4.13,8.12-8.89,13.21-11.85c2.88-1.68,6.11-3.16,9.59-3.54
						c1.65-0.18,3.45-0.06,4.58,0.79c1.67,1.26,1.09,3.57-0.35,5.16c-1.56,1.73-3.9,2.97-6.24,4.06
						C309.88,113.16,302.27,114.19,295.33,115.62"/>
					<path class="st3" d="M284.08,124.92c4.17-1.56,9.66-3.05,14.81-3.19c2.91-0.08,6.03,0.11,8.97,1.14
						c1.39,0.49,2.8,1.24,3.41,2.24c0.9,1.48-0.37,2.84-2.09,3.39c-1.86,0.6-4.18,0.58-6.46,0.46
						C296.67,128.63,290.18,126.51,284.08,124.92"/>
					<path class="st3" d="M277.99,132.58c2.68-1,6.2-1.96,9.5-2.04c1.87-0.05,3.87,0.07,5.75,0.73c0.89,0.31,1.8,0.8,2.19,1.43
						c0.58,0.95-0.24,1.82-1.34,2.18c-1.2,0.39-2.68,0.37-4.14,0.29C286.07,134.96,281.9,133.6,277.99,132.58"/>
				</g>
				<g>
					<g>
						<path class="st1" d="M129.18,167.83c-8.88,2.19-18.11,2.84-27.21,2.01c-9.1-0.83-18.07-3.13-26.44-6.81
							c-4.68-2.06-9.17-4.56-13.38-7.47c-0.41-0.28-0.84,0.36-0.42,0.65c7.58,5.23,16.05,9.14,24.91,11.61
							c8.87,2.47,18.14,3.52,27.33,3.04c5.18-0.27,10.32-1.02,15.36-2.26C129.81,168.47,129.67,167.71,129.18,167.83L129.18,167.83z
							"/>
					</g>
					<path class="st1" d="M111,170.13c-3.84,6.59-9.46,14.38-15.97,19.71c-3.69,3.02-7.91,5.84-12.74,7.16
						c-2.29,0.62-4.86,0.86-6.64-0.09c-2.64-1.4-2.35-4.79-0.67-7.37c1.81-2.79,4.83-5.07,7.89-7.15
						C91.01,176.89,101.52,173.72,111,170.13"/>
					<path class="st1" d="M86.07,167.2c-3.95,4.46-9.45,9.56-15.25,12.65c-3.29,1.75-6.95,3.26-10.85,3.53
						c-1.85,0.13-3.85-0.09-5.07-1.08c-1.8-1.48-1.06-4.03,0.61-5.75c1.82-1.86,4.48-3.14,7.14-4.26
						C69.74,169.31,78.27,168.49,86.07,167.2"/>
					<path class="st1" d="M82.53,166.34c-7.63-0.05-17.18-1.05-25.05-4.05c-4.45-1.7-9-3.95-12.55-7.49
						c-1.68-1.67-3.16-3.79-3.23-5.8c-0.09-2.98,2.99-4.42,6.06-4.25c3.33,0.18,6.8,1.67,10.13,3.29
						C66.73,152.36,74.71,159.9,82.53,166.34"/>
					<path class="st1" d="M102.97,170.5c-5.49-3.24-12.07-8.01-16.84-13.61c-2.7-3.17-5.3-6.8-6.79-11c-0.7-1.99-1.14-4.23-0.57-5.8
						c0.84-2.33,3.49-2.14,5.65-0.72c2.34,1.53,4.4,4.13,6.31,6.77C95.8,153.16,99.27,162.28,102.97,170.5"/>
					<path class="st1" d="M116.95,170.4c-3.52-2.08-7.74-5.14-10.8-8.73c-1.73-2.03-3.4-4.36-4.35-7.06
						c-0.45-1.27-0.73-2.71-0.37-3.72c0.54-1.49,2.24-1.37,3.63-0.46c1.5,0.98,2.82,2.65,4.05,4.34
						C112.36,159.28,114.58,165.13,116.95,170.4"/>
				</g>
			</g>
			<g>
				<polygon class="st4" points="176.31,115.82 97.15,238.18 255.47,236.88 				"/>
				<circle class="st5" cx="182.99" cy="285" r="52.84"/>
				<rect x="232.63" y="166.46" class="st5" width="146.44" height="136.34"/>
			</g>
			<rect x="290.77" y="137.37" class="st6" width="122.66" height="114.2"/>
			<g>
				<rect x="100.35" y="304.26" class="st7" width="22.68" height="22.68"/>
				<rect x="123.02" y="304.26" class="st1" width="22.68" height="22.68"/>
				<rect x="145.7" y="304.26" class="st8" width="22.68" height="22.68"/>
				<rect x="168.37" y="304.26" class="st9" width="22.68" height="22.68"/>
			</g>
			<g>
				<path class="st10" d="M339.47,310.43c0,10.86-8.8,19.66-19.66,19.66c-10.86,0-19.66-8.8-19.66-19.66
					c0-10.86,8.8-19.66,19.66-19.66C330.67,290.77,339.47,299.58,339.47,310.43z"/>
				<g>
					<g>
						<g>
							<path class="st11" d="M319.61,285c0,0.45,0,0.91,0,1.36c0,1.24,0,2.47,0,3.71c0,1.82,0,3.64,0,5.46c0,2.23,0,4.46,0,6.69
								c0,2.43,0,4.86,0,7.29c0,2.46,0,4.93,0,7.39c0,2.3,0,4.6,0,6.89c0,1.94,0,3.88,0,5.82c0,1.39,0,2.78,0,4.17
								c0,0.66-0.01,1.33,0,1.99c0,0.03,0,0.06,0,0.09c0,0.98,1.53,0.99,1.53,0c0-0.45,0-0.91,0-1.36c0-1.24,0-2.47,0-3.71
								c0-1.82,0-3.64,0-5.46c0-2.23,0-4.46,0-6.69c0-2.43,0-4.86,0-7.29c0-2.46,0-4.93,0-7.39c0-2.3,0-4.6,0-6.89
								c0-1.94,0-3.88,0-5.82c0-1.39,0-2.78,0-4.17c0-0.66,0.01-1.33,0-1.99c0-0.03,0-0.06,0-0.09
								C321.14,284.02,319.61,284.02,319.61,285L319.61,285z"/>
						</g>
					</g>
					<g>
						<g>
							<path class="st11" d="M345.81,309.67c-0.45,0-0.91,0-1.36,0c-1.24,0-2.47,0-3.71,0c-1.82,0-3.64,0-5.46,0
								c-2.23,0-4.46,0-6.69,0c-2.43,0-4.86,0-7.29,0c-2.46,0-4.93,0-7.39,0c-2.3,0-4.6,0-6.89,0c-1.94,0-3.88,0-5.82,0
								c-1.39,0-2.78,0-4.17,0c-0.66,0-1.33-0.01-1.99,0c-0.03,0-0.06,0-0.09,0c-0.98,0-0.99,1.53,0,1.53c0.45,0,0.91,0,1.36,0
								c1.24,0,2.47,0,3.71,0c1.82,0,3.64,0,5.46,0c2.23,0,4.46,0,6.69,0c2.43,0,4.86,0,7.29,0c2.46,0,4.93,0,7.39,0
								c2.3,0,4.6,0,6.89,0c1.94,0,3.88,0,5.82,0c1.39,0,2.78,0,4.17,0c0.66,0,1.33,0.01,1.99,0c0.03,0,0.06,0,0.09,0
								C346.79,311.2,346.79,309.67,345.81,309.67L345.81,309.67z"/>
						</g>
					</g>
				</g>
			</g>
			<g>
				<g>
					<path class="st8" d="M84.79,271.34c-7.3,0-13.24-5.94-13.24-13.24c0-7.3,5.94-13.24,13.24-13.24c7.3,0,13.24,5.94,13.24,13.24
						C98.03,265.4,92.09,271.34,84.79,271.34z M84.79,245.52c-6.94,0-12.58,5.64-12.58,12.58c0,6.94,5.64,12.58,12.58,12.58
						c6.94,0,12.58-5.64,12.58-12.58C97.37,251.17,91.73,245.52,84.79,245.52z"/>
				</g>
				<g>
					<g>
						<g>
							<path class="st11" d="M84.66,241.4c0,0.3,0,0.6,0,0.89c0,0.81,0,1.62,0,2.44c0,1.19,0,2.39,0,3.58c0,1.46,0,2.93,0,4.39
								c0,1.6,0,3.19,0,4.79c0,1.62,0,3.24,0,4.86c0,1.51,0,3.02,0,4.53c0,1.28,0,2.55,0,3.83c0,0.91,0,1.83,0,2.74
								c0,0.43-0.01,0.87,0,1.3c0,0.02,0,0.04,0,0.06c0,0.65,1.01,0.65,1.01,0c0-0.3,0-0.6,0-0.89c0-0.81,0-1.62,0-2.44
								c0-1.19,0-2.39,0-3.58c0-1.46,0-2.93,0-4.39c0-1.6,0-3.19,0-4.79c0-1.62,0-3.24,0-4.86c0-1.51,0-3.02,0-4.53
								c0-1.27,0-2.55,0-3.83c0-0.91,0-1.83,0-2.74c0-0.43,0.01-0.87,0-1.3c0-0.02,0-0.04,0-0.06
								C85.66,240.76,84.66,240.76,84.66,241.4L84.66,241.4z"/>
						</g>
					</g>
					<g>
						<g>
							<path class="st11" d="M101.86,257.6c-0.3,0-0.6,0-0.89,0c-0.81,0-1.62,0-2.44,0c-1.19,0-2.39,0-3.58,0c-1.46,0-2.93,0-4.39,0
								c-1.6,0-3.19,0-4.79,0c-1.62,0-3.24,0-4.86,0c-1.51,0-3.02,0-4.53,0c-1.27,0-2.55,0-3.82,0c-0.91,0-1.83,0-2.74,0
								c-0.43,0-0.87-0.01-1.3,0c-0.02,0-0.04,0-0.06,0c-0.65,0-0.65,1.01,0,1.01c0.3,0,0.6,0,0.89,0c0.81,0,1.62,0,2.44,0
								c1.19,0,2.39,0,3.58,0c1.46,0,2.93,0,4.39,0c1.6,0,3.19,0,4.79,0c1.62,0,3.24,0,4.86,0c1.51,0,3.02,0,4.53,0
								c1.27,0,2.55,0,3.83,0c0.91,0,1.83,0,2.74,0c0.43,0,0.87,0.01,1.3,0c0.02,0,0.04,0,0.06,0
								C102.51,258.61,102.51,257.6,101.86,257.6L101.86,257.6z"/>
						</g>
					</g>
				</g>
			</g>
			<path class="st8" d="M340.66,124.67h31.4c2.12,0,3.93,1.52,4.3,3.6l2.31,12.87c1.3,7.21,7.57,12.45,14.89,12.45l0,0l-1.36-30.23
				c-0.25-5.59-4.85-9.99-10.45-9.99h-40.84h-21.69h-40.28c-5.9,0-10.76,4.65-11.03,10.55l-1.33,29.67l0,0
				c7.32,0,13.6-5.25,14.89-12.45l2.43-13.51c0.31-1.71,1.8-2.96,3.54-2.96h32.04c0.4,19.57,0.42,39.23,0.42,58.75v11.3
				c0,19.75-0.02,39.33-0.42,58.51l-14.32,1.53c-5.11,0.55-8.99,4.86-8.99,10l0,0h23.05h21.69h23.05l0,0c0-5.14-3.88-9.45-8.99-10
				l-14.32-1.53c-0.4-19.49-0.42-39.07-0.42-58.51v-11.3C340.24,163.58,340.26,143.93,340.66,124.67z"/>
			<g>
				<path class="st12" d="M175.19,292.74h-51.78c-0.42,0-0.75-0.38-0.68-0.79l3-19.47c0.05-0.34,0.34-0.58,0.68-0.58h43.96
					c0.33,0,0.61,0.23,0.68,0.55L175.19,292.74L175.19,292.74z"/>
				<path class="st12" d="M194.94,203.38l-41.34-68.37c-0.65-1.07-2.29-0.61-2.29,0.64v60.97c2.56,0.73,4.43,3.08,4.43,5.87
					c0,3.38-2.74,6.11-6.11,6.11c-3.38,0-6.11-2.74-6.11-6.11c0-2.84,1.95-5.23,4.58-5.91l0-61.12c0-1.23-1.61-1.7-2.27-0.67
					l-44.55,69.13c-0.22,0.34-0.26,0.76-0.1,1.14l24.36,59.39c0.19,0.46,0.64,0.77,1.14,0.77h43.4c0.51,0,0.96-0.31,1.15-0.78
					l23.82-59.96C195.17,204.11,195.14,203.71,194.94,203.38z"/>
			</g>
			<g>
				<path class="st12" d="M83.07,130.95c0,0,59.39-59.38,133.62,0"/>
				<path class="st3" d="M85.16,132.47c0,2.14-1.74,3.88-3.88,3.88c-2.14,0-3.88-1.74-3.88-3.88s1.74-3.88,3.88-3.88
					C83.42,128.59,85.16,130.33,85.16,132.47z"/>
				<circle class="st3" cx="216.68" cy="132.47" r="3.88"/>
				<rect x="146.59" y="101.28" class="st3" width="6.57" height="6.57"/>
			</g>
			<g>
				<g>
					<path class="st9" d="M103.71,355.87c23.75,19,44.97,18.02,58.59,13.84c14.79-4.54,24.08-13.7,24.17-13.79l0.88,0.89
						c-0.09,0.09-9.57,9.45-24.64,14.09c-13.92,4.28-35.59,5.32-59.79-14.04L103.71,355.87z"/>
				</g>
				<g>
					<path class="st9" d="M185.6,355.41c0-1.34,1.09-2.43,2.43-2.43c1.34,0,2.43,1.09,2.43,2.43c0,1.34-1.09,2.43-2.43,2.43
						C186.69,357.84,185.6,356.75,185.6,355.41z"/>
				</g>
				<g>
					<path class="st9" d="M100.89,355.41c0-1.34,1.09-2.43,2.43-2.43c1.34,0,2.43,1.09,2.43,2.43c0,1.34-1.09,2.43-2.43,2.43
						C101.97,357.84,100.89,356.75,100.89,355.41z"/>
				</g>
				<g>
					
						<rect x="143.06" y="370.82" transform="matrix(-1 -1.224647e-16 1.224647e-16 -1 290.2244 745.7487)" class="st9" width="4.11" height="4.11"/>
				</g>
			</g>
			<g>
				<g>
					<path class="st9" d="M425.79,198.6c-15.95-12.76-30.2-12.1-39.34-9.29c-9.93,3.05-16.17,9.2-16.23,9.26l-0.59-0.59
						c0.06-0.06,6.43-6.35,16.55-9.46c9.35-2.88,23.9-3.57,40.15,9.43L425.79,198.6z"/>
				</g>
				<g>
					<circle class="st9" cx="369.16" cy="198.91" r="1.63"/>
				</g>
				<g>
					<circle class="st9" cx="426.05" cy="198.91" r="1.63"/>
				</g>
				<g>
					<rect x="396.6" y="185.8" class="st9" width="2.76" height="2.76"/>
				</g>
			</g>
			<g>
				<g>
					<g>
						<path class="st3" d="M230.92,199.1l-13.62,2.79c-0.11,0.02-0.22-0.06-0.22-0.17l-0.26-5.28c0-0.09,0.06-0.17,0.15-0.19
							l11.56-2.36c0.09-0.02,0.17,0.03,0.21,0.11L230.92,199.1L230.92,199.1z"/>
						<path class="st3" d="M231.31,174.53l-14.55-15.76c-0.23-0.25-0.64-0.04-0.57,0.29l3.28,16.04c0.71,0.05,1.33,0.57,1.48,1.31
							c0.18,0.89-0.39,1.75-1.28,1.94c-0.89,0.18-1.75-0.39-1.94-1.28c-0.15-0.75,0.23-1.48,0.89-1.8l-3.29-16.07
							c-0.07-0.32-0.51-0.36-0.63-0.05l-8,20.58c-0.04,0.1-0.03,0.21,0.03,0.3l9.6,14.31c0.07,0.11,0.21,0.17,0.34,0.14l11.41-2.33
							c0.13-0.03,0.24-0.13,0.26-0.27l3.04-17.05C231.41,174.72,231.38,174.61,231.31,174.53z"/>
					</g>
					
						<rect x="223.96" y="199.59" transform="matrix(0.9797 -0.2004 0.2004 0.9797 -42.3321 51.0497)" class="st13" width="14.08" height="70.09"/>
				</g>
				<g>
					
						<rect x="238.38" y="179.56" transform="matrix(0.9996 -0.0267 0.0267 0.9996 -5.6351 6.6203)" class="st14" width="14.08" height="70.09"/>
					<g>
						<path class="st15" d="M251.53,179.6l-13.89,0.37c-0.11,0-0.2-0.1-0.19-0.21l0.67-5.25c0.01-0.09,0.09-0.16,0.18-0.16
							l11.8-0.31c0.09,0,0.17,0.06,0.19,0.14L251.53,179.6C251.53,179.6,251.53,179.6,251.53,179.6z"/>
						<path class="st15" d="M256.19,155.48l-11.58-18.05c-0.18-0.28-0.62-0.15-0.61,0.19l0.44,16.36c0.69,0.18,1.21,0.8,1.23,1.54
							c0.02,0.91-0.69,1.66-1.6,1.68c-0.91,0.02-1.66-0.69-1.68-1.6c-0.02-0.76,0.48-1.42,1.19-1.62l-0.44-16.4
							c-0.01-0.33-0.44-0.45-0.61-0.16l-11.46,18.87c-0.06,0.09-0.06,0.21-0.02,0.31l6.96,15.76c0.05,0.12,0.18,0.2,0.31,0.2
							l11.65-0.31c0.14,0,0.26-0.09,0.3-0.22l5.96-16.26C256.25,155.67,256.24,155.56,256.19,155.48z"/>
					</g>
				</g>
				<g>
					<polygon class="st3" points="275.47,198.2 261.77,194.81 263.18,189.07 276.77,192.6 275.47,198.2 					"/>
					
						<rect x="253.22" y="195.27" transform="matrix(0.9706 0.2406 -0.2406 0.9706 63.0599 -55.8527)" class="st13" width="14.08" height="70.09"/>
					<g>
						<polygon class="st15" points="276.66,190.44 279.13,179.72 275.28,166.46 266.66,176.65 264.03,187.3 						"/>
						<line class="st15" x1="270.29" y1="172.3" x2="277.44" y2="173.89"/>
					</g>
				</g>
				<g>
					<path class="st3" d="M251.58,337.17H236.4c-13.51,0-24.46-10.95-24.46-24.46v-65.71c0-1.82,1.47-3.29,3.29-3.29h58.37
						c1.85,0,3.34,1.5,3.34,3.34v64.76C276.95,325.81,265.59,337.17,251.58,337.17z"/>
					<rect x="211.94" y="253.76" class="st16" width="65.01" height="8.68"/>
					<rect x="211.94" y="268.22" class="st16" width="65.01" height="8.68"/>
				</g>
			</g>
			<g>
				<line class="st12" x1="398.15" y1="234.63" x2="398.15" y2="373.38"/>
				<line class="st12" x1="415.63" y1="358" x2="223.87" y2="358"/>
			</g>
			<g>
				<path class="st3" d="M365.24,348.88l-1.14-3.34c-0.75-2.2-2.48-3.93-4.68-4.68l-3.34-1.14l3.41-1.24
					c2.1-0.77,3.76-2.42,4.52-4.52l1.24-3.41l0.87,2.73c0.84,2.65,2.92,4.72,5.56,5.56l2.73,0.87l-2.81,1.11
					c-2.4,0.95-4.09,1.71-5.25,5.25L365.24,348.88z"/>
				<path class="st17" d="M423.15,270.34l-0.75-2.19c-0.49-1.44-1.63-2.58-3.07-3.07l-2.19-0.75l2.23-0.81
					c1.38-0.5,2.46-1.59,2.96-2.96l0.81-2.23l0.57,1.79c0.55,1.73,1.91,3.09,3.64,3.64l1.79,0.57l-1.84,0.73
					c-1.57,0.62-2.68,1.12-3.44,3.44L423.15,270.34z"/>
				<g>
					<path class="st17" d="M339.67,352.14c-2.57,0-4.66-2.09-4.66-4.66c0-2.57,2.09-4.66,4.66-4.66c2.57,0,4.66,2.09,4.66,4.66
						C344.33,350.05,342.24,352.14,339.67,352.14z M339.67,344.21c-1.8,0-3.26,1.46-3.26,3.26c0,1.8,1.46,3.26,3.26,3.26
						c1.8,0,3.26-1.46,3.26-3.26C342.93,345.68,341.47,344.21,339.67,344.21z"/>
				</g>
				<g>
					<path class="st17" d="M429.12,242.3c-1.14,0-2.06-0.92-2.06-2.06c0-1.14,0.92-2.06,2.06-2.06c1.13,0,2.06,0.92,2.06,2.06
						C431.18,241.38,430.26,242.3,429.12,242.3z M429.12,238.8c-0.79,0-1.44,0.65-1.44,1.44c0,0.79,0.65,1.44,1.44,1.44
						c0.79,0,1.44-0.65,1.44-1.44C430.56,239.45,429.92,238.8,429.12,238.8z"/>
				</g>
				<g>
					<path class="st17" d="M285.12,340.67c-1.14,0-2.06-0.92-2.06-2.06c0-1.14,0.92-2.06,2.06-2.06s2.06,0.92,2.06,2.06
						C287.17,339.74,286.25,340.67,285.12,340.67z M285.12,337.17c-0.79,0-1.44,0.65-1.44,1.44c0,0.79,0.65,1.44,1.44,1.44
						c0.79,0,1.44-0.65,1.44-1.44C286.56,337.81,285.91,337.17,285.12,337.17z"/>
				</g>
			</g>
			<g>
				<path class="st17" d="M231.4,117.01l-1.14-3.34c-0.75-2.2-2.48-3.93-4.68-4.68l-3.34-1.14l3.41-1.24
					c2.1-0.77,3.76-2.42,4.52-4.52l1.24-3.41l0.87,2.73c0.84,2.65,2.92,4.72,5.56,5.56l2.73,0.87l-2.81,1.11
					c-2.4,0.95-4.09,1.71-5.25,5.25L231.4,117.01z"/>
				<path class="st8" d="M63.04,215.59l-1.14-3.34c-0.75-2.2-2.48-3.93-4.68-4.68l-3.34-1.14l3.41-1.24
					c2.1-0.77,3.76-2.42,4.52-4.52l1.24-3.41l0.87,2.73c0.84,2.65,2.92,4.72,5.56,5.56l2.73,0.87l-2.81,1.11
					c-2.4,0.95-4.09,1.71-5.25,5.25L63.04,215.59z"/>
				<path class="st3" d="M124.97,351.45l-0.8-2.34c-0.53-1.54-1.74-2.75-3.28-3.28l-2.34-0.8l2.39-0.87
					c1.47-0.54,2.63-1.7,3.17-3.17l0.87-2.39l0.61,1.92c0.59,1.85,2.04,3.31,3.9,3.9l1.92,0.61l-1.97,0.78
					c-1.68,0.66-2.87,1.2-3.68,3.68L124.97,351.45z"/>
				<g>
					<path class="st17" d="M252.53,128.59c-2.57,0-4.66-2.09-4.66-4.66s2.09-4.66,4.66-4.66c2.57,0,4.66,2.09,4.66,4.66
						S255.1,128.59,252.53,128.59z M252.53,120.67c-1.8,0-3.26,1.46-3.26,3.26c0,1.8,1.46,3.26,3.26,3.26c1.8,0,3.26-1.46,3.26-3.26
						C255.79,122.13,254.33,120.67,252.53,120.67z"/>
				</g>
				<g>
					<path class="st17" d="M81.28,308.93c-2.57,0-4.66-2.09-4.66-4.66c0-2.57,2.09-4.66,4.66-4.66c2.57,0,4.66,2.09,4.66,4.66
						C85.94,306.83,83.85,308.93,81.28,308.93z M81.28,301c-1.8,0-3.26,1.46-3.26,3.26c0,1.8,1.46,3.26,3.26,3.26
						c1.8,0,3.26-1.46,3.26-3.26C84.54,302.46,83.08,301,81.28,301z"/>
				</g>
				<g>
					<path class="st17" d="M143.06,343.01c-1.14,0-2.06-0.92-2.06-2.06c0-1.14,0.92-2.06,2.06-2.06c1.14,0,2.06,0.92,2.06,2.06
						C145.12,342.09,144.19,343.01,143.06,343.01z M143.06,339.51c-0.79,0-1.44,0.65-1.44,1.44c0,0.79,0.65,1.44,1.44,1.44
						c0.79,0,1.44-0.65,1.44-1.44C144.5,340.16,143.85,339.51,143.06,339.51z"/>
				</g>
				<g>
					<path class="st17" d="M121.2,136.59c-1.14,0-2.06-0.92-2.06-2.06c0-1.13,0.92-2.06,2.06-2.06c1.14,0,2.06,0.92,2.06,2.06
						C123.26,135.67,122.33,136.59,121.2,136.59z M121.2,133.09c-0.79,0-1.44,0.65-1.44,1.44c0,0.79,0.65,1.44,1.44,1.44
						c0.79,0,1.44-0.65,1.44-1.44C122.64,133.74,121.99,133.09,121.2,133.09z"/>
				</g>
				<g>
					<path class="st17" d="M255.47,103.34c-1.14,0-2.06-0.92-2.06-2.06c0-1.14,0.92-2.06,2.06-2.06s2.06,0.92,2.06,2.06
						C257.53,102.41,256.61,103.34,255.47,103.34z M255.47,99.84c-0.79,0-1.44,0.65-1.44,1.44c0,0.79,0.65,1.44,1.44,1.44
						c0.79,0,1.44-0.65,1.44-1.44C256.91,100.48,256.27,99.84,255.47,99.84z"/>
				</g>
				<g>
					<path class="st17" d="M78.75,231.19c-2.57,0-4.66-2.09-4.66-4.66s2.09-4.66,4.66-4.66c2.57,0,4.66,2.09,4.66,4.66
						S81.32,231.19,78.75,231.19z M78.75,223.26c-1.8,0-3.26,1.46-3.26,3.26c0,1.8,1.46,3.26,3.26,3.26c1.8,0,3.26-1.46,3.26-3.26
						C82.01,224.72,80.55,223.26,78.75,223.26z"/>
				</g>
			</g>
		</g>
	</g>
</g>
</svg>
