<?xml version="1.0" encoding="utf-8"?>
<!-- Generator: Adobe Illustrator 24.0.0, SVG Export Plug-In . SVG Version: 6.00 Build 0)  -->
<svg version="1.1" xmlns="http://www.w3.org/2000/svg" xmlns:xlink="http://www.w3.org/1999/xlink" x="0px" y="0px"
	 viewBox="0 0 841.89 623.62" style="enable-background:new 0 0 841.89 623.62;" xml:space="preserve">
<style type="text/css">
	.st0{display:none;}
	.st1{display:inline;}
	.st2{fill:#65CBE9;}
	.st3{opacity:0.35;fill:#939598;}
	.st4{fill:#FFFFFF;stroke:#444444;stroke-width:3;stroke-linejoin:round;stroke-miterlimit:10;}
	.st5{fill:#FFFFFF;stroke:#444444;stroke-width:3;}
	.st6{fill:#FFFFFF;stroke:#444444;stroke-width:6;}
	.st7{fill:#FFFFFD;stroke:#444444;stroke-width:3;stroke-linecap:round;stroke-linejoin:round;stroke-miterlimit:10;}
	.st8{opacity:0.35;}
	.st9{fill:#939598;}
	.st10{fill:#FAD978;}
	.st11{fill:#444444;}
	.st12{fill:#FAD978;stroke:#444444;stroke-width:3;stroke-linecap:round;stroke-linejoin:round;}
	.st13{fill:#F4F4F4;stroke:#444444;stroke-width:3;stroke-linecap:round;stroke-linejoin:round;}
	.st14{fill:#BCBCBC;}
	.st15{fill:#4FE0F7;}
	.st16{fill:#238CE2;}
	.st17{fill:#51B1F2;}
	.st18{fill:#FFFFFF;stroke:#444444;stroke-width:3;stroke-miterlimit:10;}
	.st19{opacity:0.25;fill:#939598;}
	.st20{fill:#EFEFEF;stroke:#444444;stroke-width:3;stroke-miterlimit:10;}
	.st21{fill:#CDCED1;}
	.st22{fill:#EFEFEF;}
	.st23{fill:#FAD978;stroke:#444444;stroke-width:3;stroke-miterlimit:10;}
	.st24{fill:#65CBE9;stroke:#444444;stroke-width:3;stroke-miterlimit:10;}
	.st25{fill:#444444;stroke:#444444;stroke-width:3;stroke-miterlimit:10;}
	.st26{fill:#FF6665;}
	.st27{fill:#FCB82E;}
	.st28{fill:#444444;stroke:#444444;stroke-miterlimit:10;}
	.st29{fill:#A9CD68;stroke:#444444;stroke-width:3;stroke-miterlimit:10;}
	.st30{fill:none;stroke:#444444;stroke-width:3;stroke-miterlimit:10;}
	.st31{fill:#FFFFFF;}
	.st32{fill:#889099;stroke:#444444;stroke-width:3;stroke-linecap:round;stroke-linejoin:round;stroke-miterlimit:10;}
	.st33{fill:#546674;stroke:#444444;stroke-miterlimit:10;}
	.st34{fill:#F0777E;}
	.st35{fill:#A9CD68;}
	.st36{fill:#454E6B;stroke:#444444;stroke-miterlimit:10;}
	.st37{fill:#BDC0C6;stroke:#444444;stroke-miterlimit:10;}
	.st38{fill:#6F82D1;stroke:#444444;stroke-miterlimit:10;}
	.st39{fill:#7492E8;stroke:#444444;stroke-miterlimit:10;}
	.st40{fill:#F0777E;stroke:#444444;stroke-width:3;stroke-miterlimit:10;}
	.st41{fill:none;stroke:#444444;stroke-width:3;stroke-linecap:round;stroke-linejoin:round;stroke-miterlimit:10;}
	.st42{fill:#CDCED1;stroke:#444444;stroke-width:3;stroke-linecap:round;stroke-linejoin:round;stroke-miterlimit:10;}
	.st43{fill:#F5F5F5;}
	.st44{fill:#C1C1C1;}
	.st45{fill:#D6D6D6;}
	.st46{fill:#CCCED2;}
	.st47{fill:#DBDBDB;}
	.st48{fill:#CECECE;}
	.st49{clip-path:url(#SVGID_2_);}
	.st50{fill:#A2A4AD;}
	.st51{fill:#F0777E;stroke:#444444;stroke-width:2.8578;stroke-linejoin:round;stroke-miterlimit:10;}
	.st52{fill:#7DCBEA;}
	.st53{fill:#EFEFEF;stroke:#444444;stroke-width:0.9526;stroke-miterlimit:10;}
	.st54{fill:#B5B5B5;}
	.st55{fill:#CE5D5D;}
	.st56{opacity:0.2;}
	.st57{fill:#D0D4D7;}
	.st58{fill:#B7B7B7;}
</style>
<g id="bg" class="st0">
	<g class="st1">
		<rect x="0" y="0" class="st2" width="841.89" height="623.62"/>
	</g>
</g>
<g id="graphics">
	<g>
		<path class="st3" d="M761.53,415.07L761.53,415.07l-273.36-0.01v0.12h0c-19.69,0-35.65,15.93-35.65,35.58
			c0,0.74,0.03,1.48,0.07,2.21h-0.01c0.58,19.18,16.27,34.56,35.59,34.56h0v0.12l273.36-0.12c19.58-0.13,35.41-17.22,35.41-36.83
			C796.94,431.1,781.11,415.2,761.53,415.07z"/>
		<g>
			<path class="st3" d="M317.44,200.75c0,35.08-28.45,63.53-63.53,63.53c-35.09,0-63.54-28.45-63.54-63.53
				c0-35.09,28.45-63.53,63.54-63.53C288.99,137.22,317.44,165.66,317.44,200.75z"/>
			<path class="st4" d="M307.78,196.52c0,34.88-28.27,63.15-63.15,63.15c-34.87,0-63.15-28.27-63.15-63.15
				c0-34.88,28.28-63.15,63.15-63.15C279.51,133.37,307.78,161.64,307.78,196.52z"/>
			<g>
				<line class="st5" x1="282.83" y1="158.47" x2="236.85" y2="204.45"/>
				<line class="st6" x1="249.29" y1="201.07" x2="217.28" y2="169.06"/>
				<path class="st7" d="M249.75,196.52c0,2.82-2.29,5.11-5.12,5.11c-2.82,0-5.11-2.29-5.11-5.11c0-2.83,2.29-5.12,5.11-5.12
					C247.45,191.41,249.75,193.7,249.75,196.52z"/>
			</g>
			<g>
				<g>
					<line class="st5" x1="244.63" y1="151.75" x2="244.63" y2="139.8"/>
				</g>
				<g>
					<line class="st5" x1="244.63" y1="253.25" x2="244.63" y2="241.3"/>
				</g>
			</g>
			<g>
				<g>
					<line class="st5" x1="199.86" y1="196.52" x2="187.9" y2="196.52"/>
				</g>
				<g>
					<line class="st5" x1="301.36" y1="196.52" x2="289.4" y2="196.52"/>
				</g>
			</g>
		</g>
		<g>
			<g>
				<g class="st8">
					<polygon class="st9" points="505.55,132.68 505.55,429.13 541.57,429.13 541.57,132.68 533.99,127.02 					"/>
				</g>
			</g>
			<g>
				<g>
					<path class="st10" d="M495.82,427.11c-0.83,0-1.5-0.67-1.5-1.5V129.16c0-0.83,0.67-1.5,1.5-1.5h36.02c0.83,0,1.5,0.67,1.5,1.5
						v296.45c0,0.83-0.67,1.5-1.5,1.5H495.82z"/>
					<path class="st11" d="M531.84,129.16v296.45h-36.02V129.16H531.84 M531.84,126.16h-36.02c-1.66,0-3,1.34-3,3v296.45
						c0,1.66,1.34,3,3,3h36.02c1.66,0,3-1.34,3-3V129.16C534.84,127.5,533.49,126.16,531.84,126.16L531.84,126.16z"/>
				</g>
			</g>
			<g>
				<g>
					<line class="st5" x1="524.01" y1="144.91" x2="532.15" y2="144.91"/>
				</g>
				<g>
					<line class="st5" x1="519.01" y1="161.47" x2="532.15" y2="161.47"/>
				</g>
				<g>
					<line class="st5" x1="524.01" y1="178.03" x2="532.15" y2="178.03"/>
				</g>
				<g>
					<line class="st5" x1="519.01" y1="194.59" x2="532.15" y2="194.59"/>
				</g>
				<g>
					<line class="st5" x1="524.01" y1="211.15" x2="532.15" y2="211.15"/>
				</g>
				<g>
					<line class="st5" x1="519.01" y1="227.71" x2="532.15" y2="227.71"/>
				</g>
				<g>
					<line class="st5" x1="524.01" y1="244.27" x2="532.15" y2="244.27"/>
				</g>
				<g>
					<line class="st5" x1="519.01" y1="260.83" x2="532.15" y2="260.83"/>
				</g>
				<g>
					<line class="st5" x1="524.01" y1="277.39" x2="532.15" y2="277.39"/>
				</g>
				<g>
					<line class="st5" x1="519.01" y1="293.95" x2="532.15" y2="293.95"/>
				</g>
				<g>
					<line class="st5" x1="524.01" y1="310.5" x2="532.15" y2="310.5"/>
				</g>
				<g>
					<line class="st5" x1="519.01" y1="327.06" x2="532.15" y2="327.06"/>
				</g>
				<g>
					<line class="st5" x1="524.01" y1="343.62" x2="532.15" y2="343.62"/>
				</g>
				<g>
					<line class="st5" x1="519.01" y1="360.18" x2="532.15" y2="360.18"/>
				</g>
				<g>
					<line class="st5" x1="524.01" y1="376.74" x2="532.15" y2="376.74"/>
				</g>
				<g>
					<line class="st5" x1="519.01" y1="393.3" x2="532.15" y2="393.3"/>
				</g>
				<g>
					<line class="st5" x1="524.01" y1="409.86" x2="532.15" y2="409.86"/>
				</g>
			</g>
		</g>
		<g>
			<rect x="550.24" y="91.94" class="st12" width="18.37" height="394.58"/>
			<rect x="584.02" y="118.91" class="st12" width="18.37" height="367.6"/>
			<rect x="660.79" y="118.91" class="st12" width="18.37" height="367.6"/>
			<rect x="693.22" y="91.94" class="st12" width="18.36" height="394.58"/>
			<g>
				<rect x="550.24" y="91.94" class="st12" width="161.33" height="228.43"/>
				<rect x="559.42" y="102.31" class="st13" width="142.99" height="207.69"/>
				<g>
					<path class="st14" d="M568.41,114.41c1.87,0,3.4-1.52,3.4-3.39c0-1.88-1.52-3.39-3.4-3.39c-1.87,0-3.39,1.52-3.39,3.39
						C565.02,112.9,566.54,114.41,568.41,114.41z"/>
					<path class="st2" d="M567.7,113.59c1.87,0,3.39-1.52,3.39-3.39c0-1.88-1.52-3.39-3.39-3.39c-1.88,0-3.39,1.52-3.39,3.39
						C564.31,112.07,565.83,113.59,567.7,113.59z"/>
					<path class="st15" d="M567.01,110.83c0.89,0,1.6-0.72,1.6-1.6c0-0.89-0.71-1.6-1.6-1.6c-0.88,0-1.6,0.72-1.6,1.6
						C565.42,110.12,566.13,110.83,567.01,110.83z"/>
				</g>
				<g>
					<path class="st14" d="M568.41,304.59c1.87,0,3.4-1.52,3.4-3.39c0-1.87-1.52-3.39-3.4-3.39c-1.87,0-3.39,1.52-3.39,3.39
						C565.02,303.07,566.54,304.59,568.41,304.59z"/>
					<path class="st16" d="M567.7,303.76c1.87,0,3.39-1.52,3.39-3.39c0-1.87-1.52-3.39-3.39-3.39c-1.88,0-3.39,1.52-3.39,3.39
						C564.31,302.24,565.83,303.76,567.7,303.76z"/>
					<path class="st17" d="M567.01,301c0.89,0,1.6-0.72,1.6-1.6s-0.71-1.6-1.6-1.6c-0.88,0-1.6,0.72-1.6,1.6S566.13,301,567.01,301z
						"/>
				</g>
				<g>
					<path class="st14" d="M694.19,114.41c1.87,0,3.39-1.52,3.39-3.39c0-1.88-1.52-3.39-3.39-3.39c-1.87,0-3.39,1.52-3.39,3.39
						C690.79,112.9,692.31,114.41,694.19,114.41z"/>
					<path class="st2" d="M693.47,113.59c1.87,0,3.39-1.52,3.39-3.39c0-1.88-1.52-3.39-3.39-3.39c-1.87,0-3.39,1.52-3.39,3.39
						C690.08,112.07,691.6,113.59,693.47,113.59z"/>
					<path class="st15" d="M692.78,110.83c0.88,0,1.6-0.72,1.6-1.6c0-0.89-0.72-1.6-1.6-1.6c-0.88,0-1.6,0.72-1.6,1.6
						C691.19,110.12,691.91,110.83,692.78,110.83z"/>
				</g>
				<g>
					<path class="st14" d="M694.19,304.59c1.87,0,3.39-1.52,3.39-3.39c0-1.87-1.52-3.39-3.39-3.39c-1.87,0-3.39,1.52-3.39,3.39
						C690.79,303.07,692.31,304.59,694.19,304.59z"/>
					<path class="st2" d="M693.47,303.76c1.87,0,3.39-1.52,3.39-3.39c0-1.87-1.52-3.39-3.39-3.39c-1.87,0-3.39,1.52-3.39,3.39
						C690.08,302.24,691.6,303.76,693.47,303.76z"/>
					<path class="st15" d="M692.78,301c0.88,0,1.6-0.72,1.6-1.6s-0.72-1.6-1.6-1.6c-0.88,0-1.6,0.72-1.6,1.6S691.91,301,692.78,301z
						"/>
				</g>
			</g>
			<rect x="542.72" y="320.37" class="st12" width="176.38" height="8.96"/>
		</g>
		<g>
			<path class="st18" d="M478.97,486.5c0.79,0,1.58-0.06,2.36-0.12h265.63v-69.77H478.97v0.12h0c-19.3,0-34.95,15.62-34.95,34.88
				C444.02,470.88,459.67,486.5,478.97,486.5z"/>
			<path class="st19" d="M746.96,453.78v34H478.97v-0.12h0c-18.94,0-34.33-15.08-34.89-33.88H746.96z"/>
			<path class="st20" d="M711.78,451.55c0-19.3,15.65-34.94,34.94-34.94c19.3,0,34.95,15.64,34.95,34.94
				c0,19.3-15.65,34.94-34.95,34.94C727.42,486.5,711.78,470.85,711.78,451.55z"/>
			<path class="st21" d="M719.8,451.55c0-14.87,12.05-26.92,26.92-26.92c14.87,0,26.92,12.05,26.92,26.92
				c0,14.87-12.05,26.92-26.92,26.92C731.86,478.47,719.8,466.42,719.8,451.55z"/>
			<path class="st22" d="M744.87,424.7c0.13,0,0.26-0.02,0.39-0.03c8.66-0.11,15.76,6.81,15.88,15.46
				c0.12,8.65-6.8,15.76-15.45,15.87c-0.13,0-0.26-0.01-0.39-0.01l0.1,7.52c0.13,0,0.26,0.02,0.39,0.01
				c12.81-0.17,23.05-10.7,22.87-23.5c-0.17-12.8-10.69-21.91-23.5-21.74c-0.13,0-0.26,0.13-0.39,0.14L744.87,424.7z"/>
		</g>
		<g>
			<path class="st23" d="M408.26,208.1h-10.14l-2.67,37.14c-0.48,6.6-0.58,13.21-0.33,19.82l5.31,137c0.05,1.49,1.27,2.67,2.77,2.67
				c1.49,0,2.72-1.18,2.77-2.67l5.3-137.01c0.26-6.6,0.15-13.2-0.33-19.79L408.26,208.1z"/>
			<polygon class="st24" points="396.4,173.58 396.4,184.84 398.15,208.1 408.23,208.1 409.98,184.84 409.98,173.58 			"/>
			<path class="st25" d="M413.36,155.96c0,0-2.13-5.91-10.18-5.91c-8.04,0-10.17,5.91-10.17,5.91l3.38,17.62h13.58L413.36,155.96z"
				/>
		</g>
		<g>
			<g>
				<g class="st8">
					<polygon class="st9" points="458.63,149.26 458.63,445.72 473.65,445.72 473.65,149.26 466.07,143.61 					"/>
				</g>
			</g>
			<g>
				<g>
					<path class="st26" d="M455.43,384.62c-5.07,0-9.19-4.12-9.19-9.19c0-5.06,4.12-9.18,9.19-9.18c5.06,0,9.18,4.12,9.18,9.18
						C464.62,380.5,460.5,384.62,455.43,384.62z"/>
					<path class="st11" d="M455.43,367.75c4.24,0,7.68,3.44,7.68,7.68c0,4.24-3.44,7.69-7.68,7.69c-4.24,0-7.69-3.44-7.69-7.69
						C447.74,371.19,451.19,367.75,455.43,367.75 M455.43,364.75c-5.89,0-10.69,4.79-10.69,10.68c0,5.89,4.79,10.69,10.69,10.69
						c5.89,0,10.68-4.79,10.68-10.69C466.12,369.54,461.32,364.75,455.43,364.75L455.43,364.75z"/>
				</g>
			</g>
			<g>
				<g>
					<rect x="446.16" y="145.9" class="st10" width="18.47" height="224.9"/>
					<g>
						<path class="st11" d="M463.14,147.4v221.9h-15.47V147.4H463.14 M466.14,144.4h-3h-15.47h-3v3v221.9v3h3h15.47h3v-3V147.4
							V144.4L466.14,144.4z"/>
					</g>
				</g>
			</g>
			<g>
				<g>
					<path class="st27" d="M447.65,146.25c-0.61,0-1.15-0.37-1.39-0.93c-0.23-0.56-0.1-1.21,0.33-1.64l7.8-7.78
						c0.28-0.28,0.66-0.44,1.06-0.44c0,0,0,0,0.01,0c0.4,0,0.78,0.16,1.06,0.45l7.69,7.78c0.43,0.43,0.55,1.07,0.32,1.63
						c-0.23,0.56-0.78,0.92-1.38,0.92H447.65z"/>
					<g>
						<path class="st11" d="M455.45,136.97l7.69,7.78h-7.69h-0.12h-7.69L455.45,136.97 M455.45,133.97c-0.79,0-1.56,0.31-2.12,0.88
							l-7.8,7.78c-0.86,0.86-1.12,2.15-0.65,3.27s1.56,1.85,2.77,1.85h7.69h0.12h7.69c1.21,0,2.3-0.73,2.77-1.84
							c0.47-1.12,0.22-2.4-0.63-3.27l-7.69-7.78c-0.56-0.57-1.33-0.89-2.12-0.89C455.46,133.97,455.45,133.97,455.45,133.97
							L455.45,133.97z"/>
					</g>
				</g>
			</g>
			<polygon class="st28" points="458.02,139.48 452.86,139.48 455.45,136.88 			"/>
			<g>
				<g>
					<path class="st27" d="M447.66,376.93c-0.83,0-1.5-0.67-1.5-1.5v-6.13c0-0.83,0.67-1.5,1.5-1.5h15.47c0.83,0,1.5,0.67,1.5,1.5
						v6.13c0,0.83-0.67,1.5-1.5,1.5H447.66z"/>
					<path class="st11" d="M463.14,369.3v6.13h-15.47v-6.13H463.14 M463.14,366.3h-15.47c-1.66,0-3,1.34-3,3v6.13c0,1.66,1.34,3,3,3
						h15.47c1.66,0,3-1.34,3-3v-6.13C466.14,367.64,464.79,366.3,463.14,366.3L463.14,366.3z"/>
				</g>
			</g>
		</g>
		<g>
			<path class="st28" d="M133.1,404.94h-9.53h-6.46c-1.1,0-1.98,0.89-1.98,1.99v8.81c0,1.1,0.89,1.99,1.98,1.99h6.46h9.53
				c1.1,0,1.99-0.89,1.99-1.99v-8.81C135.08,405.83,134.2,404.94,133.1,404.94z"/>
			<path class="st29" d="M230.12,411.4h-79.1h-38.21c-6.49,0-11.76,5.26-11.76,11.76v52.14c0,3.25,1.32,6.19,3.44,8.31
				c2.13,2.13,5.07,3.44,8.31,3.44h38.21h79.1c6.49,0,11.75-5.26,11.75-11.75v-52.14C241.88,416.66,236.62,411.4,230.12,411.4z"/>
			<path class="st30" d="M206.37,419.24h-11.08h-7.52c-1.27,0-2.31,1.03-2.31,2.32v10.25c0,1.28,1.03,2.31,2.31,2.31h7.52h11.08
				c1.28,0,2.32-1.04,2.32-2.31v-10.25C208.68,420.27,207.64,419.24,206.37,419.24z"/>
			<path class="st20" d="M167.84,451.19c0,12.84-10.41,23.26-23.27,23.26c-12.85,0-23.26-10.42-23.26-23.26
				c0-12.85,10.41-23.27,23.26-23.27C157.43,427.92,167.84,438.34,167.84,451.19z"/>
			<path class="st31" d="M144.46,431.95L144.46,431.95L144.46,431.95c-10.47,0.01-18.95,8.5-18.96,18.96h0c0,0.01,0,0.02,0,0.04
				c0,1,0.81,1.82,1.82,1.82c1,0,1.81-0.81,1.81-1.82c0-0.01,0-0.02,0-0.04h0c0.01-8.44,6.84-15.29,15.29-15.33c0,0,0.03,0,0.04,0
				c1,0,1.82-0.81,1.82-1.82C146.28,432.77,145.46,431.95,144.46,431.95z"/>
		</g>
		<line class="st32" x1="801.49" y1="487.06" x2="79.03" y2="487.06"/>
		<g>
			<g>
				<path class="st33" d="M257.41,405.82l7.05-0.87l1.89,15.41c-3.37,2.88-5.28,7.33-4.7,12.05l0,0l-0.65,0.08l-1.41-11.54
					c0.55-0.23,0.9-0.79,0.83-1.41c-0.09-0.74-0.77-1.26-1.5-1.18c-0.74,0.11-1.26,0.76-1.17,1.5c0.08,0.62,0.56,1.09,1.14,1.16
					l1.42,11.54l-0.58,0.06l0,0c-0.58-4.71-3.51-8.56-7.49-10.55l-1.89-15.41L257.41,405.82z"/>
				<polygon class="st10" points="249.11,407.91 265.95,405.83 255.97,324.4 239.13,326.46 				"/>
				<path class="st10" d="M255.98,309.96l0.06,0.49l-20.37,2.51l-0.07-0.48c-0.54-5.52,3.43-10.5,8.98-11.18
					C250.14,300.61,255.18,304.49,255.98,309.96z"/>
				<path class="st34" d="M235.67,312.96l20.37-2.51l0.42,3.4h0l0.56,4.54h-0.01l3.1,25.23c0.1,0.85-0.51,1.64-1.37,1.74
					l-17.24,2.13c-0.87,0.1-1.66-0.51-1.77-1.37l-3.08-25.22h-0.01l-0.55-4.53c-2.51,0.31-4.28,2.57-3.97,5.08l4.5,37.03
					c0.11,0.84-0.46,2.03-1.4,2.17l-1.74,0.22l-4.79-39C228.15,317.48,231.29,313.48,235.67,312.96z"/>
			</g>
			<g>
				<path class="st35" d="M203.41,324.79l11.92-4.44l-1.15-3.07c-0.36-0.97-1.43-1.46-2.37-1.1l-8.46,3.16
					c-0.95,0.36-1.43,1.42-1.07,2.37L203.41,324.79z"/>
				<path class="st36" d="M260.71,462.81c0.19,0.51,0.75,0.76,1.25,0.58c0.51-0.18,0.76-0.74,0.57-1.25l-1.23-3.29l-1.82,0.67
					L260.71,462.81z"/>
				<polygon class="st4" points="251.82,454.39 263.72,449.94 215.32,320.35 203.41,324.79 				"/>
				<polygon class="st37" points="257.96,459.43 262.34,457.79 263.74,449.99 251.82,454.42 				"/>
				<polygon class="st38" points="259.67,460.94 262.11,460.04 262.34,457.79 258,459.41 				"/>
				<path class="st39" d="M245.95,443.41c0.36,0.96,1.42,1.43,2.38,1.08l11.54-4.32c0.96-0.35,1.45-1.42,1.09-2.38l-17.22-46.07
					c-0.35-0.97-1.42-1.45-2.37-1.1l-11.55,4.31c-0.96,0.35-1.45,1.42-1.09,2.38L245.95,443.41z"/>
			</g>
			<g>
				<g>
					<path class="st40" d="M241.76,487.09h-23.65c-1.63,0-2.99-1.25-3.13-2.89l-11.19-98.6c-0.22-2.57,1.8-4.78,4.39-4.78h33.58
						h33.58c2.58,0,4.6,2.21,4.36,4.78l-11.17,98.6c-0.15,1.64-1.5,2.89-3.13,2.89H241.76z"/>
				</g>
			</g>
			<path class="st41" d="M206.16,332.64c0,0-5.26,2.54-3.14,8.31c1.73,4.71,11.36,29.42,11.36,29.42"/>
		</g>
		<g>
			<g class="st8">
				<path class="st9" d="M641.97,448.96l0-203.78c0-9.43-7.64-17.07-17.07-17.07H313.14c-9.42,0-17.06,7.64-17.06,17.07
					l-0.01,203.78h-24.44v7.39c0,20.57,16.67,28.38,37.25,28.38h331.67c20.57,0,25.73-7.81,25.73-28.38v-7.39H641.97z"/>
			</g>
			<g>
				<g>
					<g>
						<g>
							<path class="st18" d="M271.24,246.9c0-9.49,7.69-17.18,17.18-17.18h325.23c9.48,0,17.18,7.69,17.18,17.18l0,203.64H271.23
								L271.24,246.9z"/>
							<g>
								<path class="st42" d="M246.63,450.54v7.44c0,20.7,16.78,28.56,37.49,28.56h333.81c20.7,0,37.49-7.86,37.49-28.56v-7.44
									H246.63z"/>
							</g>
							<g>
								<g>
									<rect x="294.5" y="255.81" class="st2" width="317.29" height="184.07"/>
									<path class="st11" d="M610.3,257.31v181.07H296V257.31H610.3 M613.3,254.31h-3H296h-3v3v181.07v3h3H610.3h3v-3V257.31
										V254.31L613.3,254.31z"/>
								</g>
							</g>
							<rect x="308.05" y="279.31" class="st22" width="290.22" height="147.06"/>
							<g>
								<path class="st10" d="M346.61,268.39c0,2.27-1.84,4.11-4.11,4.11c-2.27,0-4.11-1.84-4.11-4.11c0-2.27,1.84-4.11,4.11-4.11
									C344.77,264.28,346.61,266.12,346.61,268.39z"/>
								<path class="st43" d="M331.44,268.39c0,2.27-1.84,4.11-4.11,4.11c-2.27,0-4.11-1.84-4.11-4.11c0-2.27,1.84-4.11,4.11-4.11
									C329.6,264.28,331.44,266.12,331.44,268.39z"/>
								<path class="st34" d="M316.27,268.39c0,2.27-1.84,4.11-4.11,4.11s-4.11-1.84-4.11-4.11c0-2.27,1.84-4.11,4.11-4.11
									S316.27,266.12,316.27,268.39z"/>
							</g>
						</g>
					</g>
				</g>
			</g>
		</g>
		<g>
			<g>
				<path class="st11" d="M390.06,290.17l1.16,0.6c1.12,0.58,1.57,1.96,0.99,3.08l-8.77,17.07l1.57,3.05l0.08-0.04
					c0.05-0.03,0.11-0.04,0.17-0.04c0.14,0,0.27,0.08,0.34,0.21l2.76,5.37c0.25,0.48,0.72,0.71,1.21,0.71
					c0.35,0,0.72-0.12,1.02-0.35c0.34-0.26,0.71-0.49,1.1-0.69c1.11-0.57,2.29-0.84,3.46-0.84c2.75,0,5.41,1.5,6.75,4.12
					c1.92,3.72,0.45,8.3-3.28,10.21c-1.11,0.57-2.29,0.84-3.46,0.84c-2.75,0-5.41-1.5-6.75-4.12l-6.99-13.6l-7,13.6
					c-1.34,2.62-4,4.12-6.75,4.12c-1.17,0-2.35-0.27-3.46-0.84c-3.73-1.91-5.19-6.49-3.28-10.21c1.34-2.62,4-4.12,6.75-4.12
					c1.17,0,2.35,0.27,3.46,0.84c0.4,0.21,0.76,0.44,1.11,0.69c0.3,0.23,0.67,0.35,1.02,0.35c0.5,0,0.97-0.23,1.21-0.71l2.76-5.37
					c0.07-0.13,0.2-0.21,0.34-0.21c0.06,0,0.12,0.01,0.17,0.04l0.08,0.04l1.57-3.05l-8.77-17.07c-0.58-1.12-0.13-2.5,0.99-3.08
					l1.16-0.6l8.64,16.81L390.06,290.17 M395.16,330.23c0.67,0,1.35-0.15,1.98-0.48c2.13-1.09,2.97-3.71,1.88-5.85
					c-0.77-1.5-2.29-2.36-3.87-2.36c-0.67,0-1.35,0.15-1.98,0.48c-2.13,1.1-2.98,3.72-1.88,5.85
					C392.07,329.37,393.59,330.23,395.16,330.23 M367.68,330.23c1.58,0,3.1-0.86,3.87-2.36c1.1-2.13,0.25-4.75-1.88-5.85
					c-0.64-0.33-1.31-0.48-1.98-0.48c-1.58,0-3.1,0.86-3.87,2.36c-1.1,2.13-0.25,4.76,1.88,5.85
					C366.33,330.07,367.01,330.23,367.68,330.23 M388.82,286.33l-1.31,2.54l-6.1,11.86l-6.1-11.86l-1.31-2.54l-2.54,1.31l-1.16,0.6
					c-1.22,0.63-2.13,1.69-2.55,3c-0.42,1.31-0.31,2.7,0.32,3.93l8.09,15.76l-0.31,0.59c-0.49,0.3-0.9,0.73-1.17,1.26l-2.03,3.95
					c-0.07-0.04-0.15-0.08-0.22-0.12c-1.48-0.76-3.13-1.16-4.77-1.16c-3.94,0-7.5,2.17-9.3,5.67c-1.27,2.48-1.51,5.31-0.65,7.96
					c0.85,2.66,2.69,4.82,5.17,6.09c1.47,0.76,3.12,1.16,4.77,1.16c3.93,0,7.5-2.17,9.29-5.67l4.46-8.66l4.45,8.66
					c1.8,3.5,5.36,5.67,9.29,5.67c1.65,0,3.29-0.4,4.77-1.16c2.48-1.27,4.32-3.44,5.17-6.09c0.85-2.66,0.62-5.48-0.66-7.96
					c-1.8-3.5-5.36-5.67-9.29-5.67c-1.65,0-3.29,0.4-4.76,1.15c-0.08,0.04-0.16,0.08-0.23,0.12l-2.02-3.93
					c-0.28-0.54-0.69-0.97-1.18-1.27l-0.31-0.6l8.1-15.76c0.63-1.22,0.74-2.61,0.32-3.92c-0.42-1.31-1.33-2.38-2.55-3l-1.15-0.59
					L388.82,286.33L388.82,286.33z M395.16,327.37c-0.44,0-1.02-0.21-1.32-0.81c-0.38-0.73-0.09-1.63,0.64-2
					c0.21-0.11,0.44-0.16,0.67-0.16c0.44,0,1.02,0.21,1.33,0.81c0.18,0.35,0.21,0.76,0.09,1.13c-0.07,0.22-0.26,0.62-0.73,0.86
					C395.63,327.31,395.4,327.37,395.16,327.37L395.16,327.37z M367.68,327.37c-0.24,0-0.46-0.06-0.68-0.17
					c-0.36-0.18-0.62-0.49-0.74-0.87c-0.12-0.38-0.09-0.78,0.09-1.14c0.31-0.6,0.89-0.81,1.33-0.81c0.24,0,0.46,0.06,0.68,0.17
					c0.73,0.37,1.02,1.27,0.64,2C368.7,327.16,368.12,327.37,367.68,327.37L367.68,327.37z"/>
			</g>
			<g>
				<path class="st44" d="M392.22,293.83c0.58-1.12,0.14-2.5-0.99-3.08l-1.16-0.6l-12.71,24.74l3.19,1.64L392.22,293.83z"/>
				<path class="st35" d="M364.23,332.61c3.73,1.91,8.3,0.45,10.21-3.28l6.79-13.21c0.1-0.19,0.02-0.42-0.16-0.52l-3.29-1.69
					c-0.19-0.09-0.42-0.02-0.51,0.16l-2.76,5.37c-0.42,0.82-1.5,0.92-2.23,0.36c-0.34-0.26-0.71-0.49-1.11-0.69
					c-3.73-1.91-8.3-0.44-10.21,3.28C359.04,326.12,360.5,330.7,364.23,332.61z M369.68,322c2.14,1.1,2.98,3.72,1.88,5.85
					c-1.1,2.14-3.72,2.98-5.85,1.88c-2.13-1.09-2.98-3.71-1.88-5.85C364.93,321.75,367.55,320.9,369.68,322z"/>
				<path class="st45" d="M370.65,293.83c-0.58-1.12-0.13-2.5,0.99-3.08l1.16-0.6l12.71,24.74l-3.19,1.64L370.65,293.83z"/>
				<path class="st35" d="M401.92,322.4c-1.91-3.73-6.49-5.2-10.21-3.28c-0.39,0.2-0.76,0.43-1.11,0.69
					c-0.73,0.56-1.81,0.46-2.23-0.36l-2.76-5.37c-0.09-0.18-0.33-0.26-0.51-0.16l-3.29,1.69c-0.19,0.1-0.26,0.33-0.16,0.52
					l6.79,13.21c1.91,3.72,6.49,5.19,10.21,3.28C402.37,330.7,403.84,326.12,401.92,322.4z M399.04,323.88
					c1.1,2.13,0.26,4.76-1.88,5.85c-2.13,1.1-4.75,0.26-5.85-1.88c-1.1-2.13-0.25-4.75,1.88-5.85
					C395.33,320.9,397.95,321.75,399.04,323.88z"/>
				<path class="st44" d="M380.79,311.36c0-0.51,0.41-0.92,0.92-0.92c0.51,0,0.92,0.41,0.92,0.92c0,0.5-0.41,0.92-0.92,0.92
					C381.2,312.28,380.79,311.86,380.79,311.36z"/>
			</g>
		</g>
		<g>
			<polygon class="st46" points="546.51,419.2 525.67,284.7 555.45,300.91 555.45,419.2 			"/>
			<polygon class="st47" points="525.05,285.86 525.75,284.57 544.6,297.47 544.6,388.99 525.75,388.99 525.75,287.05 			"/>
			<rect x="525.57" y="319.65" class="st20" width="20.67" height="84.01"/>
			<polygon class="st48" points="525.05,390.27 525.05,285.86 543.9,298.75 543.9,390.27 			"/>
			<g>
				<defs>
					<polygon id="SVGID_1_" points="525.05,404.21 525.05,292.55 543.9,305.45 543.9,396.97 534.47,411.6 					"/>
				</defs>
				<clipPath id="SVGID_2_">
					<use xlink:href="#SVGID_1_"  style="overflow:visible;"/>
				</clipPath>
				<g class="st49">
					<g>
						<polygon class="st48" points="544.08,309.61 544.66,308.75 524.87,295.21 524.28,296.06 						"/>
					</g>
					<g>
						<polygon class="st48" points="544.08,319.65 544.66,318.79 524.87,305.25 524.28,306.11 						"/>
					</g>
					<g>
						<polygon class="st48" points="544.08,333.66 544.66,332.8 524.87,319.26 524.28,320.12 						"/>
					</g>
					<g>
						<polygon class="st48" points="544.08,347.67 544.66,346.81 524.87,333.27 524.28,334.13 						"/>
					</g>
					<g>
						<polygon class="st48" points="544.08,361.68 544.66,360.82 524.87,347.28 524.28,348.14 						"/>
					</g>
					<g>
						
							<rect x="533.95" y="356.5" transform="matrix(0.5635 -0.8261 0.8261 0.5635 -71.1242 602.3644)" class="st48" width="1.04" height="23.98"/>
					</g>
					<g>
						<polygon class="st48" points="544.08,389.7 544.66,388.84 524.87,375.3 524.28,376.16 						"/>
					</g>
				</g>
			</g>
			<path class="st50" d="M525.57,402.52c0.12,0.39,0.26,0.76,0.39,1.14h7.57c-1.28-2.36-2.02-5.06-2.02-7.93v-68.27
				c0-1.21,0.98-2.19,2.19-2.19h8.84c1.21,0,2.19,0.98,2.19,2.19v76.21h1.5v-84.01h-20.67V402.52z"/>
			<path class="st24" d="M549.15,416.84h-3.47c-13.04,0-23.65-10.61-23.65-23.64v-75.22c0-0.58,0.23-1.14,0.64-1.55
				c0.41-0.41,0.97-0.64,1.55-0.64l22.74,0c1.21,0,2.19,0.98,2.19,2.19V416.84z M531.17,322.73c-0.58,0-1.14,0.23-1.55,0.64
				c-0.41,0.41-0.64,0.97-0.64,1.55l0,68.27c0,8.02,5.68,14.73,13.23,16.33l0-84.6c0-1.21-0.98-2.19-2.19-2.19L531.17,322.73z"/>
			<path class="st24" d="M523.49,398.3c-0.47,0-0.91,0.22-1.19,0.6c-0.28,0.38-0.37,0.86-0.23,1.31
				c3.03,10.17,12.46,17.61,23.6,17.61h2.97c0.82,0,1.49-0.67,1.49-1.49v-16.55c0-0.82-0.67-1.49-1.49-1.49L523.49,398.3z"/>
			<rect x="520.65" y="361.6" class="st50" width="29.8" height="9.3"/>
			<rect x="520.46" y="356.3" class="st24" width="30.26" height="9.3"/>
		</g>
		<g>
			<polygon class="st46" points="578.18,419.2 578.01,292.15 587.12,300.91 587.12,419.2 			"/>
			<g>
				<g>
					<g>
						<polygon class="st35" points="569.02,312.86 569.02,302.87 576.78,295.11 576.78,312.86 						"/>
						<path class="st11" d="M575.28,298.73v12.62h-4.76v-7.86L575.28,298.73 M578.28,291.49l-5.12,5.12l-4.76,4.76l-0.88,0.88v1.24
							v7.86v3h3h4.76h3v-3v-12.62V291.49L578.28,291.49z"/>
					</g>
				</g>
			</g>
			<rect x="564.45" y="312.7" class="st20" width="16.76" height="88.64"/>
			<rect x="565.82" y="319.38" class="st35" width="14.03" height="80.42"/>
			<rect x="564.45" y="401.2" class="st20" width="16.76" height="7.42"/>
			<g>
				<g>
					<g>
						<polygon class="st35" points="566.78,417.76 566.78,409.04 578.84,409.02 578.84,417.76 						"/>
						<path class="st11" d="M577.34,410.52v5.73h-9.05v-5.72L577.34,410.52 M580.34,407.52l-3,0.01l-9.06,0.02l-2.99,0.01v2.99v5.72
							v3h3h9.05h3v-3v-5.73V407.52L580.34,407.52z"/>
					</g>
				</g>
			</g>
		</g>
		<g>
			<g>
				<path class="st51" d="M400.01,341.53h-22.12c-2.05,0-3.71,1.66-3.71,3.71v14.26c0,0.93,0.76,1.68,1.68,1.68h26.17
					c0.93,0,1.69-0.75,1.69-1.68v-14.26C403.72,343.19,402.05,341.53,400.01,341.53z"/>
				<path class="st11" d="M399.95,353.97c0,2.14-1.74,3.88-3.88,3.88c-2.14,0-3.87-1.73-3.87-3.88c0-2.14,1.73-3.87,3.87-3.87
					C398.22,350.09,399.95,351.83,399.95,353.97z"/>
				<path class="st11" d="M384.17,353.97c0,1.68-1.36,3.03-3.03,3.03c-1.67,0-3.03-1.36-3.03-3.03c0-1.67,1.36-3.03,3.03-3.03
					C382.82,350.94,384.17,352.29,384.17,353.97z"/>
			</g>
		</g>
		<g>
			<g>
				<path class="st52" d="M324.82,416.95c-2.71,0-3.68-4.42-3.68-8.2c0-3.78,0.96-8.2,3.67-8.2h2.25v-42.12l9.79-12.73l1.55-9.61
					h10.15l1.55,9.61l9.79,12.73v42.12h2.25c2.72,0.01,3.68,4.42,3.68,8.2c0,3.78-0.96,8.19-3.67,8.2h0H324.82z"/>
				<path class="st11" d="M347.33,337.53l1.42,8.77l2.04,2.65h0l7.68,9.99v43.06h3.68c1.24,0,2.25,3.03,2.25,6.77
					c0,3.74-1.01,6.76-2.25,6.77h-37.32h0c-1.24,0-2.25-3.03-2.25-6.77c0-3.74,1-6.77,2.25-6.77h0h3.67v-7.28v-27.33v-8.45
					l7.68-9.99h0l2.03-2.65l1.42-8.77C347.26,337.53,344.21,337.53,347.33,337.53 M349.77,334.67h-2.43h-7.71h-2.43l-0.39,2.4
					l-1.3,8.05l-1.59,2.07l-7.68,9.99l-0.59,0.77v0.97v8.45v27.33v4.42h-0.82c-3.76,0-5.11,4.97-5.11,9.63
					c0,4.65,1.34,9.63,5.1,9.63h37.32c3.77-0.01,5.11-4.98,5.11-9.63c0-4.64-1.34-9.61-5.1-9.63h-0.83v-40.2v-0.97l-0.59-0.77
					l-7.68-9.99l-1.59-2.07l-1.3-8.05L349.77,334.67L349.77,334.67z"/>
			</g>
			<g>
				<path class="st53" d="M358.46,414.27v-55.18l-9.71-12.63l-1.42-8.77c-3.12,0-0.07,0-7.71,0l-1.42,8.77l-9.71,12.63v55.18H358.46
					z"/>
				<g>
					<polygon class="st11" points="336.53,347.88 338.41,336.26 348.55,336.26 350.43,347.88 					"/>
					<path class="st11" d="M347.33,337.69l1.42,8.77H338.2l1.42-8.77C347.26,337.69,344.21,337.69,347.33,337.69 M349.77,334.83
						h-2.43h-7.71h-2.43l-0.39,2.4l-1.42,8.77l-0.54,3.31h3.36h10.55h3.36l-0.54-3.31l-1.42-8.77L349.77,334.83L349.77,334.83z"/>
				</g>
				<rect x="328.95" y="359.27" class="st54" width="29.07" height="52.67"/>
				<g>
					<rect x="327.68" y="366.23" class="st34" width="31.86" height="26.07"/>
					<path class="st11" d="M358.23,367.54v23.45h-29.24v-23.45H358.23 M360.85,364.92h-2.62h-29.24h-2.62v2.62v23.45v2.62h2.62
						h29.24h2.62v-2.62v-23.45V364.92L360.85,364.92z"/>
				</g>
				<rect x="331.2" y="370.24" class="st55" width="24.88" height="4.9"/>
				<rect x="331.2" y="386" class="st55" width="24.88" height="1.81"/>
				<rect x="331.2" y="382.16" class="st55" width="24.88" height="1.81"/>
				<g>
					<path class="st22" d="M324.82,417.11c-2.71,0-3.68-4.42-3.68-8.2c0-3.78,0.96-8.2,3.67-8.2h37.32c2.72,0.01,3.68,4.42,3.68,8.2
						c0,3.78-0.96,8.19-3.67,8.2h0H324.82z"/>
					<path class="st11" d="M362.14,402.15c1.24,0,2.25,3.03,2.25,6.77c0,3.74-1.01,6.76-2.25,6.77h-37.32h0
						c-1.24,0-2.25-3.03-2.25-6.77c0-3.74,1-6.77,2.25-6.77h0H362.14 M362.14,399.29h-37.32c-3.76,0-5.11,4.97-5.11,9.63
						c0,4.65,1.34,9.63,5.1,9.63h37.32c3.77-0.01,5.11-4.98,5.11-9.63C367.25,404.27,365.91,399.3,362.14,399.29L362.14,399.29
						L362.14,399.29z"/>
				</g>
			</g>
		</g>
		<g>
			<g class="st56">
				<polygon class="st11" points="421.88,293.84 494.99,293.84 508.4,307.12 508.4,420.03 419.63,420.03 416.39,417.19 				"/>
			</g>
			<g>
				<polygon class="st18" points="417.78,290.26 489.57,290.26 504.3,305 504.3,415.84 417.78,415.84 				"/>
			</g>
			<g>
				<polygon class="st57" points="488.91,305.63 502.82,305.63 488.91,291.72 				"/>
			</g>
		</g>
		<g>
			<g>
				<g>
					<polygon class="st58" points="319.79,297.64 315.45,296.6 319.79,295.47 327.92,295.47 327.92,297.64 					"/>
				</g>
			</g>
			<g>
				<path class="st35" d="M340.42,291.1c-0.93,0-1.68,0.75-1.68,1.68V293H331v-1.19c0-0.93-0.75-1.68-1.68-1.68
					c-0.93,0-1.68,0.75-1.68,1.68v9.48c0,0.93,0.75,1.68,1.68,1.68c0.93,0,1.68-0.75,1.68-1.68v-1.18h7.74v0.22
					c0,0.93,0.75,1.68,1.68,1.68c0.93,0,1.68-0.75,1.68-1.68v-0.22V293v-0.22C342.1,291.85,341.35,291.1,340.42,291.1z"/>
			</g>
		</g>
		<g>
			<g>
				<g>
					<polygon class="st58" points="319.79,316.5 315.45,315.47 319.79,314.33 327.92,314.33 327.92,316.5 					"/>
				</g>
			</g>
			<g>
				<path class="st34" d="M340.42,309.96c-0.93,0-1.68,0.75-1.68,1.68v0.22H331v-1.19c0-0.93-0.75-1.68-1.68-1.68
					c-0.93,0-1.68,0.75-1.68,1.68v9.48c0,0.93,0.75,1.68,1.68,1.68c0.93,0,1.68-0.75,1.68-1.68v-1.18h7.74v0.22
					c0,0.93,0.75,1.68,1.68,1.68c0.93,0,1.68-0.75,1.68-1.68v-0.22v-7.11v-0.22C342.1,310.72,341.35,309.96,340.42,309.96z"/>
			</g>
		</g>
		<g>
			<g>
				<path class="st22" d="M380.68,417.1c-1.29,0-2.35-1.05-2.35-2.35v-42.7c0-1.23,1.21-2.78,2.56-2.78h18.74
					c1.59,0,2.78,1.47,2.78,2.78v42.7c0,1.29-1.05,2.35-2.35,2.35H380.68z"/>
				<path class="st11" d="M399.64,370.71c0.79,0,1.35,0.85,1.35,1.35v42.7c0,0.51-0.41,0.92-0.92,0.92h-19.4
					c-0.51,0-0.92-0.41-0.92-0.92v-42.7c0-0.51,0.63-1.35,1.13-1.35H399.64 M399.64,367.85H380.9c-2.25,0-3.99,2.26-3.99,4.21v42.7
					c0,2.08,1.69,3.78,3.78,3.78h19.4c2.08,0,3.77-1.69,3.77-3.78v-42.7C403.85,370.07,402.12,367.85,399.64,367.85L399.64,367.85z"
					/>
			</g>
			<path class="st10" d="M399.64,370.71H380.9c-0.51,0-1.13,0.85-1.13,1.35v15.44H401v-15.44
				C401,371.55,400.44,370.71,399.64,370.71z"/>
			<rect x="387.99" y="390.35" class="st10" width="4.77" height="20.04"/>
		</g>
	</g>
</g>
<g id="txt">
</g>
</svg>
