<?xml version="1.0" encoding="utf-8"?>
<!-- Generator: Adobe Illustrator 24.0.0, SVG Export Plug-In . SVG Version: 6.00 Build 0)  -->
<svg version="1.1" xmlns="http://www.w3.org/2000/svg" xmlns:xlink="http://www.w3.org/1999/xlink" x="0px" y="0px"
	 viewBox="0 0 500 297.96" style="enable-background:new 0 0 500 297.96;" xml:space="preserve">
<style type="text/css">
	.st0{display:none;}
	.st1{display:inline;fill:#FFFFFF;}
	.st2{opacity:0.5;fill:#B4B4B4;}
	.st3{fill:#FFCC60;}
	.st4{fill:none;}
	.st5{fill:#E8E8E8;}
	.st6{fill:#32404D;}
	.st7{fill:#F8F8F8;}
	.st8{fill:#808080;}
	.st9{fill:#FF787B;}
	.st10{fill:#6DA3B8;}
	.st11{fill:#B2E2F6;}
	.st12{fill:#B4B4B4;}
	.st13{fill:#E0E3E6;}
	.st14{fill:#FC7C70;}
	.st15{opacity:0.5;fill:#808080;}
	.st16{opacity:0.5;fill:#32404D;}
	.st17{fill:none;stroke:#000000;stroke-miterlimit:10;}
	.st18{fill:none;stroke:#000000;stroke-linecap:round;stroke-miterlimit:10;stroke-dasharray:7.0325,7.0325;}
	.st19{opacity:0.5;fill:#FFCC60;}
	.st20{fill:none;stroke:#000000;stroke-linecap:round;stroke-miterlimit:10;}
	.st21{opacity:0.5;fill:#FC7C70;}
	.st22{fill:#FFE5B6;}
	.st23{fill:#FC7C70;stroke:#000000;stroke-miterlimit:10;}
</style>
<g id="BACKGROUND" class="st0">
	<rect y="-136.79" class="st1" width="500" height="500"/>
</g>
<g id="OBJECTS">
	<g>
		<ellipse class="st2" cx="249.42" cy="263.16" rx="225" ry="17.05"/>
		<g>
			<g>
				<path class="st3" d="M139.27,266.21c-0.01-0.12-0.03-0.24-0.04-0.35c-0.01-0.06-0.01-0.11-0.02-0.17c0-0.02-0.01-0.04-0.01-0.07
					c-0.01-0.05-0.03-0.09-0.06-0.13c-0.01-0.02-0.03-0.03-0.04-0.05c-0.04-0.06-0.16-0.06-0.2,0c-0.01,0.02-0.03,0.03-0.04,0.05
					c-0.03,0.03-0.04,0.06-0.06,0.1c-0.01,0.03-0.01,0.07-0.01,0.09c-0.01,0.06-0.01,0.11-0.02,0.17c-0.01,0.12-0.03,0.24-0.04,0.35
					c-0.01,0.06,0.04,0.15,0.08,0.19c0.05,0.05,0.12,0.08,0.19,0.08c0.07,0,0.14-0.03,0.19-0.08
					C139.24,266.35,139.28,266.28,139.27,266.21L139.27,266.21z"/>
			</g>
		</g>
		<g>
			<g>
				<g>
					<path class="st4" d="M367,41.96c0-8.42-6.83-15.25-15.25-15.25h-204.5c-8.42,0-15.25,6.83-15.25,15.25v157.25h235V41.96z"/>
					<path class="st4" d="M132,199.21v5.25c0,8.42,6.83,15.25,15.25,15.25h204.5c8.42,0,15.25-6.83,15.25-15.25v-5.25H132z"/>
					<rect x="222.61" y="219.71" class="st4" width="53.63" height="33"/>
					<path class="st4" d="M276.48,252.71c0,0-18.57,0-26.82,0c-8.25,0-26.82,0-26.82,0s-6.13,2.85-9.52,7.69
						c-0.7,1-0.08,2.48,1.05,2.48h35.29h35.29c1.13,0,1.75-1.48,1.05-2.48C282.61,255.56,276.48,252.71,276.48,252.71z"/>
					<circle class="st4" cx="249.67" cy="209.71" r="5.25"/>
					<path class="st4" d="M141,53.21v120.25c0,8.42,6.83,15.25,15.25,15.25h186.5c8.42,0,15.25-6.83,15.25-15.25V53.21H141z"/>
					<path class="st4" d="M358,51.63c0-8.42-6.83-15.25-15.25-15.25h-186.5c-8.42,0-15.25,6.83-15.25,15.25v1.58h217V51.63z"/>
					<circle class="st4" cx="339.87" cy="44.8" r="4.72"/>
					<circle class="st4" cx="327.41" cy="44.8" r="4.72"/>
					<circle class="st4" cx="314.95" cy="44.8" r="4.72"/>
					<path class="st4" d="M317.64,125.46H181.5c-4.28,0-7.75-3.47-7.75-7.75v-49c0-4.28,3.47-7.75,7.75-7.75h136.14
						c4.28,0,7.75,3.47,7.75,7.75v49C325.39,121.99,321.92,125.46,317.64,125.46z"/>
					<path class="st4" d="M207.06,117.96h-18c-3.97,0-7.19-3.22-7.19-7.19V75.65c0-3.97,3.22-7.19,7.19-7.19h18
						c3.97,0,7.19,3.22,7.19,7.19v35.12C214.25,114.74,211.03,117.96,207.06,117.96z"/>
					<circle class="st4" cx="198.06" cy="91.49" r="7.56"/>
					<path class="st4" d="M194.1,97.93c-3.47,1.79-4.35,15.54-4.22,20.04"/>
					<path class="st4" d="M202.81,97.38c3.69,3.71,4.25,20.59,4.25,20.59"/>
					<path class="st4" d="M204.37,163.88h-24.49c-3.38,0-6.13-2.74-6.13-6.13v-17.92c0-3.38,2.74-6.13,6.13-6.13h24.49
						c3.38,0,6.13,2.74,6.13,6.13v17.92C210.49,161.14,207.75,163.88,204.37,163.88z"/>
					<path class="st4" d="M210.49,188.71h-36.74v-10.64c0-3.38,2.74-6.13,6.13-6.13h24.49c3.38,0,6.13,2.74,6.13,6.13V188.71z"/>
					<path class="st4" d="M316.81,182.88h-88.72c-4.74,0-8.58-3.84-8.58-8.58v-32c0-4.74,3.84-8.58,8.58-8.58h88.72
						c4.74,0,8.58,3.84,8.58,8.58v32C325.39,179.04,321.55,182.88,316.81,182.88z"/>
				</g>
				<g>
					<g id="XMLID_1_">
						<g>
							<path class="st5" d="M367,199.21v5.25c0,8.42-6.83,15.25-15.25,15.25h-75.51h-53.63h-75.36c-8.42,0-15.25-6.83-15.25-15.25
								v-5.25H367z M254.92,209.71c0-2.9-2.35-5.25-5.25-5.25c-2.9,0-5.25,2.35-5.25,5.25c0,2.9,2.35,5.25,5.25,5.25
								C252.57,214.96,254.92,212.61,254.92,209.71z"/>
							<path class="st6" d="M367,41.96v157.25H132V41.96c0-8.42,6.83-15.25,15.25-15.25h204.5C360.17,26.71,367,33.54,367,41.96z
								 M358,173.46V53.21v-1.58c0-8.43-6.83-15.25-15.25-15.25h-186.5c-8.42,0-15.25,6.82-15.25,15.25v1.58v120.25
								c0,8.42,6.83,15.25,15.25,15.25h17.5h36.74h132.26C351.17,188.71,358,181.88,358,173.46z"/>
							<path class="st7" d="M358,53.21v120.25c0,8.42-6.83,15.25-15.25,15.25H210.49v-10.64c0-3.38-2.74-6.12-6.12-6.12h-24.49
								c-3.39,0-6.13,2.74-6.13,6.12v10.64h-17.5c-8.42,0-15.25-6.83-15.25-15.25V53.21H358z M325.39,174.29v-32
								c0-4.74-3.84-8.58-8.58-8.58h-88.73c-4.74,0-8.58,3.84-8.58,8.58v32c0,4.74,3.84,8.59,8.58,8.59h88.73
								C321.55,182.88,325.39,179.03,325.39,174.29z M325.39,117.71v-49c0-4.28-3.47-7.75-7.75-7.75H181.5
								c-4.28,0-7.75,3.47-7.75,7.75v49c0,4.28,3.47,7.75,7.75,7.75h136.14C321.92,125.46,325.39,121.99,325.39,117.71z
								 M210.49,157.75v-17.92c0-3.38-2.74-6.12-6.12-6.12h-24.49c-3.39,0-6.13,2.74-6.13,6.12v17.92c0,3.38,2.74,6.13,6.13,6.13
								h24.49C207.75,163.88,210.49,161.13,210.49,157.75z"/>
							<path class="st8" d="M358,51.63v1.58H141v-1.58c0-8.43,6.83-15.25,15.25-15.25h186.5C351.17,36.38,358,43.2,358,51.63z
								 M344.59,44.79c0-2.6-2.11-4.71-4.72-4.71c-2.6,0-4.71,2.11-4.71,4.71c0,2.61,2.11,4.72,4.71,4.72
								C342.48,49.51,344.59,47.4,344.59,44.79z M332.13,44.79c0-2.6-2.11-4.71-4.72-4.71c-2.6,0-4.72,2.11-4.72,4.71
								c0,2.61,2.12,4.72,4.72,4.72C330.02,49.51,332.13,47.4,332.13,44.79z M319.66,44.79c0-2.6-2.11-4.71-4.71-4.71
								c-2.61,0-4.72,2.11-4.72,4.71c0,2.61,2.11,4.72,4.72,4.72C317.55,49.51,319.66,47.4,319.66,44.79z"/>
							<path class="st9" d="M339.87,40.08c2.61,0,4.72,2.11,4.72,4.71c0,2.61-2.11,4.72-4.72,4.72c-2.6,0-4.71-2.11-4.71-4.72
								C335.16,42.19,337.27,40.08,339.87,40.08z"/>
							<path class="st10" d="M327.41,40.08c2.61,0,4.72,2.11,4.72,4.71c0,2.61-2.11,4.72-4.72,4.72c-2.6,0-4.72-2.11-4.72-4.72
								C322.69,42.19,324.81,40.08,327.41,40.08z"/>
							<path class="st8" d="M325.39,142.29v32c0,4.74-3.84,8.59-8.58,8.59h-88.73c-4.74,0-8.58-3.85-8.58-8.59v-32
								c0-4.74,3.84-8.58,8.58-8.58h88.73C321.55,133.71,325.39,137.55,325.39,142.29z"/>
							<path class="st11" d="M325.39,68.71v49c0,4.28-3.47,7.75-7.75,7.75H181.5c-4.28,0-7.75-3.47-7.75-7.75v-49
								c0-4.28,3.47-7.75,7.75-7.75h136.14C321.92,60.96,325.39,64.43,325.39,68.71z M214.25,110.77V75.65
								c0-3.97-3.22-7.19-7.19-7.19h-18c-3.97,0-7.19,3.22-7.19,7.19v35.12c0,3.97,3.22,7.19,7.19,7.19h0.82h17.18
								C211.03,117.96,214.25,114.74,214.25,110.77z"/>
							<path class="st3" d="M314.95,40.08c2.6,0,4.71,2.11,4.71,4.71c0,2.61-2.11,4.72-4.71,4.72c-2.61,0-4.72-2.11-4.72-4.72
								C310.23,42.19,312.34,40.08,314.95,40.08z"/>
							<path class="st5" d="M286.01,260.4c0.7,1,0.08,2.48-1.05,2.48h-35.29h-35.29c-1.13,0-1.75-1.48-1.05-2.48
								c3.39-4.84,9.52-7.69,9.52-7.69s18.57,0,26.82,0c7.7,0,24.37,0,26.57,0c0.16,0,0.24,0,0.24,0S282.61,255.56,286.01,260.4z"/>
							<path class="st12" d="M276.24,219.71v33c-2.2,0-18.87,0-26.57,0c-8.25,0-26.82,0-26.82,0h-0.24v-33H276.24z"/>
							<circle class="st6" cx="249.67" cy="209.71" r="5.25"/>
							<path class="st13" d="M214.25,75.65v35.12c0,3.97-3.22,7.19-7.19,7.19c0,0-0.56-16.87-4.25-20.59
								c1.72-1.38,2.81-3.5,2.81-5.88c0-4.18-3.38-7.56-7.56-7.56c-4.18,0-7.56,3.38-7.56,7.56c0,2.73,1.44,5.11,3.6,6.43
								c-3.48,1.79-4.35,15.54-4.22,20.04h-0.82c-3.97,0-7.19-3.22-7.19-7.19V75.65c0-3.97,3.22-7.19,7.19-7.19h18
								C211.03,68.46,214.25,71.68,214.25,75.65z"/>
							<path class="st3" d="M210.49,178.07v10.64h-36.74v-10.64c0-3.38,2.74-6.12,6.13-6.12h24.49
								C207.75,171.95,210.49,174.69,210.49,178.07z"/>
							<path class="st14" d="M210.49,139.83v17.92c0,3.38-2.74,6.13-6.12,6.13h-24.49c-3.39,0-6.13-2.75-6.13-6.13v-17.92
								c0-3.38,2.74-6.12,6.13-6.12h24.49C207.75,133.71,210.49,136.45,210.49,139.83z"/>
							<path class="st3" d="M207.06,117.96h-17.18c-0.13-4.5,0.74-18.25,4.22-20.04c1.15,0.72,2.51,1.13,3.96,1.13
								c1.8,0,3.45-0.62,4.75-1.68C206.5,101.09,207.06,117.96,207.06,117.96z"/>
							<path class="st3" d="M198.06,83.93c4.18,0,7.56,3.38,7.56,7.56c0,2.38-1.09,4.5-2.81,5.88c-1.3,1.06-2.95,1.68-4.75,1.68
								c-1.45,0-2.81-0.41-3.96-1.13c-2.16-1.32-3.6-3.7-3.6-6.43C190.5,87.31,193.88,83.93,198.06,83.93z"/>
						</g>
						<g>
						</g>
					</g>
				</g>
				<g>
					<path class="st15" d="M163,36.38c-1.57,0-2.53,1.07-3.1,2.6c-1.91,5.14,2.08,10.59,7.57,10.73l137.43,3.5H141v-5.83l3.88-5.91
						l3.18-2.71l7.19-2.39H163z"/>
					<path class="st13" d="M155.5,52.96c0,15,0,135.75,0,135.75l-2.93-0.45c0,0-3.18-3.21-4.51-3.05c-1.33,0.16-5.42-4.88-5.42-4.88
						l-1.64-6.87V53.21L155.5,52.96z"/>
					<path class="st16" d="M138.34,29.59c0,13.37,0,186.67,0,186.67l-3.31-2.67l-2.66-5.79l-0.37-8.59V38.26l1.73-3.36L138.34,29.59
						z"/>
					<path class="st2" d="M266.13,219.71c-7.38,1.38-39.13,18.22-43.51,21.89c-0.49,0.41,0-21.89,0-21.89H266.13z"/>
					<path class="st5" d="M235.38,252.71c-3.5,0-9.5,7.53-9.25,9.83c0.06,0.6-12.59,0-12.59,0l-0.44-0.72l0.23-1.42l4.6-4.64
						l4.68-3.05H235.38z"/>
				</g>
				<g>
					<path class="st17" d="M367,41.96c0-8.42-6.83-15.25-15.25-15.25h-204.5c-8.42,0-15.25,6.83-15.25,15.25v157.25h235V41.96z"/>
					<path class="st17" d="M132,199.21v5.25c0,8.42,6.83,15.25,15.25,15.25h204.5c8.42,0,15.25-6.83,15.25-15.25v-5.25H132z"/>
					<rect x="222.61" y="219.71" class="st17" width="53.63" height="33"/>
					<path class="st17" d="M276.48,252.71c0,0-18.57,0-26.82,0c-8.25,0-26.82,0-26.82,0s-6.13,2.85-9.52,7.69
						c-0.7,1-0.08,2.48,1.05,2.48h35.29h35.29c1.13,0,1.75-1.48,1.05-2.48C282.61,255.56,276.48,252.71,276.48,252.71z"/>
					<circle class="st17" cx="249.67" cy="209.71" r="5.25"/>
					<path class="st17" d="M141,53.21v120.25c0,8.42,6.83,15.25,15.25,15.25h186.5c8.42,0,15.25-6.83,15.25-15.25V53.21H141z"/>
					<path class="st17" d="M358,51.63c0-8.42-6.83-15.25-15.25-15.25h-186.5c-8.42,0-15.25,6.83-15.25,15.25v1.58h217V51.63z"/>
					<circle class="st17" cx="339.87" cy="44.8" r="4.72"/>
					<circle class="st17" cx="327.41" cy="44.8" r="4.72"/>
					<circle class="st17" cx="314.95" cy="44.8" r="4.72"/>
					<path class="st17" d="M317.64,125.46H181.5c-4.28,0-7.75-3.47-7.75-7.75v-49c0-4.28,3.47-7.75,7.75-7.75h136.14
						c4.28,0,7.75,3.47,7.75,7.75v49C325.39,121.99,321.92,125.46,317.64,125.46z"/>
					<path class="st17" d="M207.06,117.96h-18c-3.97,0-7.19-3.22-7.19-7.19V75.65c0-3.97,3.22-7.19,7.19-7.19h18
						c3.97,0,7.19,3.22,7.19,7.19v35.12C214.25,114.74,211.03,117.96,207.06,117.96z"/>
					<circle class="st17" cx="198.06" cy="91.49" r="7.56"/>
					<path class="st17" d="M194.1,97.93c-3.47,1.79-4.35,15.54-4.22,20.04"/>
					<path class="st17" d="M202.81,97.38c3.69,3.71,4.25,20.59,4.25,20.59"/>
					<path class="st17" d="M204.37,163.88h-24.49c-3.38,0-6.13-2.74-6.13-6.13v-17.92c0-3.38,2.74-6.13,6.13-6.13h24.49
						c3.38,0,6.13,2.74,6.13,6.13v17.92C210.49,161.14,207.75,163.88,204.37,163.88z"/>
					<path class="st17" d="M210.49,188.71h-36.74v-10.64c0-3.38,2.74-6.13,6.13-6.13h24.49c3.38,0,6.13,2.74,6.13,6.13V188.71z"/>
					<g>
						<path class="st18" d="M316.81,182.88h-88.72c-4.74,0-8.58-3.84-8.58-8.58v-32c0-4.74,3.84-8.58,8.58-8.58h88.72
							c4.74,0,8.58,3.84,8.58,8.58v32C325.39,179.04,321.55,182.88,316.81,182.88z"/>
					</g>
					<g>
						<g>
							<path d="M224.53,138.86c5.31,2.46,10.63,4.91,15.97,7.3c7.05,3.16,14.13,6.29,21.22,9.37c7.47,3.24,14.95,6.47,22.44,9.67
								c6.6,2.82,13.2,5.62,19.83,8.37c4.4,1.82,8.81,3.66,13.27,5.34c0.33,0.12,0.65,0.24,0.98,0.36c0.84,0.3,1.21-1.04,0.37-1.34
								c-4.09-1.48-8.11-3.17-12.13-4.83c-6.41-2.64-12.79-5.34-19.17-8.04c-7.44-3.15-14.87-6.33-22.29-9.52
								c-7.22-3.11-14.45-6.22-21.67-9.32c-5.63-2.42-11.28-4.8-16.89-7.26c-0.52-0.23-1.04-0.46-1.56-0.69
								C224.48,138.09,224.13,138.67,224.53,138.86L224.53,138.86z"/>
						</g>
					</g>
					<g>
						<g>
							<path d="M319.21,139.27c-3.09,0.78-6.08,2.02-9.07,3.12c-3.23,1.2-6.45,2.44-9.66,3.7c-6.87,2.7-13.69,5.52-20.49,8.39
								c-6.78,2.86-13.54,5.77-20.27,8.74c-6.02,2.65-12.02,5.34-18,8.07c-4.56,2.08-9.11,4.18-13.64,6.34
								c-0.44,0.21-0.88,0.42-1.32,0.63c-0.87,0.42-0.11,1.71,0.76,1.3c4.32-2.07,8.66-4.09,13.01-6.08
								c5.82-2.67,11.65-5.29,17.5-7.88c6.68-2.96,13.37-5.88,20.08-8.75c6.8-2.9,13.62-5.73,20.47-8.51
								c6.28-2.55,12.62-4.95,18.93-7.42c0.69-0.27,1.37-0.55,2.04-0.87C320,139.85,319.67,139.15,319.21,139.27L319.21,139.27z"/>
						</g>
					</g>
					<g>
						<g>
							<path d="M191.43,101.2c-0.44,0.4-1.43-0.22-1.83-0.44c-0.54-0.29-1.03-0.64-1.48-1.06c-0.88-0.81-1.59-1.81-2.08-2.91
								c-0.57-1.27-0.81-2.67-0.81-4.05c-0.01-1.54,0.34-3,0.6-4.51c0.05-0.3-0.38-0.54-0.53-0.22c-1.42,2.99-1.26,6.99,0.34,9.88
								c0.69,1.25,1.67,2.33,2.87,3.11c0.72,0.47,2.67,1.62,3.28,0.48C191.92,101.25,191.63,101.03,191.43,101.2L191.43,101.2z"/>
						</g>
					</g>
					<g>
						<g>
							<path d="M185.93,88.31c0.57-0.71,1.12-1.45,1.75-2.11c0.15-0.15,0.43-0.42,0.3-0.65c-0.17-0.28-0.52,0.01-0.66,0.16
								c-0.32,0.34-0.63,0.71-0.89,1.09c-0.14,0.21-0.28,0.43-0.41,0.65c-0.13,0.23-0.23,0.47-0.33,0.72
								C185.64,88.3,185.84,88.42,185.93,88.31L185.93,88.31z"/>
						</g>
					</g>
					<g>
						<g>
							<path d="M185.68,88.22c-0.03-0.44-0.05-0.89-0.11-1.33c-0.03-0.22-0.04-0.46-0.09-0.68c-0.04-0.2-0.1-0.58-0.38-0.54
								c-0.28,0.04-0.24,0.42-0.22,0.63c0.02,0.23,0.07,0.45,0.1,0.68c0.07,0.44,0.16,0.87,0.26,1.31
								C185.29,88.53,185.7,88.48,185.68,88.22L185.68,88.22z"/>
						</g>
					</g>
					<g>
						<g>
							<path d="M185.34,87.57c-0.25-0.12-0.48-0.26-0.7-0.42c-0.05-0.04-0.1-0.07-0.15-0.11c-0.04-0.03,0.05,0.04,0.01,0.01
								c-0.01-0.01-0.02-0.02-0.03-0.02c-0.03-0.03-0.07-0.05-0.1-0.08c-0.02-0.02-0.15-0.12-0.09-0.08c0.04,0.03-0.01,0-0.01-0.01
								c-0.01-0.01-0.02-0.02-0.03-0.02c-0.06-0.05-0.11-0.09-0.17-0.14c-0.07-0.06-0.13-0.1-0.22-0.12c-0.02,0-0.04-0.01-0.06-0.01
								c0.07,0,0.04,0.01,0.02,0c-0.09-0.04-0.2-0.05-0.28,0.01c-0.09,0.07-0.09,0.18-0.07,0.28c0,0.02,0.03,0.11,0.01,0.03
								c0.01,0.04-0.01,0.04,0.01,0.11c0.02,0.06,0.05,0.1,0.09,0.15c0.19,0.23,0.41,0.42,0.66,0.59c0.27,0.19,0.56,0.33,0.87,0.45
								c0.15,0.06,0.33-0.05,0.38-0.19C185.53,87.84,185.49,87.64,185.34,87.57L185.34,87.57z"/>
						</g>
					</g>
					<rect x="224.7" y="67.05" class="st3" width="91.25" height="3.19"/>
					<rect x="177.32" y="138.95" class="st11" width="30.52" height="3.19"/>
					<rect x="177.32" y="146.46" class="st11" width="30.52" height="3.19"/>
					<rect x="177.32" y="176.54" class="st5" width="30.52" height="3.19"/>
					<rect x="177.32" y="184.05" class="st5" width="30.52" height="3.19"/>
					<rect x="177.32" y="153.96" class="st11" width="30.52" height="3.19"/>
					<rect x="224.7" y="76.45" class="st3" width="91.25" height="3.19"/>
					<rect x="224.7" y="85.85" class="st3" width="91.25" height="3.19"/>
					<rect x="224.7" y="95.25" class="st3" width="91.25" height="3.19"/>
					<rect x="224.7" y="104.65" class="st3" width="91.25" height="3.19"/>
					<rect x="224.7" y="114.05" class="st3" width="91.25" height="3.19"/>
				</g>
			</g>
			<g>
				<g>
					<g id="XMLID_2_">
						<g>
							<path class="st12" d="M164.54,160.72c0.45,2.65-0.23,5.41-1.51,7.79c-3.17,5.89-10.32,9.19-16.87,8.28
								c-1.21-0.16-2.39-0.47-3.52-0.93c-2.25-0.91-4.23-2.38-5.82-4.2c-3.6-4.1-5.23-9.98-3.76-15.26c0.39-1.39,0.96-2.73,1.78-3.9
								c2.53-3.6,7.85-6.82,12.61-4.79c0.01,0,0.01,0.01,0.01,0.01c0.05,0.04,0.1,0.08,0.15,0.13l-0.05,0.04
								c-1.51,0.01-2.97,0.75-4.02,1.84c-1.04,1.11-1.69,2.54-2.02,4.01c-0.46,2.1-0.27,4.45,1.06,6.15
								c0.76,0.98,1.84,1.66,2.95,2.23c1.24,0.62,2.54,1.13,3.89,1.49c1.63,0.42,3.36,0.65,5,0.26c1.98-0.47,3.68-1.79,4.9-3.41
								c0.64-0.86,1.18-1.84,1.37-2.89c0.19-1.03,0.01-2.15-0.6-2.99c0.13,0.06,0.26,0.12,0.38,0.19
								C162.65,155.96,164.11,158.28,164.54,160.72z"/>
							<path class="st5" d="M160.1,154.59c0.61,0.84,0.79,1.95,0.6,2.99c-0.19,1.05-0.72,2.03-1.37,2.89
								c-1.22,1.62-2.91,2.95-4.9,3.41c-1.64,0.39-3.37,0.16-5-0.26c-1.35-0.36-2.65-0.86-3.89-1.49c-1.11-0.57-2.19-1.25-2.95-2.23
								c-1.32-1.7-1.52-4.05-1.06-6.15c0.33-1.47,0.98-2.91,2.02-4.01c1.04-1.09,2.51-1.83,4.02-1.84l0.05-0.04
								c0.47,0.45,0.89,1.08,0.76,1.42c-0.18,0.46-0.62,0.76-1.02,1.07c-1.02,0.8-1.87,1.88-2.26,3.12
								c-0.39,1.25-0.3,2.67,0.39,3.78c0.5,0.82,1.28,1.42,2.05,1.98c0.73,0.53,1.5,1.03,2.36,1.33c1.23,0.43,2.57,0.4,3.86,0.22
								c0.96-0.13,1.94-0.37,2.72-0.96c1.36-1.02,1.77-2.84,2.08-4.5c0.05-0.28,0.17-0.53,0.32-0.77c0.31-0.52,1.48-0.02,1.59,0.23
								l0,0.01C160.36,154.71,160.23,154.65,160.1,154.59z"/>
							<path class="st8" d="M146.16,176.79l-14.53,30.77l-1.73-0.82c0.18-0.33,0.31-0.69,0.38-1.08c0.39-2.04-0.95-4.03-3-4.42
								c-1.66-0.32-3.27,0.51-4.04,1.94l-1.3-0.62l14.88-30.89c1.59,1.82,3.57,3.29,5.82,4.2
								C143.78,176.33,144.95,176.63,146.16,176.79z"/>
							<path class="st8" d="M131.63,207.56l-15.89,33.66c-1.57-1.73-3.49-3.12-5.67-3.98c-1.39-0.55-2.86-0.88-4.34-1l16.22-33.67
								l1.3,0.62c-0.17,0.32-0.3,0.69-0.38,1.07c-0.39,2.05,0.95,4.03,2.99,4.42c1.67,0.32,3.28-0.51,4.04-1.93L131.63,207.56z"/>
							<path class="st14" d="M130.28,205.67c-0.07,0.38-0.2,0.75-0.38,1.08c-0.76,1.41-2.37,2.24-4.04,1.93
								c-2.04-0.39-3.39-2.37-2.99-4.42c0.07-0.38,0.2-0.75,0.38-1.07c0.76-1.42,2.38-2.25,4.04-1.94
								C129.33,201.64,130.67,203.62,130.28,205.67z"/>
							<path class="st12" d="M115.73,241.23c3.72,4.08,5.45,10.05,3.98,15.41c-0.38,1.38-0.95,2.73-1.76,3.91
								c-2.52,3.62-7.85,6.87-12.62,4.82c-0.04-0.04-0.09-0.08-0.13-0.12l0.04-0.04c1.52-0.01,2.97-0.76,4.01-1.86
								c1.04-1.11,1.68-2.54,2-4.02c0.46-2.1,0.25-4.45-1.08-6.14c-0.76-0.98-1.85-1.66-2.96-2.21c-1.24-0.62-2.56-1.12-3.9-1.47
								c-1.63-0.42-3.36-0.64-5-0.24c-1.97,0.47-3.66,1.8-4.87,3.44c-0.64,0.86-1.17,1.83-1.37,2.89c-0.18,1.04,0,2.15,0.62,2.98
								c-0.13-0.06-0.26-0.12-0.38-0.18c-2.17-1.16-3.65-3.48-4.08-5.92c-0.46-2.65,0.2-5.42,1.47-7.79
								c3.01-5.66,9.69-8.96,16.03-8.44c1.48,0.12,2.95,0.45,4.34,1C112.25,238.1,114.16,239.49,115.73,241.23L115.73,241.23z"/>
							<path class="st5" d="M92.69,258.57c-0.63-0.83-0.8-1.94-0.62-2.98c0.19-1.06,0.72-2.03,1.37-2.89
								c1.21-1.63,2.9-2.97,4.87-3.44c1.64-0.4,3.37-0.18,5,0.24c1.35,0.35,2.66,0.84,3.9,1.47c1.11,0.56,2.2,1.23,2.96,2.21
								c1.33,1.69,1.54,4.04,1.08,6.14c-0.32,1.48-0.96,2.91-2,4.02c-1.04,1.11-2.49,1.86-4.01,1.86l-0.04,0.04
								c-0.47-0.45-0.9-1.08-0.77-1.42c0.18-0.45,0.62-0.76,1.01-1.07c1.03-0.8,1.87-1.88,2.25-3.13c0.39-1.25,0.28-2.66-0.4-3.77
								c-0.51-0.82-1.28-1.41-2.07-1.97c-0.74-0.52-1.52-1.02-2.37-1.32c-1.22-0.42-2.57-0.39-3.86-0.2
								c-0.96,0.14-1.94,0.38-2.71,0.97c-1.35,1.03-1.75,2.84-2.05,4.51c-0.05,0.28-0.17,0.53-0.32,0.77
								c-0.32,0.53-1.48,0.03-1.6-0.22C92.43,258.45,92.56,258.52,92.69,258.57z"/>
						</g>
						<g>
						</g>
					</g>
				</g>
				<g>
					<path class="st2" d="M146.24,147.32c-4.92-0.1-13.89,24.65,3.84,29.57c-3.24,0.06-5.86-0.49-5.86-0.49l-6.31-3.6l-3.23-4.19
						l-1.66-4.22l-0.37-6.05l2.21-5.82l2.16-2.22l3.51-2.38l2.26-0.67L146.24,147.32z"/>
					<polygon class="st15" points="139.13,173.84 110.06,237.23 105.72,236.23 137.08,171.72 					"/>
					<path class="st2" d="M116.62,242.27c-6.07-6.1-27.59-0.23-24.31,16.12c-1.86-1.44-3.52-4.01-3.52-4.01l-0.71-4.69l1.62-5.01
						l3.02-3.9l5.26-3.33l6.45-1.56l5.63,1.34L116.62,242.27z"/>
				</g>
				<g>
					<g>
						<g>
							<g>
								<path d="M147.84,147.67c-2.57-1.45-5.71-0.99-8.27,0.25c-2.6,1.25-4.89,3.39-6.16,6c-2.46,5.07-1.73,11.16,1.18,15.88
									c2.85,4.61,7.67,7.63,13.13,7.84c5.31,0.2,10.82-2.13,14.19-6.27c2.17-2.67,3.7-6.27,3.3-9.77c-0.18-1.6-0.7-3.17-1.6-4.51
									c-0.91-1.35-2.08-2.28-3.63-2.78c-0.23-0.07-0.37,0.27-0.16,0.39c2.36,1.36,4.08,3.95,4.26,6.68
									c0.19,2.98-0.82,5.91-2.55,8.31c-2.8,3.88-7.55,6.29-12.29,6.55c-4.91,0.27-9.46-1.88-12.5-5.73
									c-2.97-3.76-4.33-8.91-3.19-13.6c0.76-3.14,2.63-5.8,5.31-7.6c1.27-0.85,2.68-1.49,4.19-1.75c1.58-0.27,3.14-0.03,4.64,0.5
									C147.91,148.13,148.04,147.78,147.84,147.67L147.84,147.67z"/>
							</g>
						</g>
						<g>
							<g>
								<path d="M147.09,147.51c0.33,0.34,0.58,0.7,0.79,1.12c0.11,0.22,0.23,0.4,0.11,0.64c-0.13,0.29-0.51,0.5-0.75,0.68
									c-0.84,0.61-1.57,1.31-2.1,2.2c-1.12,1.88-1.12,4.29,0.28,6.03c0.69,0.86,1.65,1.55,2.58,2.14
									c0.99,0.63,2.08,1.06,3.25,1.18c1.17,0.11,2.35-0.14,3.46-0.45c1.04-0.29,1.95-0.77,2.63-1.63
									c0.63-0.79,0.97-1.79,1.22-2.76c0.14-0.54,0.14-1.16,0.32-1.68c0.17-0.48,0.52-0.55,0.96-0.41
									c0.18,0.06,0.44,0.15,0.56,0.29c0.09,0.09,0.21-0.03,0.17-0.13c-0.2-0.44-0.93-0.64-1.37-0.56
									c-0.75,0.14-0.94,1.29-1.07,1.89c-0.23,1.07-0.55,2.16-1.29,2.99c-0.82,0.92-2.12,1.2-3.31,1.24
									c-1.31,0.05-2.68,0.03-3.89-0.53c-1.02-0.47-2.06-1.17-2.89-1.93c-1.93-1.77-1.56-4.51,0.05-6.37
									c0.41-0.47,0.88-0.84,1.32-1.26c0.29-0.29,0.62-0.68,0.59-1.12c-0.05-0.79-0.94-1.4-1.6-1.66
									C147.09,147.41,147.06,147.48,147.09,147.51L147.09,147.51z"/>
							</g>
						</g>
						<g>
							<g>
								<path d="M147.58,147.76c-5.72-0.13-8.52,8.13-5.5,12.33c0.86,1.19,2.09,1.99,3.39,2.63c1.42,0.7,2.94,1.28,4.5,1.58
									c2.96,0.58,5.85,0.01,8.13-2.01c2.11-1.86,3.99-5.22,2.09-7.87c-0.13-0.18-0.44,0-0.3,0.18c1.74,2.27-0.13,5.15-1.83,6.82
									c-0.87,0.85-1.89,1.54-3.06,1.91c-1.32,0.43-2.72,0.35-4.07,0.08c-2.49-0.49-5.31-1.44-7.25-3.14
									c-1.85-1.62-2.22-4.2-1.72-6.51c0.61-2.86,2.51-5.5,5.62-5.72C147.76,148.03,147.76,147.76,147.58,147.76L147.58,147.76z"/>
							</g>
						</g>
					</g>
					<g>
						<g>
							<g>
								<path d="M104.98,265.44c2.58,1.44,5.72,0.96,8.27-0.28c2.6-1.26,4.88-3.41,6.13-6.02c2.44-5.08,1.69-11.16-1.25-15.87
									c-2.87-4.6-7.7-7.6-13.16-7.79c-5.31-0.18-10.81,2.17-14.16,6.33c-2.16,2.68-3.67,6.28-3.26,9.78
									c0.19,1.6,0.71,3.17,1.62,4.5c0.92,1.34,2.09,2.27,3.64,2.77c0.23,0.07,0.37-0.27,0.16-0.39c-2.37-1.35-4.1-3.93-4.29-6.66
									c-0.21-2.97,0.79-5.91,2.51-8.32c2.78-3.89,7.52-6.32,12.26-6.6c4.92-0.29,9.47,1.84,12.53,5.67
									c2.99,3.74,4.37,8.89,3.25,13.58c-0.75,3.15-2.6,5.81-5.28,7.62c-1.26,0.86-2.67,1.5-4.18,1.77
									c-1.58,0.28-3.14,0.05-4.65-0.48C104.92,264.99,104.78,265.33,104.98,265.44L104.98,265.44z"/>
							</g>
						</g>
						<g>
							<g>
								<path d="M105.73,265.6c-0.34-0.34-0.58-0.69-0.79-1.11c-0.11-0.22-0.23-0.39-0.12-0.64c0.13-0.29,0.51-0.5,0.75-0.68
									c0.83-0.61,1.56-1.31,2.09-2.21c1.11-1.89,1.1-4.3-0.31-6.03c-0.7-0.85-1.66-1.55-2.59-2.13c-0.99-0.63-2.08-1.06-3.26-1.16
									c-1.17-0.11-2.35,0.15-3.46,0.46c-1.04,0.29-1.95,0.78-2.63,1.65c-0.63,0.79-0.97,1.8-1.21,2.77
									c-0.13,0.54-0.13,1.16-0.31,1.68c-0.17,0.48-0.52,0.56-0.96,0.42c-0.18-0.06-0.44-0.15-0.57-0.29
									c-0.09-0.09-0.21,0.03-0.17,0.13c0.2,0.44,0.93,0.64,1.37,0.56c0.75-0.14,0.93-1.29,1.06-1.9c0.22-1.07,0.54-2.16,1.27-2.99
									c0.82-0.92,2.11-1.21,3.3-1.26c1.31-0.05,2.67-0.04,3.89,0.51c1.02,0.46,2.06,1.16,2.9,1.91c1.94,1.76,1.59,4.51-0.02,6.37
									c-0.41,0.47-0.88,0.84-1.32,1.27c-0.29,0.29-0.62,0.68-0.59,1.12c0.05,0.79,0.94,1.4,1.61,1.65
									C105.73,265.7,105.76,265.63,105.73,265.6L105.73,265.6z"/>
							</g>
						</g>
						<g>
							<g>
								<path d="M105.24,265.35c5.72,0.1,8.48-8.16,5.44-12.35c-0.86-1.19-2.1-1.98-3.4-2.62c-1.43-0.69-2.94-1.26-4.5-1.57
									c-2.96-0.57-5.85,0.01-8.13,2.04c-2.1,1.87-3.97,5.24-2.06,7.88c0.13,0.18,0.44,0,0.3-0.18c-1.75-2.26,0.1-5.15,1.8-6.83
									c0.87-0.85,1.89-1.55,3.05-1.93c1.32-0.43,2.72-0.36,4.07-0.1c2.49,0.48,5.32,1.41,7.27,3.11c1.86,1.61,2.24,4.19,1.75,6.5
									c-0.6,2.86-2.48,5.51-5.6,5.75C105.07,265.08,105.06,265.35,105.24,265.35L105.24,265.35z"/>
							</g>
						</g>
					</g>
					<line class="st17" x1="105.72" y1="236.23" x2="136.83" y2="171.67"/>
					<line class="st17" x1="146.16" y1="176.79" x2="115.74" y2="241.22"/>
					<circle class="st17" cx="126.57" cy="204.96" r="3.78"/>
				</g>
			</g>
			<g>
				<g>
					<g id="XMLID_3_">
						<g>
							<path class="st3" d="M215.67,246.81l7.84,8.37c3.65,3.91,0.86,10.29-4.49,10.26l-95.22-0.55c-5.51-0.03-8.15-6.78-4.13-10.55
								l50.47-47.24c2.45-2.31,6.31-2.18,8.61,0.28l2.23,2.38l8.67,9.27l8.68,9.25l8.67,9.27L215.67,246.81z M197.64,254.21
								c2.94,0.02,4.48-3.49,2.47-5.64l-24.6-26.28c-1.27-1.35-3.39-1.42-4.74-0.15l-27.74,25.97c-2.22,2.07-0.76,5.78,2.27,5.8
								L197.64,254.21z"/>
						</g>
						<g>
						</g>
					</g>
				</g>
				<path class="st19" d="M179.86,208.55c-23.55,23.55-56.5,56.5-56.5,56.5l-2.43-0.88l-2.41-2.4l-1.33-3.6l2.49-3.82l50.47-47.25
					l3.25-1.57h3.85L179.86,208.55z"/>
				<g>
					<path class="st17" d="M123.8,264.89l95.22,0.55c5.35,0.03,8.14-6.36,4.49-10.26l-44.75-47.8c-2.3-2.46-6.16-2.59-8.62-0.28
						l-50.47,47.25C115.65,258.11,118.29,264.86,123.8,264.89z M143.03,248.11l27.74-25.97c1.35-1.27,3.47-1.2,4.74,0.16l24.6,26.28
						c2.01,2.15,0.48,5.66-2.47,5.64l-52.34-0.3C142.27,253.89,140.82,250.18,143.03,248.11z"/>
					<line class="st20" x1="180.99" y1="209.76" x2="175.77" y2="214.64"/>
					<line class="st20" x1="189.66" y1="219.02" x2="184.44" y2="223.9"/>
					<line class="st20" x1="198.33" y1="228.28" x2="193.11" y2="233.16"/>
					<line class="st20" x1="207" y1="237.54" x2="201.78" y2="242.43"/>
					<line class="st20" x1="215.67" y1="246.81" x2="210.46" y2="251.69"/>
				</g>
			</g>
			<g>
				<g>
					<path class="st4" d="M359.45,252.39l-8.31,4.62c-1.8,1-4.07,0.35-5.08-1.45l-41.84-75.24c-1-1.8-0.35-4.07,1.45-5.08l8.31-4.62
						c1.8-1,4.07-0.35,5.08,1.45l41.84,75.24C361.9,249.12,361.25,251.39,359.45,252.39z"/>
					<line class="st4" x1="350.32" y1="245.74" x2="357.73" y2="241.62"/>
					<line class="st4" x1="344.59" y1="235.44" x2="352" y2="231.32"/>
					<line class="st4" x1="338.86" y1="225.15" x2="346.28" y2="221.02"/>
					<line class="st4" x1="333.14" y1="214.85" x2="340.55" y2="210.72"/>
					<line class="st4" x1="327.41" y1="204.55" x2="334.82" y2="200.43"/>
					<line class="st4" x1="321.68" y1="194.25" x2="329.1" y2="190.13"/>
					<line class="st4" x1="315.96" y1="183.95" x2="323.37" y2="179.83"/>
				</g>
				<g>
					<g id="XMLID_4_">
						<g>
							<path class="st14" d="M346.28,221.02l11.45,20.6l3.17,5.69c1,1.8,0.35,4.08-1.45,5.08l-8.3,4.62c-1.81,1-4.08,0.35-5.08-1.45
								l-41.84-75.24c-1-1.8-0.35-4.08,1.45-5.08l8.3-4.62c1.8-1,4.08-0.35,5.08,1.45l4.31,7.76l5.73,10.3l5.72,10.29l5.73,10.3
								L346.28,221.02z"/>
						</g>
						<g>
						</g>
					</g>
				</g>
				<polygon class="st21" points="308.62,173.6 353.38,255.77 351.15,257.01 348.3,257.21 346.07,255.56 304.01,179.83 
					304.01,177.17 304.9,175.83 				"/>
				<g>
					<path class="st17" d="M359.45,252.39l-8.31,4.62c-1.8,1-4.07,0.35-5.08-1.45l-41.84-75.24c-1-1.8-0.35-4.07,1.45-5.08
						l8.31-4.62c1.8-1,4.07-0.35,5.08,1.45l41.84,75.24C361.9,249.12,361.25,251.39,359.45,252.39z"/>
					<line class="st20" x1="350.32" y1="245.74" x2="357.73" y2="241.62"/>
					<line class="st20" x1="344.59" y1="235.44" x2="352" y2="231.32"/>
					<line class="st20" x1="338.86" y1="225.15" x2="346.28" y2="221.02"/>
					<line class="st20" x1="333.14" y1="214.85" x2="340.55" y2="210.72"/>
					<line class="st20" x1="327.41" y1="204.55" x2="334.82" y2="200.43"/>
					<line class="st20" x1="321.68" y1="194.25" x2="329.1" y2="190.13"/>
					<line class="st20" x1="315.96" y1="183.95" x2="323.37" y2="179.83"/>
				</g>
			</g>
			<g>
				<g>
					<g id="XMLID_5_">
						<g>
							<path class="st14" d="M381.81,251.32c0.91,3.74,1.1,7.64,0.56,11.45c-0.21,1.49-0.73,3.2-2.15,3.7l-0.99,0.42
								c-1.83,0.43-3.82,0.14-5.45-0.8l-0.08-0.03c0.89-2.42,1.01-5.19,0.95-7.81c-0.05-2.18-0.19-4.37-0.75-6.48
								c-0.26-0.97-0.61-1.93-1.07-2.82c1.14-0.39,2.25-0.89,3.42-1.22c1.24-0.35,2.59-0.51,3.82-0.1l0.33,0.32
								C381.15,248.92,381.52,250.13,381.81,251.32z"/>
							<path class="st5" d="M372.83,248.95c0.46,0.89,0.81,1.85,1.07,2.82c0.56,2.11,0.7,4.3,0.75,6.48
								c0.06,2.62-0.06,5.39-0.95,7.81c-0.36,0.99-0.85,1.93-1.51,2.77l-0.29-0.21c-2.2,0.05-4.41,0.1-6.61,0.16
								c0.65-1.69,1.31-3.51,1.57-6.13c0.13-1.31,0.16-2.82,0.05-4.62c-0.1-1.71-0.3-3.15-0.57-4.4c-0.6-2.73-1.52-4.52-2.42-6.18
								l-0.02-0.17c0.25-0.03,0.51-0.06,0.76-0.1c2.02-0.26,4.03-0.52,6.05-0.78l0.18-0.17
								C371.69,247.02,372.33,247.95,372.83,248.95z"/>
							<path class="st6" d="M366.91,258.03c0.11,1.8,0.08,3.31-0.05,4.62c-10,0.62-60.53,1.67-76.47,2.62
								c-0.15-0.73-0.27-1.57-0.33-2.53c-0.1-1.59,0.01-2.87,0.2-3.88c14.27-0.87,70.09-4.3,76.04-5.22l0.04-0.01
								C366.61,254.88,366.81,256.32,366.91,258.03z"/>
							<path class="st3" d="M366.34,253.63l-0.04,0.01c-5.95,0.92-61.77,4.35-76.04,5.22c0.38-1.94,1.08-2.89,1.3-3.15
								c0.04-0.06,0.07-0.08,0.07-0.08s60.95-6.74,72.29-8.18C364.82,249.11,365.74,250.9,366.34,253.63z"/>
							<path class="st3" d="M365.29,268.78c-0.02,0.04-0.03,0.09-0.05,0.13c-11.44-0.06-72.76,0.69-72.76,0.69s-1.4-1.08-2.09-4.33
								c15.94-0.95,66.47-2,76.47-2.62C366.6,265.27,365.94,267.09,365.29,268.78z"/>
							<path class="st22" d="M290.26,258.86c-0.19,1.01-0.3,2.29-0.2,3.88c0.06,0.96,0.18,1.8,0.33,2.53
								c0.69,3.25,2.09,4.33,2.09,4.33l-0.01,0.15c-3.55-0.3-7.08-0.89-10.54-1.74c-1.42-0.35-2.92-1.34-3.82-2.5l-0.05,0.01
								c-0.14-0.86-0.16-1.86-0.04-2.57c0.01,0,0-0.01,0-0.01c0-0.01,0-0.01,0-0.01c3.47-3.93,8.31-6.64,13.48-7.52l0.06,0.3
								C291.34,255.97,290.64,256.92,290.26,258.86z"/>
							<path class="st6" d="M277.95,263.02c0.02-0.03,0.04-0.05,0.07-0.07c-0.12,0.71-0.1,1.71,0.04,2.57
								c0.05,0.34,0.12,0.66,0.21,0.94c-0.95-0.33-2.11-0.78-2.75-0.97C276.27,264.61,277.08,263.78,277.95,263.02z"/>
							<path class="st22" d="M278.02,262.94c0,0,0.01,0.01,0,0.01c-0.03,0.02-0.05,0.04-0.07,0.07
								C277.97,262.99,277.99,262.96,278.02,262.94z"/>
						</g>
						<g>
						</g>
					</g>
				</g>
				<path class="st16" d="M327.65,251.61c-17.12,0.78-47.59,15.47-47.59,15.47l-1.95-1.58c0,0-0.11-2.55-0.01-2.63
					c0.1-0.08,2.68-2.59,2.68-2.59l5.6-3.36l6.18-1.54L327.65,251.61z"/>
				<g>
					<path class="st17" d="M366.92,258.03c-0.34-5.49-1.68-8.16-2.99-10.59c-11.34,1.45-72.3,8.18-72.3,8.18s-1.89,1.87-1.57,7.11
						c0.32,5.24,2.42,6.86,2.42,6.86s61.32-0.75,72.75-0.7C366.25,266.34,367.25,263.52,366.92,258.03z"/>
					<g>
						<g>
							<path d="M290.24,259.19c4.15-0.08,8.31-0.46,12.45-0.71c5.97-0.37,11.94-0.74,17.91-1.12c6.39-0.41,12.78-0.75,19.17-1.15
								c5.49-0.34,10.99-0.69,16.48-1.08c3.2-0.23,6.41-0.41,9.59-0.81c0.21-0.03,0.42-0.05,0.63-0.09
								c0.77-0.12,0.44-1.28-0.32-1.17c-0.08,0.01-0.16,0.02-0.23,0.03c-0.15,0.02,0.08-0.01-0.01,0c-0.05,0.01-0.11,0.01-0.16,0.02
								c-0.24,0.03-0.47,0.06-0.71,0.08c-0.62,0.07-1.25,0.13-1.87,0.19c-1.82,0.17-3.63,0.32-5.45,0.47
								c-5.28,0.44-10.57,0.83-15.85,1.21c-6.35,0.46-12.71,0.95-19.06,1.36c-6.07,0.39-12.14,0.78-18.2,1.16
								c-4.42,0.28-8.85,0.55-13.27,0.84c-0.36,0.02-0.72,0.06-1.09,0.1C289.82,258.57,289.8,259.2,290.24,259.19L290.24,259.19z"/>
						</g>
					</g>
					<g>
						<g>
							<path d="M290.13,265.55c1.83,0.13,3.7-0.05,5.54-0.11c2.38-0.09,4.76-0.17,7.14-0.25c5.77-0.21,11.53-0.38,17.3-0.55
								c6.19-0.18,12.38-0.35,18.57-0.52c5.48-0.15,10.96-0.3,16.44-0.45c3.64-0.1,7.28-0.19,10.92-0.38
								c0.27-0.01,0.54-0.03,0.81-0.04c0.76-0.05,0.77-1.24,0-1.2c-3.35,0.2-6.7,0.31-10.04,0.44c-5.34,0.21-10.68,0.38-16.03,0.54
								c-6.17,0.19-12.33,0.37-18.5,0.56c-5.9,0.18-11.8,0.37-17.69,0.58c-4.45,0.16-8.9,0.32-13.34,0.66
								c-0.41,0.03-0.8,0.11-1.2,0.18C289.75,265.08,289.85,265.53,290.13,265.55L290.13,265.55z"/>
						</g>
					</g>
					<g>
						<g>
							<path d="M363.54,247.5c0.55,0.16,1.13,0.04,1.69-0.02c0.61-0.07,1.22-0.14,1.83-0.22c1.22-0.15,2.44-0.31,3.66-0.47
								c0.49-0.06,0.5-0.85,0-0.78c-1.23,0.16-2.46,0.31-3.69,0.48c-0.61,0.08-1.22,0.17-1.82,0.25c-0.58,0.08-1.2,0.1-1.71,0.42
								C363.36,247.25,363.38,247.45,363.54,247.5L363.54,247.5z"/>
						</g>
					</g>
					<g>
						<g>
							<path d="M370.57,246.33c1.27,1.58,2.25,3.19,2.81,5.16c0.59,2.08,0.74,4.26,0.8,6.41c0.05,1.88,0.04,3.79-0.29,5.65
								c-0.16,0.91-0.39,1.8-0.73,2.66c-0.35,0.89-0.88,1.65-1.36,2.47c-0.23,0.39,0.31,0.81,0.63,0.49
								c1.37-1.36,2.01-3.53,2.34-5.37c0.35-1.98,0.38-4,0.32-6.01c-0.07-2.26-0.27-4.55-0.95-6.72c-0.59-1.88-1.57-3.92-3.15-5.16
								C370.69,245.66,370.33,246.02,370.57,246.33L370.57,246.33z"/>
						</g>
					</g>
					<g>
						<g>
							<path d="M365.24,269.03c2.22,0.05,4.44,0.05,6.67,0.07c0.62,0,0.61-0.98,0-0.95c-2.22,0.11-4.45,0.22-6.67,0.38
								C364.92,268.55,364.91,269.02,365.24,269.03L365.24,269.03z"/>
						</g>
					</g>
					<g>
						<g>
							<path d="M372.52,249.17c0.27,0.16,0.55,0.02,0.82-0.07c0.31-0.11,0.61-0.22,0.91-0.33c0.63-0.23,1.26-0.46,1.9-0.66
								c0.64-0.19,1.29-0.34,1.96-0.38c0.31-0.02,0.62-0.01,0.93,0.02c0.35,0.03,0.69,0,1.04,0.01c0.14,0.01,0.18-0.19,0.07-0.25
								c-0.3-0.18-0.53-0.35-0.89-0.41c-0.33-0.06-0.68-0.06-1.02-0.05c-0.68,0.03-1.35,0.15-2.01,0.33
								c-0.69,0.19-1.36,0.45-2.02,0.72c-0.34,0.14-0.69,0.27-1.03,0.41c-0.26,0.1-0.6,0.16-0.72,0.44
								C372.42,249.03,372.43,249.12,372.52,249.17L372.52,249.17z"/>
						</g>
					</g>
					<g>
						<g>
							<path d="M380.25,248.04c0.88,1.32,1.2,2.98,1.47,4.52c0.31,1.74,0.48,3.5,0.51,5.28c0.03,1.71-0.03,3.46-0.32,5.15
								c-0.21,1.25-0.66,2.61-1.77,3.34c-0.16,0.11-0.06,0.34,0.13,0.31c1.39-0.25,2.04-1.57,2.34-2.83
								c0.43-1.77,0.51-3.68,0.5-5.49c-0.01-1.91-0.22-3.84-0.63-5.71c-0.37-1.71-0.82-3.4-1.95-4.78
								C380.4,247.67,380.13,247.87,380.25,248.04L380.25,248.04z"/>
						</g>
					</g>
					<g>
						<g>
							<path d="M379.23,266.73c-0.25,0.03-0.48,0-0.73,0.01c-0.21,0.01-0.43,0.03-0.64,0.03c-0.45,0.01-0.9-0.02-1.34-0.09
								c-0.43-0.07-0.88-0.18-1.28-0.35c-0.43-0.18-0.79-0.48-1.19-0.7c-0.6-0.32-1.13,0.57-0.54,0.92
								c0.42,0.25,0.95,0.37,1.42,0.49c0.48,0.12,0.96,0.23,1.45,0.3c0.49,0.06,0.98,0.08,1.48,0.05c0.24-0.01,0.49-0.04,0.72-0.09
								c0.24-0.06,0.46-0.17,0.7-0.25C379.44,266.99,379.43,266.7,379.23,266.73L379.23,266.73z"/>
						</g>
					</g>
					<g>
						<g>
							<path d="M291.61,255.11c-2.76,0.13-5.52,1.25-7.9,2.59c-1.2,0.67-2.33,1.45-3.39,2.32c-0.56,0.46-1.11,0.95-1.63,1.47
								c-0.47,0.46-0.94,0.95-1.11,1.6c-0.06,0.23,0.18,0.37,0.37,0.28c0.58-0.25,1-0.74,1.45-1.18c0.47-0.47,0.96-0.91,1.47-1.34
								c1.04-0.86,2.16-1.64,3.33-2.31c2.37-1.36,4.89-2.11,7.48-2.89C291.97,255.57,291.93,255.09,291.61,255.11L291.61,255.11z"/>
						</g>
					</g>
					<g>
						<g>
							<path d="M292.65,269.61c-0.48-0.36-1.17-0.37-1.75-0.46c-0.67-0.11-1.34-0.19-2.01-0.29c-1.34-0.2-2.68-0.43-4.01-0.71
								c-1.22-0.25-2.45-0.51-3.65-0.86c-0.54-0.16-1.09-0.34-1.59-0.61c-0.49-0.26-0.9-0.65-1.4-0.91
								c-0.23-0.12-0.53,0.08-0.45,0.35c0.32,1.04,1.48,1.56,2.43,1.92c1.29,0.49,2.69,0.74,4.04,1.02
								c1.41,0.29,2.83,0.54,4.26,0.73c0.71,0.09,1.42,0.19,2.14,0.24c0.64,0.04,1.41,0.18,1.99-0.13
								C292.78,269.84,292.75,269.68,292.65,269.61L292.65,269.61z"/>
						</g>
					</g>
					<g>
						<g>
							<path d="M277.96,262.79c-0.08,0.13-0.16,0.25-0.22,0.4c-0.05,0.12-0.09,0.25-0.11,0.38c-0.06,0.3-0.1,0.61-0.1,0.92
								c0,0.3,0.04,0.61,0.09,0.91c0.03,0.14,0.06,0.28,0.1,0.41c0.05,0.16,0.09,0.35,0.19,0.48c0.12,0.16,0.3,0.27,0.51,0.21
								c0.18-0.05,0.35-0.24,0.33-0.44c-0.03-0.28-0.16-0.55-0.24-0.83c-0.07-0.25-0.12-0.5-0.15-0.75
								c-0.03-0.26-0.06-0.53-0.05-0.8c0-0.13,0-0.26,0-0.39c0-0.14-0.03-0.28-0.04-0.42C278.27,262.71,278.05,262.64,277.96,262.79
								L277.96,262.79z"/>
						</g>
					</g>
					<g>
						<g>
							<path d="M278.11,262.62c-0.26,0.19-0.54,0.35-0.79,0.55c-0.25,0.2-0.51,0.4-0.74,0.63c-0.46,0.45-0.89,0.93-1.35,1.39
								c-0.23,0.24-0.11,0.59,0.18,0.7c0.46,0.16,0.93,0.29,1.4,0.43c0.22,0.07,0.44,0.14,0.66,0.2c0.26,0.08,0.51,0.17,0.78,0.18
								c0.42,0.01,0.55-0.56,0.21-0.76c-0.22-0.14-0.48-0.19-0.72-0.26c-0.23-0.07-0.47-0.13-0.7-0.2c-0.47-0.13-0.93-0.28-1.4-0.39
								c0.08,0.2,0.17,0.41,0.25,0.61c0.36-0.49,0.79-0.94,1.21-1.37c0.21-0.22,0.4-0.45,0.61-0.67c0.22-0.24,0.41-0.5,0.64-0.73
								C278.49,262.78,278.29,262.49,278.11,262.62L278.11,262.62z"/>
						</g>
					</g>
				</g>
			</g>
			<g>
				<g>
					<polyline class="st17" points="347.75,60.21 356.92,70.55 371.36,54.71 390.92,76.38 402.42,49.51 417.08,81.05 					"/>
					<polyline class="st17" points="347.75,68.05 356.92,57.71 372.58,73.88 389.08,53.21 402.25,77.38 417.08,47.38 					"/>
					<line class="st17" x1="319.72" y1="64.59" x2="319.72" y2="81.89"/>
					<g>
						<g id="XMLID_6_">
							<g>
								<path class="st12" d="M348.96,61.57l-5.86,0.87c-1.85,0.27-1.85,2.93,0,3.2l5.99,0.89l4.91,0.73l2.92,3.28l2.29-2.51
									l8.99,1.33l4.38,4.52l2.76-3.46l11.77,1.74l3.81,4.22l1.47-3.43l8.1,1.2l1.76,3.23l1.37-2.77L413,76v-3.74V55.63v-3.54
									l-8.78,1.3l-1.8-3.88l-1.89,4.43l-10.23,1.51l-1.22-2.24l-2.19,2.75l-12.71,1.88l-2.82-3.13l-3.74,4.1l-8.43,1.25
									l-2.27-2.35l-2.74,3.09L348.96,61.57z M319.72,66.36c-1.98-1.14-1.7-4.44,0.85-4.96l96.97-20.02
									c1.67-0.35,3.24,0.93,3.24,2.64v0.77v1.98v34.55v2.75v173.72H413V85.77l-92.43-19.09
									C320.25,66.62,319.97,66.51,319.72,66.36z"/>
								<polygon class="st12" points="402.42,49.51 404.22,53.39 400.53,53.94 								"/>
								<polygon class="st12" points="403.62,74.61 402.25,77.38 400.49,74.15 								"/>
								<polygon class="st12" points="387.11,72.16 392.39,72.95 390.92,76.38 								"/>
								<polygon class="st12" points="389.08,53.21 390.3,55.45 386.89,55.96 								"/>
								<polygon class="st12" points="375.34,70.42 372.58,73.88 368.2,69.36 								"/>
								<polygon class="st12" points="371.36,54.71 374.18,57.84 367.62,58.81 								"/>
								<path class="st11" d="M372.61,143.71v9.83c0,4.74-3.84,8.59-8.58,8.59h-18.7c1.93-3.21,4.21-6.1,6.71-8.58
									C358.18,147.41,365.66,143.71,372.61,143.71z"/>
								<path class="st3" d="M372.61,121.54v22.17c-6.95,0-14.43,3.7-20.57,9.84l-0.01-0.01c-10.83-8.95-41.86-8.83-47.13-2.94
									c-12.44-7.01-28.9-9.46-38.18-6.89v-22.17c0-4.74,3.84-8.58,8.58-8.58h88.73C368.77,112.96,372.61,116.8,372.61,121.54z
									 M360.5,132.29c0-4.55-3.69-8.25-8.25-8.25s-8.25,3.7-8.25,8.25c0,4.56,3.69,8.25,8.25,8.25S360.5,136.85,360.5,132.29z"/>
								<polygon class="st12" points="359.21,68.03 356.92,70.54 354,67.26 								"/>
								<polygon class="st12" points="356.92,57.71 359.19,60.06 354.18,60.8 								"/>
								<circle class="st14" cx="352.25" cy="132.29" r="8.25"/>
								<path class="st11" d="M352.03,153.54l0.01,0.01c-2.5,2.48-4.78,5.37-6.71,8.58h-27.5c-2.97-4.66-7.58-8.52-12.93-11.53
									C310.17,144.71,341.2,144.59,352.03,153.54z"/>
								<path class="st11" d="M317.83,162.13H275.3c-4.74,0-8.58-3.85-8.58-8.59v-9.83c9.28-2.57,25.74-0.12,38.18,6.89
									C310.25,153.61,314.86,157.47,317.83,162.13z"/>
							</g>
							<g>
							</g>
						</g>
					</g>
					<g>
						<polygon class="st2" points="280.88,112.96 280.88,162.13 278,162.13 272.45,162.13 268.93,159.28 266.78,154.51 
							266.78,117.96 270.4,114.5 275.3,112.96 						"/>
						<path class="st2" d="M331.12,59.23c-1.62,2.24,5.73,10.82,5.73,10.82l-16.28-3.36c-1.57-0.94-2.15-2.64-2.15-2.64v-1.67
							l3.27-1.42L331.12,59.23z"/>
						<path class="st2" d="M413,85.77c1.75,6.69,6,172.34,6,172.34l-6-0.32V85.77z"/>
					</g>
					<g>
						<g>
							<path class="st20" d="M364.03,162.13H275.3c-4.74,0-8.58-3.84-8.58-8.58v-32c0-4.74,3.84-8.58,8.58-8.58h88.72
								c4.74,0,8.58,3.84,8.58,8.58v32C372.61,158.29,368.77,162.13,364.03,162.13z"/>
							<path class="st20" d="M266.72,143.71c13.28-3.67,41.24,2.92,51.11,18.42"/>
							<path class="st20" d="M304.9,150.6c5.27-5.89,36.3-6.01,47.14,2.95"/>
							<path class="st20" d="M372.61,143.71c-9.78,0-20.61,7.33-27.28,18.42"/>
							<circle class="st20" cx="352.25" cy="132.3" r="8.25"/>
						</g>
						<path class="st17" d="M275.3,112.96l42.03-30.32c1.39-1,3.27-1,4.67,0l42.03,30.32"/>
						<path class="st17" d="M417.54,41.38l-96.97,20.02c-2.87,0.59-2.87,4.69,0,5.28L413,85.77V257.8h7.78V84.07v-2.75V46.77V44.8
							v-0.77C420.78,42.31,419.21,41.04,417.54,41.38z M343.1,65.65c-1.84-0.27-1.84-2.93,0-3.2L413,52.09V76L343.1,65.65z"/>
					</g>
					<g>
						<g>
							<path d="M360.16,125.23c0.56-0.3,1.13-0.6,1.69-0.9c0.28-0.15,0.55-0.29,0.82-0.45c0.13-0.08,0.31-0.15,0.42-0.26
								c0.06-0.06,0.1-0.14,0.15-0.21c0.05-0.06,0.1-0.12,0.14-0.19c0.08-0.13-0.03-0.3-0.17-0.3c-0.08,0-0.15,0.01-0.23,0.02
								c-0.09,0.01-0.19-0.01-0.28,0.02c-0.15,0.04-0.3,0.15-0.44,0.22c-0.28,0.14-0.55,0.3-0.82,0.45
								c-0.55,0.31-1.11,0.62-1.66,0.94C359.35,124.82,359.73,125.46,360.16,125.23L360.16,125.23z"/>
						</g>
					</g>
					<g>
						<g>
							<path d="M362.25,127.36c0.9,0.03,1.8,0.11,2.7-0.01c0.2-0.03,0.38-0.16,0.38-0.38c0-0.23-0.18-0.35-0.38-0.38
								c-0.89-0.12-1.8-0.04-2.7-0.01C361.74,126.59,361.74,127.34,362.25,127.36L362.25,127.36z"/>
						</g>
					</g>
					<g>
						<g>
							<path d="M361.3,135.06c0.34,0.2,0.67,0.41,1.01,0.61c0.17,0.1,0.33,0.2,0.5,0.3c0.1,0.06,0.2,0.11,0.31,0.15
								c0.09,0.04,0.19,0.09,0.29,0.1c0.15,0.03,0.32-0.02,0.4-0.16c0.08-0.15,0.05-0.3-0.05-0.42c-0.06-0.08-0.15-0.14-0.23-0.21
								c-0.09-0.08-0.18-0.14-0.28-0.2c-0.17-0.1-0.33-0.19-0.5-0.29c-0.34-0.2-0.68-0.39-1.02-0.59c-0.19-0.11-0.46-0.05-0.56,0.15
								C361.05,134.69,361.1,134.94,361.3,135.06L361.3,135.06z"/>
						</g>
					</g>
					<g>
						<g>
							<path d="M357.59,141.21c-0.03,0.45,0.06,0.9,0.24,1.32c0.18,0.41,0.48,0.79,0.89,0.98c0.18,0.09,0.38,0.06,0.51-0.1
								c0.13-0.16,0.1-0.37-0.03-0.52c-0.03-0.03-0.06-0.07-0.09-0.1c-0.01-0.01-0.05-0.07-0.01-0.02c0.04,0.05,0-0.01-0.01-0.02
								c-0.05-0.06-0.09-0.12-0.14-0.17c-0.01-0.02-0.03-0.03-0.04-0.05c0-0.01-0.07-0.08-0.02-0.03c0.04,0.05,0,0-0.01-0.01
								c-0.02-0.02-0.03-0.04-0.04-0.06c-0.02-0.03-0.05-0.07-0.07-0.1c-0.05-0.08-0.1-0.16-0.14-0.24
								c-0.02-0.04-0.04-0.07-0.06-0.11c-0.01-0.01-0.04-0.1-0.02-0.03c0.02,0.06,0-0.01-0.01-0.02c-0.03-0.08-0.06-0.16-0.08-0.25
								c-0.02-0.08-0.05-0.18-0.06-0.27c0,0.03,0.01,0.07,0,0.02c0-0.02,0-0.04-0.01-0.06c0-0.05-0.01-0.1-0.01-0.15
								c0-0.21-0.18-0.41-0.4-0.4C357.76,140.82,357.6,140.99,357.59,141.21L357.59,141.21z"/>
						</g>
					</g>
					<g>
						<g>
							<path d="M352.61,143.21c-0.03,0.35-0.05,0.69-0.06,1.04c-0.01,0.17,0.01,0.34,0.01,0.51c0,0.08,0,0.17,0.01,0.25
								c0.01,0.17,0.07,0.28,0.18,0.4c0.13,0.13,0.36,0.13,0.48,0c0.11-0.12,0.17-0.23,0.18-0.4c0.01-0.08,0.01-0.16,0.01-0.24
								c0.01-0.18,0.02-0.35,0.01-0.53c-0.01-0.35-0.04-0.69-0.06-1.04c-0.01-0.2-0.17-0.4-0.39-0.39
								C352.78,142.84,352.63,143,352.61,143.21L352.61,143.21z"/>
						</g>
					</g>
					<g>
						<g>
							<path d="M348.45,141.42c-0.34,0.38-0.68,0.76-1.02,1.13c-0.17,0.18-0.33,0.37-0.5,0.55c-0.19,0.21-0.45,0.45-0.52,0.73
								c-0.03,0.14,0,0.28,0.1,0.38c0.09,0.09,0.26,0.15,0.38,0.1c0.28-0.12,0.46-0.35,0.65-0.58c0.16-0.2,0.33-0.39,0.49-0.59
								c0.33-0.39,0.65-0.78,0.98-1.17c0.13-0.16,0.17-0.4,0-0.56C348.86,141.28,348.6,141.25,348.45,141.42L348.45,141.42z"/>
						</g>
					</g>
					<g>
						<g>
							<path d="M341.11,140.38c0.66-0.11,1.31-0.23,1.97-0.34c0.65-0.11,1.33-0.18,1.96-0.38c0.42-0.14,0.37-0.83-0.11-0.8
								c-0.68,0.05-1.36,0.24-2.03,0.38c-0.66,0.14-1.33,0.28-1.99,0.42c-0.2,0.04-0.32,0.28-0.26,0.47
								C340.7,140.33,340.91,140.41,341.11,140.38L341.11,140.38z"/>
						</g>
					</g>
					<g>
						<g>
							<path d="M339.11,134.35c0.49-0.12,0.98-0.24,1.47-0.37c0.49-0.12,0.99-0.23,1.47-0.38c0.23-0.07,0.38-0.32,0.32-0.56
								c-0.07-0.25-0.32-0.37-0.56-0.32c-0.49,0.11-0.98,0.26-1.46,0.4c-0.49,0.14-0.97,0.28-1.46,0.42
								c-0.22,0.06-0.35,0.3-0.29,0.51C338.65,134.28,338.89,134.4,339.11,134.35L339.11,134.35z"/>
						</g>
					</g>
					<g>
						<g>
							<path d="M338.75,128.37c0.76,0.07,1.51,0.2,2.24,0.39c0.37,0.1,0.74,0.21,1.1,0.34c0.36,0.13,0.75,0.33,1.13,0.36
								c0.37,0.03,0.61-0.52,0.31-0.76c-0.33-0.27-0.8-0.39-1.2-0.51c-0.38-0.11-0.77-0.21-1.16-0.3c-0.8-0.18-1.62-0.29-2.44-0.34
								c-0.22-0.01-0.41,0.2-0.41,0.41C338.34,128.2,338.53,128.35,338.75,128.37L338.75,128.37z"/>
						</g>
					</g>
					<g>
						<g>
							<path d="M342.99,122.22c0.57,0.51,1.15,1.02,1.72,1.53c0.58,0.53,1.14,1.08,1.76,1.55c0.17,0.13,0.44,0.04,0.56-0.11
								c0.13-0.17,0.13-0.42-0.03-0.57c-0.55-0.52-1.17-0.97-1.76-1.43c-0.59-0.47-1.18-0.95-1.77-1.43c-0.14-0.11-0.33-0.13-0.46,0
								C342.87,121.88,342.86,122.1,342.99,122.22L342.99,122.22z"/>
						</g>
					</g>
					<g>
						<g>
							<path d="M350.93,122.57c0.17-0.67,0.3-1.34,0.42-2.02c0.06-0.34,0.11-0.68,0.17-1.02c0.06-0.37,0.16-0.75,0.11-1.12
								c-0.05-0.39-0.68-0.45-0.84-0.11c-0.15,0.32-0.17,0.7-0.23,1.05c-0.05,0.34-0.11,0.68-0.16,1.03c-0.1,0.7-0.18,1.39-0.23,2.1
								C350.13,122.91,350.82,122.99,350.93,122.57L350.93,122.57z"/>
						</g>
					</g>
					<g>
						<g>
							<path d="M356.21,122.82c0.3-0.2,0.52-0.48,0.76-0.75c0.23-0.26,0.45-0.54,0.67-0.81c0.22-0.26,0.44-0.52,0.65-0.79
								c0.12-0.15,0.24-0.3,0.35-0.46c0.04-0.07,0.09-0.13,0.13-0.2c0.07-0.12,0.1-0.24,0.1-0.38c0-0.27-0.25-0.43-0.49-0.38
								c-0.34,0.07-0.61,0.45-0.83,0.71c-0.22,0.26-0.44,0.52-0.65,0.79c-0.23,0.27-0.46,0.54-0.67,0.82
								c-0.21,0.27-0.46,0.54-0.59,0.86c-0.08,0.18-0.08,0.37,0.07,0.52C355.82,122.88,356.05,122.93,356.21,122.82L356.21,122.82z"
								/>
						</g>
					</g>
				</g>
				<path class="st23" d="M435,233.46v22c0,1.86-1.51,3.37-3.37,3.37h-9.25c-1.86,0-3.37-1.51-3.37-3.37v-22
					c0-1.86,1.51-3.37,3.37-3.37h9.25C433.49,230.09,435,231.6,435,233.46z"/>
				<path class="st23" d="M446.15,268.21h-22c-1.86,0-3.37-1.51-3.37-3.37v-9.25c0-1.86,1.51-3.37,3.37-3.37h22
					c1.86,0,3.37,1.51,3.37,3.37v9.25C449.53,266.7,448.02,268.21,446.15,268.21z"/>
				<path class="st23" d="M420.88,268.21h-22c-1.86,0-3.37-1.51-3.37-3.37v-9.25c0-1.86,1.51-3.37,3.37-3.37h22
					c1.86,0,3.37,1.51,3.37,3.37v9.25C424.25,266.7,422.74,268.21,420.88,268.21z"/>
			</g>
		</g>
	</g>
</g>
<g id="DESIGNED_BY_FREEPIK">
</g>
</svg>
