<?xml version="1.0" encoding="utf-8"?>
<!-- Generator: Adobe Illustrator 24.0.0, SVG Export Plug-In . SVG Version: 6.00 Build 0)  -->
<svg version="1.1" xmlns="http://www.w3.org/2000/svg" xmlns:xlink="http://www.w3.org/1999/xlink" x="0px" y="0px"
	 viewBox="0 0 500 258.13" style="enable-background:new 0 0 500 258.13;" xml:space="preserve">
<style type="text/css">
	.st0{display:none;}
	.st1{display:inline;fill:#57ADCF;}
	.st2{display:inline;opacity:0.7;fill:#57ADCF;}
	.st3{fill:#4D4D4D;}
	.st4{fill:#F3CFB5;}
	.st5{fill:#666666;}
	.st6{fill:#BFBFBF;}
	.st7{fill:#A0A0A0;}
	.st8{fill:#939393;}
	.st9{opacity:0.25;fill:#4D4D4D;}
	.st10{fill:#686868;}
	.st11{opacity:0.5;fill:#4D4D4D;}
	.st12{opacity:0.25;}
	.st13{fill:#F0C3A3;}
	.st14{fill:#FF8000;}
	.st15{fill:#7D4B36;}
</style>
<g id="BACKGROUND" class="st0">
	<rect x="-0.77" y="-117.64" class="st1" width="500" height="500"/>
	<rect x="-0.77" y="219.36" class="st2" width="500" height="163"/>
</g>
<g id="OBJECTS">
	<g>
		<path class="st3" d="M338.98,224.27H161.02c-6.06,0-11.02-4.96-11.02-11.02v-12.95c0-6.06,4.96-11.02,11.02-11.02h177.95
			c6.06,0,11.02,4.96,11.02,11.02v12.95C350,219.31,345.04,224.27,338.98,224.27z"/>
		<g>
			<path class="st4" d="M358.99,72.96c3.41-0.82,7.03,2.07,8.09,6.45l4.09,17.01c-3.76,0.9-7.75-2.28-8.91-7.11l-3.9-16.2
				L358.99,72.96z"/>
			<path class="st4" d="M141.27,72.96c-3.41-0.82-7.03,2.07-8.09,6.45l-4.09,17.01c3.76,0.9,7.75-2.28,8.91-7.11l3.9-16.2
				L141.27,72.96z"/>
			<g>
				<g>
					<path class="st5" d="M472.33,85.6H27.67c-2.38,0-4.33-1.95-4.33-4.33l0,0c0-2.38,1.95-4.33,4.33-4.33h444.67
						c2.38,0,4.33,1.95,4.33,4.33l0,0C476.67,83.65,474.72,85.6,472.33,85.6z"/>
					<path class="st6" d="M476.63,80.93c-0.17-2.23-2.03-4-4.3-4H27.67c-2.27,0-4.13,1.77-4.3,4H476.63z"/>
					<rect x="28.54" y="76.93" class="st7" width="7.83" height="8.67"/>
				</g>
				<g>
					<rect x="29.38" y="74.52" class="st7" width="6" height="13.5"/>
					<rect x="29.38" y="74.52" class="st6" width="6" height="3.5"/>
					<rect x="29.38" y="84.58" class="st8" width="6" height="3.44"/>
				</g>
				<g>
					<g>
						<path class="st3" d="M49.83,108.12h-8.71c-2.62,0-4.77-2.15-4.77-4.77V59.18c0-2.62,2.15-4.77,4.77-4.77h8.71
							c2.62,0,4.77,2.15,4.77,4.77v44.17C54.6,105.98,52.46,108.12,49.83,108.12z"/>
						<path class="st9" d="M54.6,100.93v2.42c0,2.62-2.15,4.77-4.77,4.77h-8.71c-2.62,0-4.77-2.15-4.77-4.77v-2.42H54.6z"/>
						<path class="st10" d="M54.6,61.6v-2.42c0-2.62-2.15-4.77-4.77-4.77h-8.71c-2.62,0-4.77,2.15-4.77,4.77v2.42H54.6z"/>
						<path class="st11" d="M51.59,54.76v53.02c1.76-0.71,3.01-2.42,3.01-4.42V59.18C54.6,57.18,53.35,55.46,51.59,54.76z"/>
					</g>
					<g>
						<path class="st3" d="M67.24,123.47h-6.86c-3.37,0-6.12-2.75-6.12-6.12V45.18c0-3.37,2.75-6.12,6.12-6.12h6.86
							c3.37,0,6.12,2.75,6.12,6.12v72.17C73.36,120.72,70.61,123.47,67.24,123.47z"/>
						<path class="st9" d="M73.36,113.93v3.42c0,3.37-2.75,6.12-6.12,6.12h-6.86c-3.37,0-6.12-2.75-6.12-6.12v-3.42H73.36z"/>
						<path class="st10" d="M73.36,48.6v-3.42c0-3.37-2.75-6.12-6.12-6.12h-6.86c-3.37,0-6.12,2.75-6.12,6.12v3.42H73.36z"/>
						<path class="st11" d="M70.88,40.3v81.94c1.49-1.12,2.48-2.89,2.48-4.89V45.18C73.36,43.18,72.38,41.41,70.88,40.3z"/>
					</g>
					<path class="st3" d="M85.34,138.82h-4.81c-3.93,0-7.15-3.22-7.15-7.15V30.86c0-3.93,3.22-7.15,7.15-7.15h4.81
						c3.93,0,7.15,3.22,7.15,7.15v100.81C92.49,135.6,89.27,138.82,85.34,138.82z"/>
					<g>
						<path class="st10" d="M92.49,33.94v-3.08c0-3.93-3.22-7.15-7.15-7.15h-4.81c-3.93,0-7.15,3.22-7.15,7.15v3.08H92.49z"/>
					</g>
					<g class="st12">
						<path class="st3" d="M92.49,128.6v3.08c0,3.93-3.22,7.15-7.15,7.15h-4.81c-3.93,0-7.15-3.22-7.15-7.15v-3.08H92.49z"/>
					</g>
				</g>
				<g>
					<path class="st6" d="M240,80.93h236.63c-0.17-2.23-1.92-4-4.08-4H240V80.93z"/>
					<rect x="464.3" y="76.93" class="st7" width="7.43" height="8.67"/>
				</g>
				<g>
					
						<rect x="464.63" y="74.52" transform="matrix(-1 -1.224647e-16 1.224647e-16 -1 935.25 162.5339)" class="st7" width="6" height="13.5"/>
					
						<rect x="464.63" y="74.52" transform="matrix(-1 -1.224647e-16 1.224647e-16 -1 935.25 152.5339)" class="st6" width="6" height="3.5"/>
					
						<rect x="464.63" y="84.58" transform="matrix(-1 -1.224647e-16 1.224647e-16 -1 935.25 172.5964)" class="st8" width="6" height="3.44"/>
				</g>
				<g>
					<g>
						<path class="st3" d="M450.17,108.12h8.71c2.62,0,4.77-2.15,4.77-4.77V59.18c0-2.62-2.15-4.77-4.77-4.77h-8.71
							c-2.62,0-4.77,2.15-4.77,4.77v44.17C445.4,105.98,447.54,108.12,450.17,108.12z"/>
						<path class="st9" d="M445.4,100.93v2.42c0,2.62,2.15,4.77,4.77,4.77h8.71c2.62,0,4.77-2.15,4.77-4.77v-2.42H445.4z"/>
						<path class="st10" d="M445.4,61.6v-2.42c0-2.62,2.15-4.77,4.77-4.77h8.71c2.62,0,4.77,2.15,4.77,4.77v2.42H445.4z"/>
						<path class="st11" d="M448.41,54.76v53.02c-1.76-0.71-3.01-2.42-3.01-4.42V59.18C445.4,57.18,446.65,55.46,448.41,54.76z"/>
					</g>
					<g>
						<path class="st3" d="M432.76,123.47h6.86c3.37,0,6.12-2.75,6.12-6.12V45.18c0-3.37-2.75-6.12-6.12-6.12h-6.86
							c-3.37,0-6.12,2.75-6.12,6.12v72.17C426.64,120.72,429.39,123.47,432.76,123.47z"/>
						<path class="st9" d="M426.64,113.93v3.42c0,3.37,2.75,6.12,6.12,6.12h6.86c3.37,0,6.12-2.75,6.12-6.12v-3.42H426.64z"/>
						<path class="st10" d="M426.64,48.6v-3.42c0-3.37,2.75-6.12,6.12-6.12h6.86c3.37,0,6.12,2.75,6.12,6.12v3.42H426.64z"/>
						<path class="st11" d="M429.12,40.3v81.94c-1.49-1.12-2.48-2.89-2.48-4.89V45.18C426.64,43.18,427.62,41.41,429.12,40.3z"/>
					</g>
					<path class="st3" d="M414.66,138.82h4.81c3.93,0,7.15-3.22,7.15-7.15V30.86c0-3.93-3.22-7.15-7.15-7.15h-4.81
						c-3.93,0-7.15,3.22-7.15,7.15v100.81C407.51,135.6,410.73,138.82,414.66,138.82z"/>
					<g>
						<path class="st10" d="M407.51,33.94v-3.08c0-3.93,3.22-7.15,7.15-7.15h4.81c3.93,0,7.15,3.22,7.15,7.15v3.08H407.51z"/>
					</g>
					<g class="st12">
						<path class="st3" d="M407.51,128.6v3.08c0,3.93,3.22,7.15,7.15,7.15h4.81c3.93,0,7.15-3.22,7.15-7.15v-3.08H407.51z"/>
					</g>
				</g>
			</g>
			<g>
				<path class="st4" d="M298.02,189.06h-94.99c-4.97,0-9-4.03-9-9v-4.16c0-13.28,10.77-24.05,24.05-24.05h64.89
					c13.28,0,24.05,10.77,24.05,24.05v4.16C307.02,185.03,302.99,189.06,298.02,189.06z"/>
				<g>
					<path class="st13" d="M133.92,80.29l-0.77-11.31c0-1.93-1.57-3.5-3.5-3.5c-1.93,0-3.5,1.57-3.5,3.5l0.48,6.95h-0.37l-0.51-8.41
						c0-2.03-1.64-3.67-3.67-3.67h-0.49c-2.03,0-3.67,1.64-3.67,3.67l0.51,8.41h-0.6l-0.51-8.14c0-1.95-1.58-3.53-3.53-3.53
						c-1.95,0-3.53,1.58-3.53,3.53l0.52,8.14c-0.21,0-0.41,0.01-0.61,0.03l-0.45-6.36c0-1.85-1.5-3.35-3.35-3.35
						c-1.85,0-3.35,1.5-3.35,3.35l0.8,11.26c-0.32,0.84-0.5,1.74-0.5,2.69v2.38v4.71c0,4.19,3.43,7.62,7.62,7.62h16.11
						c4.19,0,7.62-3.43,7.62-7.62v-4.71v-2.38C134.67,82.39,134.39,81.29,133.92,80.29z"/>
					<g>
						<path class="st13" d="M140.97,164.27c0,0-9.79-27.94-11.79-37.59c-1.55-7.49-3.21-30.41-3.21-30.41l-17.33-1.67l0.39,57.67
							c0.13,11.25,2.49,20.46,9.28,25.33c6.34,4.55,16.33,0.67,16.33,0.67l0.26-9.75L140.97,164.27z"/>
						<path class="st13" d="M177.51,163.89l-56.74,0.05v9.46c0.43,8.8,9.97,12.5,16.88,12.5l27.2-0.05c7,0,12.67-5.67,12.67-12.67
							V163.89z"/>
						<path class="st13" d="M138.55,172.58h36.32c4.4,0,7.96-3.57,7.96-7.96l0,0c0-3.23-1.34-6.27-3.76-8.04
							c-12.19-8.92-27.69-6.67-35.95,0.01c-3.58,2.9-6.32,6.94-6.32,11.9v2.37C136.82,171.8,137.59,172.58,138.55,172.58z"/>
						<path class="st13" d="M183.89,171.15v4.72c0,6.92-4.23,12.54-9.45,12.54h-15.28c-10.4,0.11-21.27-7.17-21.27-16.39v-0.57
							L183.89,171.15z"/>
						<path class="st13" d="M204.19,158.98c2.63,2.64,4.39,6.44,4.39,10.19v8.32c0,6.47-5.25,11.72-11.72,11.72h-7.26
							c-6.47,0-11.72-5.25-11.72-11.72v-8.32c0-4.05,1.41-8.55,4.65-11.02C187.26,154.53,197.52,152.27,204.19,158.98z"/>
						<path class="st14" d="M109.31,118.93h18.04c1.8,0,3.2-1.44,2.98-3.08l-2.03-15.49c-0.18-1.38-1.46-2.43-2.98-2.43h-16.01
							c-1.66,0-3,1.23-3,2.75v15.49C106.3,117.7,107.65,118.93,109.31,118.93z"/>
					</g>
				</g>
				<g>
					<path class="st13" d="M397.26,69.62c0-1.85-1.5-3.35-3.35-3.35s-3.35,1.5-3.35,3.35l-0.45,6.36c-0.2-0.02-0.41-0.03-0.61-0.03
						l0.52-8.14c0-1.95-1.58-3.53-3.53-3.53c-1.95,0-3.53,1.58-3.53,3.53l-0.51,8.14h-0.6l0.51-8.41c0-2.03-1.64-3.67-3.67-3.67
						h-0.49c-2.03,0-3.67,1.64-3.67,3.67l-0.51,8.41h-0.37l0.48-6.95c0-1.93-1.57-3.5-3.5-3.5s-3.5,1.57-3.5,3.5l-0.77,11.31
						c-0.47,0.99-0.75,2.1-0.75,3.26v2.38v4.71c0,4.19,3.43,7.62,7.62,7.62h16.11c4.19,0,7.62-3.43,7.62-7.62v-4.71v-2.38
						c0-0.95-0.18-1.85-0.5-2.69L397.26,69.62z"/>
					<g>
						<path class="st13" d="M358.93,164.27c0,0,9.79-27.94,11.79-37.59c1.55-7.49,3.21-30.41,3.21-30.41l17.33-1.67l-0.39,57.67
							c-0.13,11.25-2.49,20.46-9.28,25.33c-6.34,4.55-16.33,0.67-16.33,0.67l-0.26-9.75L358.93,164.27z"/>
						<path class="st13" d="M322.39,163.89l56.74,0.05v9.46c-0.43,8.8-9.97,12.5-16.88,12.5l-27.2-0.05c-7,0-12.67-5.67-12.67-12.67
							V163.89z"/>
						<path class="st13" d="M361.34,172.58h-36.32c-4.4,0-7.96-3.57-7.96-7.96l0,0c0-3.23,1.34-6.27,3.76-8.04
							c12.19-8.92,27.69-6.67,35.95,0.01c3.58,2.9,6.32,6.94,6.32,11.9v2.37C363.08,171.8,362.3,172.58,361.34,172.58z"/>
						<path class="st13" d="M362,171.45v0.57c0,9.22-10.88,16.5-21.27,16.39h-15.28c-5.22,0-9.45-5.61-9.45-12.54v-4.72L362,171.45z
							"/>
						<path class="st13" d="M317.38,158.15c3.24,2.47,4.65,6.98,4.65,11.02v8.32c0,6.47-5.25,11.72-11.72,11.72h-7.26
							c-6.47,0-11.72-5.25-11.72-11.72v-8.32c0-3.75,1.76-7.54,4.39-10.19C302.38,152.27,312.64,154.53,317.38,158.15z"/>
						<path class="st14" d="M390.59,118.93h-18.04c-1.8,0-3.2-1.44-2.98-3.08l2.03-15.49c0.18-1.38,1.46-2.43,2.98-2.43h16.01
							c1.66,0,3,1.23,3,2.75v15.49C393.59,117.7,392.25,118.93,390.59,118.93z"/>
					</g>
				</g>
				<g>
					<path class="st13" d="M287.61,165.94l-6.12-8.6c-0.54-0.77-1.25-1.31-2-1.62v-8.79c0-10.82-8.77-19.59-19.59-19.59h-21.33
						c-10.82,0-19.59,8.77-19.59,19.59v9.56c-0.28,0.25-0.55,0.52-0.78,0.84l-6.12,8.6c-0.74,1.04-0.65,2.4,0.19,3.05
						c1.97,1.51,4.82,1.09,6.85-0.85c1.14,9.73,9.4,17.29,19.44,17.29h21.33c10.5,0,19.04-8.26,19.54-18.63l0.2,0.29
						c2,2.81,5.48,3.67,7.77,1.91C288.26,168.34,288.35,166.98,287.61,165.94z"/>
					<path class="st13" d="M249.33,137.43L249.33,137.43c-2.61,0-4.75-2.14-4.75-4.75v-7c0-2.61,2.14-4.75,4.75-4.75l0,0
						c2.61,0,4.75,2.14,4.75,4.75v7C254.08,135.3,251.95,137.43,249.33,137.43z"/>
					<path class="st15" d="M274,155.93v-0.67c0-5.89-4.78-10.67-10.67-10.67h-28c-5.89,0-10.67,4.78-10.67,10.67v0.67h-5.98v13.67
						c0,10.49,8.51,19,19,19h24.62c10.49,0,19-8.51,19-19v-13.67H274z"/>
				</g>
			</g>
		</g>
	</g>
</g>
<g id="TEXTURE" class="st0">
</g>
<g id="DESIGNED_BY_FREEPIK">
</g>
</svg>
